<svg xmlns="http://www.w3.org/2000/svg" viewBox="0 0 446.86 79.1"><polygon points="53.84 0.25 53.84 20.61 26.97 33.85 26.97 13.56 53.84 0.25" fill="#00517d"/><polygon points="87.44 13.56 87.44 33.85 60.56 20.61 60.56 0.25 87.44 13.56" fill="#00517d"/><polygon points="53.84 53.47 53.84 73.83 26.97 60.59 26.97 40.23 53.84 53.47" fill="#00517d"/><polygon points="87.44 40.23 87.44 60.59 60.56 73.83 60.56 53.47 87.44 40.23" fill="#00517d"/><polygon points="20.25 13.69 1.43 0.52 1.43 74.44 20.25 61.2 20.25 13.69" fill="#00517d"/><path d="M135.62,22.63c-.47-.74-1-1.48-1.61-2.29s-1.28-1.54-1.95-2.28A29.15,29.15,0,0,0,130,16a25.41,25.41,0,0,0-2.15-1.75v8.33h-3.36V4h3.36v7.66l1.88-1.88c.67-.67,1.27-1.35,1.95-2l1.81-2L135,4h4c-.61.67-1.21,1.41-1.88,2.15l-2,2.22c-.67.74-1.41,1.48-2.08,2.21S131.66,12,131,12.62a20.6,20.6,0,0,1,2.29,2,26.33,26.33,0,0,1,2.28,2.42c.74.88,1.48,1.75,2.15,2.69a33,33,0,0,1,1.89,2.82l-4,.07Z"/><path d="M152.35,23a9.82,9.82,0,0,1-3.29-.53A5.64,5.64,0,0,1,146.77,21a5.88,5.88,0,0,1-1.34-2.35,10.14,10.14,0,0,1-.4-3V4h3.42V15.24a6.78,6.78,0,0,0,.27,2.15,4.65,4.65,0,0,0,.81,1.48,2.42,2.42,0,0,0,1.21.8,4.94,4.94,0,0,0,3.22,0,5,5,0,0,0,1.28-.8,4.46,4.46,0,0,0,.81-1.48,7.07,7.07,0,0,0,.27-2.15V4h3.42V15.57a8.18,8.18,0,0,1-.47,3,6.4,6.4,0,0,1-1.34,2.35,5.58,5.58,0,0,1-2.29,1.55A8.26,8.26,0,0,1,152.35,23Z"/><path d="M172.91,22.83c-1,0-1.94,0-2.95-.07a13,13,0,0,1-2.62-.4V4.22c.4-.07.8-.14,1.27-.2A8.83,8.83,0,0,1,170,3.88a9.52,9.52,0,0,1,1.41-.07h1.28a15.8,15.8,0,0,1,3.15.27,8.38,8.38,0,0,1,2.49.88A4.65,4.65,0,0,1,180,6.5a4.48,4.48,0,0,1,.6,2.42,4.35,4.35,0,0,1-.6,2.29,4.17,4.17,0,0,1-1.75,1.47,5.09,5.09,0,0,1,2.49,1.68,4.67,4.67,0,0,1,.8,2.83,4.76,4.76,0,0,1-2.08,4.3A13,13,0,0,1,172.91,22.83Zm-2.28-11.29h2.42a7.29,7.29,0,0,0,3-.54,1.91,1.91,0,0,0,1.08-1.94A2,2,0,0,0,176,7.17a7.31,7.31,0,0,0-2.95-.53h-1.41c-.41,0-.74.06-1,.06v4.84Zm0,2.69v5.64a7,7,0,0,0,1.21.07h1.21c.67,0,1.34-.07,1.95-.13a4.74,4.74,0,0,0,1.54-.47,3.32,3.32,0,0,0,1.08-.88A2.52,2.52,0,0,0,178,17a2.31,2.31,0,0,0-1.14-2.22,6.81,6.81,0,0,0-3.23-.61l-3,.07Z"/><path d="M188.23,22.63V4h12V6.84h-8.61v4.57h7.66v2.82h-7.66v5.44h9.21v2.89l-12.57.07Z"/><path d="M212.49,3.81a10.69,10.69,0,0,1,6.18,1.48,5.18,5.18,0,0,1,2.15,4.51,5,5,0,0,1-3.76,5.1c.34.41.74.94,1.14,1.48s.88,1.21,1.35,1.95a21.7,21.7,0,0,1,1.27,2.15,15.44,15.44,0,0,1,1.08,2.15h-3.76c-.34-.67-.74-1.28-1.08-1.95s-.81-1.28-1.21-1.88-.8-1.21-1.21-1.75-.74-1-1.07-1.48h-2.83v7.06h-3.35V4.22A15.84,15.84,0,0,1,210,3.88C211,3.81,211.75,3.81,212.49,3.81Zm.27,2.89a18.26,18.26,0,0,0-2,.07v6.05h1.48a18.45,18.45,0,0,0,2.15-.14,4.29,4.29,0,0,0,1.55-.47,2.09,2.09,0,0,0,.94-.94,3.37,3.37,0,0,0,0-2.95,2.09,2.09,0,0,0-.94-.94,4,4,0,0,0-1.41-.47A6.35,6.35,0,0,0,212.76,6.7Z"/><path d="M232.18,4c.4.67.81,1.54,1.34,2.49s1,2,1.48,3.09,1,2.21,1.48,3.29.94,2.15,1.34,3.09l1.35-3.09c.47-1.14,1-2.22,1.48-3.29s1-2.15,1.48-3.09A26.6,26.6,0,0,1,243.47,4h3c.14,1.34.34,2.82.47,4.37s.27,3.09.41,4.7.2,3.23.33,4.84.2,3.22.27,4.77h-3.36c-.07-2.15-.13-4.37-.27-6.72s-.27-4.5-.47-6.65c-.2.4-.4.87-.67,1.48s-.54,1.21-.87,1.88-.61,1.34-.94,2.08-.61,1.41-.94,2.08-.54,1.28-.81,1.88-.47,1.08-.67,1.48h-2.56c-.2-.4-.4-.94-.67-1.48s-.54-1.2-.8-1.88-.61-1.34-.95-2.08-.6-1.41-.94-2.08-.6-1.28-.87-1.88-.47-1.08-.67-1.48c-.2,2.15-.34,4.37-.47,6.65s-.2,4.5-.27,6.72h-3.36c.07-1.55.13-3.16.27-4.77s.2-3.29.33-4.91.27-3.22.41-4.7.27-3,.47-4.23L232.18,4Z"/><path d="M267.93,22.63c-.27-.74-.54-1.48-.81-2.15s-.54-1.48-.8-2.22h-7.87c-.27.74-.53,1.48-.74,2.22s-.53,1.48-.73,2.15h-3.5c.67-2,1.34-3.83,2-5.51s1.21-3.29,1.81-4.77,1.21-3,1.82-4.3,1.2-2.69,1.81-4h3.22c.61,1.34,1.21,2.68,1.82,4s1.21,2.82,1.81,4.3,1.21,3.09,1.88,4.77,1.28,3.49,2,5.51Zm-5.44-15c-.41.94-.88,2.08-1.42,3.49s-1.07,2.82-1.68,4.44h6.12c-.61-1.62-1.14-3.09-1.68-4.44S262.82,8.52,262.49,7.58Z"/><path d="M288.36,4v3h-5.72V22.63h-3.42V6.91h-5.71V4Z"/><path d="M294.2,4h3.36V22.56H294.2Z"/><path d="M313.55,23a9.62,9.62,0,0,1-3.76-.67A6.9,6.9,0,0,1,307,20.48a8.92,8.92,0,0,1-1.75-3,13.1,13.1,0,0,1-.6-4.17,11.53,11.53,0,0,1,.74-4.17,8.78,8.78,0,0,1,1.94-3,8.25,8.25,0,0,1,2.89-1.88,10.06,10.06,0,0,1,3.56-.67,9.69,9.69,0,0,1,2.09.2c.6.13,1.14.27,1.61.4a3.84,3.84,0,0,1,1.14.47,6.88,6.88,0,0,1,.68.34l-1,2.75A6.76,6.76,0,0,0,316.44,7a8.19,8.19,0,0,0-2.62-.33,6.52,6.52,0,0,0-2.28.4,4.27,4.27,0,0,0-1.82,1.28,5.34,5.34,0,0,0-1.21,2.08,9.77,9.77,0,0,0-.4,3,10.44,10.44,0,0,0,.34,2.68,5.68,5.68,0,0,0,1,2.15,5.11,5.11,0,0,0,1.75,1.42,6.08,6.08,0,0,0,2.55.47,12,12,0,0,0,3-.34c.74-.27,1.35-.47,1.75-.67l.94,2.75a5.53,5.53,0,0,1-.87.41c-.34.13-.81.27-1.28.4a11.56,11.56,0,0,1-1.68.34C315,23,314.23,23,313.55,23Z"/><path d="M124.3,70.86v-28h7.82a12.13,12.13,0,0,1,6.17,1.57,10.82,10.82,0,0,1,4.25,4.48,14.14,14.14,0,0,1,1.53,6.65v2.58a14.13,14.13,0,0,1-1.52,6.64,10.8,10.8,0,0,1-4.27,4.48A12.55,12.55,0,0,1,132,70.86Zm2.36-26v24H132a9.13,9.13,0,0,0,7.08-2.93A11.31,11.31,0,0,0,141.73,58V55.53a11.07,11.07,0,0,0-2.64-7.73,9,9,0,0,0-6.93-2.92Z"/><path d="M157.38,71.24a8.94,8.94,0,0,1-8.13-4.95,11.37,11.37,0,0,1-1.19-5.23v-.83a12.3,12.3,0,0,1,1.16-5.4,9.27,9.27,0,0,1,3.24-3.77,8,8,0,0,1,4.5-1.38,7.52,7.52,0,0,1,6,2.59,10.46,10.46,0,0,1,2.22,7.06v1.29H150.35v.44a8.72,8.72,0,0,0,2,5.89,6.47,6.47,0,0,0,5.11,2.35,7.43,7.43,0,0,0,3.25-.67,7.34,7.34,0,0,0,2.57-2.15l1.44,1.09A8.38,8.38,0,0,1,157.38,71.24ZM157,51.64a5.74,5.74,0,0,0-4.37,1.91,8.76,8.76,0,0,0-2.17,5.11h12.47v-.25a7.57,7.57,0,0,0-1.71-4.88A5.27,5.27,0,0,0,157,51.64Z"/><path d="M175.68,67.69,182,50.07h2.36l-7.76,20.79h-1.87l-7.8-20.79h2.36Z"/><path d="M196,71.24a8.94,8.94,0,0,1-8.13-4.95,11.37,11.37,0,0,1-1.19-5.23v-.83a12.16,12.16,0,0,1,1.17-5.4,9.17,9.17,0,0,1,3.23-3.77,8,8,0,0,1,4.5-1.38,7.52,7.52,0,0,1,6,2.59,10.46,10.46,0,0,1,2.22,7.06v1.29H189v.44A8.68,8.68,0,0,0,191,67a6.44,6.44,0,0,0,5.1,2.35,7.51,7.51,0,0,0,3.26-.67,7.31,7.31,0,0,0,2.56-2.15l1.44,1.09A8.38,8.38,0,0,1,196,71.24Zm-.42-19.6a5.74,5.74,0,0,0-4.37,1.91A8.69,8.69,0,0,0,189,58.66h12.47v-.25a7.63,7.63,0,0,0-1.72-4.88A5.27,5.27,0,0,0,195.57,51.64Z"/><path d="M210.64,70.86h-2.3V41.35h2.3Z"/><path d="M215.43,60.16a12.16,12.16,0,0,1,1.16-5.4,8.73,8.73,0,0,1,8.1-5.08,8.52,8.52,0,0,1,6.72,2.92A11.18,11.18,0,0,1,234,60.31v.48a12.29,12.29,0,0,1-1.17,5.43,8.64,8.64,0,0,1-3.27,3.71,8.92,8.92,0,0,1-4.83,1.31A8.55,8.55,0,0,1,218,68.33a11.19,11.19,0,0,1-2.58-7.71Zm2.3.63a9.49,9.49,0,0,0,1.93,6.12,6.54,6.54,0,0,0,10.11,0,9.74,9.74,0,0,0,1.93-6.31v-.44a10.76,10.76,0,0,0-.88-4.37,7.09,7.09,0,0,0-2.48-3.06,6.38,6.38,0,0,0-3.65-1.09,6.16,6.16,0,0,0-5,2.42,9.76,9.76,0,0,0-1.94,6.31Z"/><path d="M255.25,60.67a12.57,12.57,0,0,1-2.15,7.72,6.87,6.87,0,0,1-5.76,2.85,7.7,7.7,0,0,1-6.54-3V78.85h-2.28V50.07h2.13l.11,2.94a7.39,7.39,0,0,1,6.52-3.33,6.94,6.94,0,0,1,5.85,2.83q2.12,2.82,2.12,7.84Zm-2.3-.4A10.66,10.66,0,0,0,251.31,54a5.27,5.27,0,0,0-4.55-2.31,6.35,6.35,0,0,0-3.63,1,6.47,6.47,0,0,0-2.33,3v10a6.15,6.15,0,0,0,2.36,2.73,6.83,6.83,0,0,0,3.64.94A5.2,5.2,0,0,0,251.32,67Q253,64.67,253,60.27Z"/><path d="M268.2,71.24a8.91,8.91,0,0,1-8.13-4.95,11.37,11.37,0,0,1-1.19-5.23v-.83a12.3,12.3,0,0,1,1.16-5.4,9.27,9.27,0,0,1,3.24-3.77,7.94,7.94,0,0,1,4.49-1.38,7.52,7.52,0,0,1,6,2.59A10.46,10.46,0,0,1,276,59.33v1.29H261.16v.44a8.73,8.73,0,0,0,2,5.89,6.44,6.44,0,0,0,5.1,2.35,7.48,7.48,0,0,0,3.26-.67,7.34,7.34,0,0,0,2.57-2.15l1.44,1.09A8.39,8.39,0,0,1,268.2,71.24Zm-.43-19.6a5.77,5.77,0,0,0-4.37,1.91,8.81,8.81,0,0,0-2.16,5.11h12.47v-.25A7.57,7.57,0,0,0,272,53.53,5.29,5.29,0,0,0,267.77,51.64Z"/><path d="M289.88,52a8.43,8.43,0,0,0-1.55-.14,5.6,5.6,0,0,0-3.64,1.2,6.59,6.59,0,0,0-2.13,3.49V70.86h-2.28V50.07h2.24l0,3.3a6.12,6.12,0,0,1,5.86-3.69,3.91,3.91,0,0,1,1.52.25Z"/><path d="M305.59,59.46v11.4h-2.36v-28h9.53a10.06,10.06,0,0,1,6.88,2.23,7.74,7.74,0,0,1,2.53,6.13,7.67,7.67,0,0,1-2.43,6.08q-2.43,2.15-7,2.14Zm0-2h7.17A7.55,7.55,0,0,0,318,55.83a5.82,5.82,0,0,0,1.81-4.56,6.11,6.11,0,0,0-1.8-4.63,7.22,7.22,0,0,0-5.1-1.76h-7.32Z"/><path d="M329.3,70.86H327V41.35h2.31Z"/><path d="M348.47,70.86A10.79,10.79,0,0,1,348,68a8.05,8.05,0,0,1-3.09,2.43,9.43,9.43,0,0,1-4,.85,7,7,0,0,1-4.86-1.67,5.45,5.45,0,0,1-1.85-4.23,5.56,5.56,0,0,1,2.53-4.8,12.11,12.11,0,0,1,7-1.77H348V56.41a4.57,4.57,0,0,0-1.37-3.51,5.71,5.71,0,0,0-4-1.28,6.28,6.28,0,0,0-4,1.23,3.65,3.65,0,0,0-1.57,3l-2.31,0a5.34,5.34,0,0,1,2.31-4.29,8.85,8.85,0,0,1,5.66-1.82,8.11,8.11,0,0,1,5.49,1.74,6.25,6.25,0,0,1,2.07,4.85v9.84a12.31,12.31,0,0,0,.63,4.52v.23Zm-7.22-1.66a7.75,7.75,0,0,0,4.12-1.11,6.55,6.55,0,0,0,2.64-3V60.54H343.9a10.25,10.25,0,0,0-5.38,1.26,3.76,3.76,0,0,0-1.94,3.35,3.72,3.72,0,0,0,1.29,2.9A4.9,4.9,0,0,0,341.25,69.2Z"/><path d="M359.8,44.75v5.32h4.3V52h-4.3V65.82a4.42,4.42,0,0,0,.62,2.58,2.44,2.44,0,0,0,2.09.84,13.92,13.92,0,0,0,1.86-.19l.1,1.87a7.72,7.72,0,0,1-2.46.32,4.1,4.1,0,0,1-3.44-1.37,6.48,6.48,0,0,1-1.08-4.05V52h-3.82V50.07h3.82V44.75Z"/><path d="M370.32,70.86V52h-3.44V50.07h3.44V47.55a6.86,6.86,0,0,1,1.62-4.9,6,6,0,0,1,4.53-1.71,8.72,8.72,0,0,1,2.44.33l-.17,1.9a9.19,9.19,0,0,0-2.1-.23,3.8,3.8,0,0,0-3,1.18,4.93,4.93,0,0,0-1.05,3.37v2.58h4.95V52h-4.95V70.86Z"/><path d="M380.23,60.16a12.3,12.3,0,0,1,1.16-5.4,8.76,8.76,0,0,1,8.1-5.08,8.54,8.54,0,0,1,6.73,2.92,11.22,11.22,0,0,1,2.57,7.71v.48a12.43,12.43,0,0,1-1.16,5.43,8.73,8.73,0,0,1-3.28,3.71,8.89,8.89,0,0,1-4.82,1.31,8.55,8.55,0,0,1-6.71-2.91,11.15,11.15,0,0,1-2.59-7.71Zm2.31.63a9.44,9.44,0,0,0,1.93,6.12,6.53,6.53,0,0,0,10.1,0,9.74,9.74,0,0,0,1.93-6.31v-.44a10.6,10.6,0,0,0-.88-4.37,7,7,0,0,0-2.48-3.06,6.36,6.36,0,0,0-3.65-1.09,6.13,6.13,0,0,0-5,2.42,9.7,9.7,0,0,0-1.94,6.31Z"/><path d="M413,52a8.62,8.62,0,0,0-1.56-.14,5.62,5.62,0,0,0-3.64,1.2,6.64,6.64,0,0,0-2.12,3.49V70.86h-2.29V50.07h2.25l0,3.3a6.12,6.12,0,0,1,5.86-3.69,3.94,3.94,0,0,1,1.52.25Z"/><path d="M418.47,50.07l.08,3.38a7.57,7.57,0,0,1,2.89-2.82,7.86,7.86,0,0,1,3.84-1q4.92,0,6.24,4a7.85,7.85,0,0,1,3-3,8.22,8.22,0,0,1,4.11-1q6.69,0,6.82,7.31V70.86h-2.3V57.16a6.26,6.26,0,0,0-1.2-4.13,4.9,4.9,0,0,0-3.86-1.35,6.1,6.1,0,0,0-4.18,1.61A5.63,5.63,0,0,0,432,57.1V70.86h-2.3V57a5.73,5.73,0,0,0-1.26-4,5,5,0,0,0-3.82-1.32,5.81,5.81,0,0,0-3.72,1.24,7.26,7.26,0,0,0-2.31,3.68V70.86h-2.3V50.07Z"/></svg>