<svg width="187" height="30" viewBox="0 0 187 30" fill="none" xmlns="http://www.w3.org/2000/svg">
    <g clip-path="url(#clip0_8922_3676)">
        <path d="M52.1547 27H49.5766L49.5922 26.1797H52.1547C52.9724 26.1797 53.6755 25.9974 54.2641 25.6328C54.8578 25.263 55.3162 24.7526 55.6391 24.1016C55.962 23.4505 56.1234 22.6953 56.1234 21.8359V20.7734C56.1234 20.1172 56.0297 19.5234 55.8422 18.9922C55.6599 18.4609 55.3969 18.0078 55.0531 17.6328C54.7094 17.2526 54.2979 16.9609 53.8188 16.7578C53.3448 16.5547 52.8135 16.4531 52.225 16.4531H49.5297V15.625H52.225C52.9333 15.625 53.5818 15.7474 54.1703 15.9922C54.7641 16.2318 55.2771 16.5807 55.7094 17.0391C56.1469 17.4922 56.4828 18.0365 56.7172 18.6719C56.9568 19.3073 57.0766 20.0156 57.0766 20.7969V21.8359C57.0766 22.6172 56.9568 23.3255 56.7172 23.9609C56.4828 24.5964 56.1469 25.1406 55.7094 25.5938C55.2719 26.0469 54.7537 26.3958 54.1547 26.6406C53.5557 26.8802 52.8891 27 52.1547 27ZM50.0063 15.625V27H49.0453V15.625H50.0063ZM62.5766 27.1562C62.0245 27.1562 61.5167 27.0547 61.0531 26.8516C60.5948 26.6484 60.1938 26.362 59.85 25.9922C59.5115 25.6224 59.2484 25.1849 59.0609 24.6797C58.8787 24.1693 58.7875 23.612 58.7875 23.0078V22.6719C58.7875 22.0208 58.8839 21.4323 59.0766 20.9062C59.2693 20.3802 59.5349 19.9297 59.8734 19.5547C60.212 19.1797 60.5974 18.8932 61.0297 18.6953C61.4672 18.4922 61.9255 18.3906 62.4047 18.3906C62.9412 18.3906 63.4177 18.487 63.8344 18.6797C64.251 18.8672 64.6 19.1354 64.8813 19.4844C65.1677 19.8281 65.3839 20.237 65.5297 20.7109C65.6755 21.1797 65.7484 21.6979 65.7484 22.2656V22.8359H59.35V22.0391H64.8188V21.9297C64.8083 21.4557 64.712 21.013 64.5297 20.6016C64.3526 20.1849 64.087 19.8464 63.7328 19.5859C63.3787 19.3255 62.9359 19.1953 62.4047 19.1953C62.0089 19.1953 61.6443 19.2786 61.3109 19.4453C60.9828 19.612 60.699 19.8516 60.4594 20.1641C60.225 20.4714 60.0427 20.8385 59.9125 21.2656C59.7875 21.6875 59.725 22.1562 59.725 22.6719V23.0078C59.725 23.4766 59.7927 23.9141 59.9281 24.3203C60.0688 24.7214 60.2667 25.0755 60.5219 25.3828C60.7823 25.6901 61.0896 25.9297 61.4438 26.1016C61.7979 26.2734 62.1885 26.3594 62.6156 26.3594C63.1156 26.3594 63.5583 26.2682 63.9438 26.0859C64.3292 25.8984 64.6755 25.6042 64.9828 25.2031L65.5688 25.6562C65.3865 25.9271 65.1573 26.1771 64.8813 26.4062C64.6104 26.6354 64.2849 26.8177 63.9047 26.9531C63.5245 27.0885 63.0818 27.1562 62.5766 27.1562ZM69.975 26.1016L72.6859 18.5469H73.6469L70.4828 27H69.8031L69.975 26.1016ZM67.5219 18.5469L70.2641 26.125L70.4125 27H69.725L66.5531 18.5469H67.5219ZM78.3422 27.1562C77.7901 27.1562 77.2823 27.0547 76.8188 26.8516C76.3604 26.6484 75.9594 26.362 75.6156 25.9922C75.2771 25.6224 75.0141 25.1849 74.8266 24.6797C74.6443 24.1693 74.5531 23.612 74.5531 23.0078V22.6719C74.5531 22.0208 74.6495 21.4323 74.8422 20.9062C75.0349 20.3802 75.3005 19.9297 75.6391 19.5547C75.9776 19.1797 76.363 18.8932 76.7953 18.6953C77.2328 18.4922 77.6912 18.3906 78.1703 18.3906C78.7068 18.3906 79.1833 18.487 79.6 18.6797C80.0167 18.8672 80.3656 19.1354 80.6469 19.4844C80.9333 19.8281 81.1495 20.237 81.2953 20.7109C81.4412 21.1797 81.5141 21.6979 81.5141 22.2656V22.8359H75.1156V22.0391H80.5844V21.9297C80.574 21.4557 80.4776 21.013 80.2953 20.6016C80.1182 20.1849 79.8526 19.8464 79.4984 19.5859C79.1443 19.3255 78.7016 19.1953 78.1703 19.1953C77.7745 19.1953 77.4099 19.2786 77.0766 19.4453C76.7484 19.612 76.4646 19.8516 76.225 20.1641C75.9906 20.4714 75.8083 20.8385 75.6781 21.2656C75.5531 21.6875 75.4906 22.1562 75.4906 22.6719V23.0078C75.4906 23.4766 75.5583 23.9141 75.6938 24.3203C75.8344 24.7214 76.0323 25.0755 76.2875 25.3828C76.5479 25.6901 76.8552 25.9297 77.2094 26.1016C77.5635 26.2734 77.9542 26.3594 78.3813 26.3594C78.8813 26.3594 79.324 26.2682 79.7094 26.0859C80.0948 25.8984 80.4412 25.6042 80.7484 25.2031L81.3344 25.6562C81.1521 25.9271 80.9229 26.1771 80.6469 26.4062C80.376 26.6354 80.0505 26.8177 79.6703 26.9531C79.2901 27.0885 78.8474 27.1562 78.3422 27.1562ZM84.3969 15V27H83.4672V15H84.3969ZM86.4359 22.9062V22.6484C86.4359 22.0339 86.5245 21.4661 86.7016 20.9453C86.8787 20.4245 87.1313 19.974 87.4594 19.5938C87.7927 19.2135 88.1912 18.9193 88.6547 18.7109C89.1182 18.4974 89.6339 18.3906 90.2016 18.3906C90.7745 18.3906 91.2927 18.4974 91.7563 18.7109C92.2198 18.9193 92.6182 19.2135 92.9516 19.5938C93.2849 19.974 93.5401 20.4245 93.7172 20.9453C93.8943 21.4661 93.9828 22.0339 93.9828 22.6484V22.9062C93.9828 23.5208 93.8943 24.0885 93.7172 24.6094C93.5401 25.125 93.2849 25.5729 92.9516 25.9531C92.6234 26.3333 92.2276 26.6302 91.7641 26.8438C91.3005 27.0521 90.7849 27.1562 90.2172 27.1562C89.6443 27.1562 89.126 27.0521 88.6625 26.8438C88.199 26.6302 87.8005 26.3333 87.4672 25.9531C87.1339 25.5729 86.8787 25.125 86.7016 24.6094C86.5245 24.0885 86.4359 23.5208 86.4359 22.9062ZM87.3656 22.6484V22.9062C87.3656 23.3698 87.4281 23.8099 87.5531 24.2266C87.6781 24.638 87.8604 25.0052 88.1 25.3281C88.3396 25.6458 88.6365 25.8958 88.9906 26.0781C89.3448 26.2604 89.7537 26.3516 90.2172 26.3516C90.6755 26.3516 91.0792 26.2604 91.4281 26.0781C91.7823 25.8958 92.0792 25.6458 92.3188 25.3281C92.5583 25.0052 92.738 24.638 92.8578 24.2266C92.9828 23.8099 93.0453 23.3698 93.0453 22.9062V22.6484C93.0453 22.1901 92.9828 21.7552 92.8578 21.3438C92.738 20.9323 92.5557 20.5651 92.3109 20.2422C92.0714 19.9193 91.7745 19.6641 91.4203 19.4766C91.0662 19.2891 90.6599 19.1953 90.2016 19.1953C89.7432 19.1953 89.337 19.2891 88.9828 19.4766C88.6339 19.6641 88.337 19.9193 88.0922 20.2422C87.8526 20.5651 87.6703 20.9323 87.5453 21.3438C87.4255 21.7552 87.3656 22.1901 87.3656 22.6484ZM96.8422 20.1719V30.25H95.9047V18.5469H96.7797L96.8422 20.1719ZM102.717 22.6953V22.8594C102.717 23.4896 102.644 24.0677 102.498 24.5938C102.353 25.1198 102.142 25.5755 101.866 25.9609C101.595 26.3411 101.259 26.6354 100.858 26.8438C100.457 27.0521 100.001 27.1562 99.4906 27.1562C98.9854 27.1562 98.5349 27.0781 98.1391 26.9219C97.7432 26.7656 97.4021 26.5443 97.1156 26.2578C96.8344 25.9661 96.6078 25.6276 96.4359 25.2422C96.2693 24.8516 96.1521 24.4245 96.0844 23.9609V21.7969C96.1625 21.2865 96.2901 20.8229 96.4672 20.4062C96.6443 19.9896 96.8708 19.6302 97.1469 19.3281C97.4281 19.026 97.7615 18.7943 98.1469 18.6328C98.5323 18.4714 98.9724 18.3906 99.4672 18.3906C99.9828 18.3906 100.441 18.4922 100.842 18.6953C101.248 18.8932 101.59 19.1823 101.866 19.5625C102.147 19.9375 102.358 20.3906 102.498 20.9219C102.644 21.4479 102.717 22.0391 102.717 22.6953ZM101.78 22.8594V22.6953C101.78 22.2005 101.728 21.7422 101.623 21.3203C101.524 20.8984 101.371 20.5312 101.163 20.2188C100.959 19.901 100.699 19.6536 100.381 19.4766C100.069 19.2995 99.6964 19.2109 99.2641 19.2109C98.8162 19.2109 98.4333 19.2865 98.1156 19.4375C97.8031 19.5833 97.5427 19.7786 97.3344 20.0234C97.126 20.263 96.962 20.526 96.8422 20.8125C96.7224 21.099 96.6339 21.3802 96.5766 21.6562V24.1484C96.6755 24.5443 96.8344 24.9115 97.0531 25.25C97.2719 25.5833 97.5635 25.8516 97.9281 26.0547C98.2979 26.2526 98.7484 26.3516 99.2797 26.3516C99.7068 26.3516 100.077 26.263 100.389 26.0859C100.702 25.9089 100.959 25.6615 101.163 25.3438C101.371 25.026 101.524 24.6562 101.623 24.2344C101.728 23.8125 101.78 23.3542 101.78 22.8594ZM108.061 27.1562C107.509 27.1562 107.001 27.0547 106.538 26.8516C106.079 26.6484 105.678 26.362 105.334 25.9922C104.996 25.6224 104.733 25.1849 104.545 24.6797C104.363 24.1693 104.272 23.612 104.272 23.0078V22.6719C104.272 22.0208 104.368 21.4323 104.561 20.9062C104.754 20.3802 105.019 19.9297 105.358 19.5547C105.696 19.1797 106.082 18.8932 106.514 18.6953C106.952 18.4922 107.41 18.3906 107.889 18.3906C108.426 18.3906 108.902 18.487 109.319 18.6797C109.735 18.8672 110.084 19.1354 110.366 19.4844C110.652 19.8281 110.868 20.237 111.014 20.7109C111.16 21.1797 111.233 21.6979 111.233 22.2656V22.8359H104.834V22.0391H110.303V21.9297C110.293 21.4557 110.196 21.013 110.014 20.6016C109.837 20.1849 109.571 19.8464 109.217 19.5859C108.863 19.3255 108.42 19.1953 107.889 19.1953C107.493 19.1953 107.129 19.2786 106.795 19.4453C106.467 19.612 106.183 19.8516 105.944 20.1641C105.709 20.4714 105.527 20.8385 105.397 21.2656C105.272 21.6875 105.209 22.1562 105.209 22.6719V23.0078C105.209 23.4766 105.277 23.9141 105.413 24.3203C105.553 24.7214 105.751 25.0755 106.006 25.3828C106.267 25.6901 106.574 25.9297 106.928 26.1016C107.282 26.2734 107.673 26.3594 108.1 26.3594C108.6 26.3594 109.043 26.2682 109.428 26.0859C109.814 25.8984 110.16 25.6042 110.467 25.2031L111.053 25.6562C110.871 25.9271 110.642 26.1771 110.366 26.4062C110.095 26.6354 109.769 26.8177 109.389 26.9531C109.009 27.0885 108.566 27.1562 108.061 27.1562ZM114.006 19.9453V27H113.077V18.5469H113.983L114.006 19.9453ZM116.998 18.4844L116.975 19.3438C116.871 19.3281 116.769 19.3151 116.67 19.3047C116.571 19.2943 116.465 19.2891 116.35 19.2891C115.944 19.2891 115.587 19.3646 115.28 19.5156C114.978 19.6615 114.722 19.8672 114.514 20.1328C114.306 20.3932 114.147 20.7005 114.038 21.0547C113.928 21.4036 113.866 21.7786 113.85 22.1797L113.506 22.3125C113.506 21.7604 113.564 21.2474 113.678 20.7734C113.793 20.2995 113.967 19.8854 114.202 19.5312C114.441 19.1719 114.741 18.8932 115.1 18.6953C115.465 18.4922 115.892 18.3906 116.381 18.3906C116.501 18.3906 116.618 18.401 116.733 18.4219C116.853 18.4375 116.941 18.4583 116.998 18.4844ZM126.459 22.3672H123.217V21.5469H126.459C127.136 21.5469 127.686 21.4375 128.108 21.2188C128.535 20.9948 128.845 20.6927 129.038 20.3125C129.235 19.9323 129.334 19.5052 129.334 19.0312C129.334 18.5677 129.235 18.1406 129.038 17.75C128.845 17.3594 128.535 17.0469 128.108 16.8125C127.686 16.5729 127.136 16.4531 126.459 16.4531H123.553V27H122.592V15.625H126.459C127.293 15.625 127.993 15.7682 128.561 16.0547C129.134 16.3411 129.566 16.7396 129.858 17.25C130.149 17.7604 130.295 18.349 130.295 19.0156C130.295 19.7135 130.149 20.3151 129.858 20.8203C129.566 21.3203 129.136 21.7031 128.569 21.9688C128.001 22.2344 127.298 22.3672 126.459 22.3672ZM133.272 15V27H132.342V15H133.272ZM140.967 25.4844V21.125C140.967 20.724 140.884 20.3776 140.717 20.0859C140.551 19.7943 140.306 19.5703 139.983 19.4141C139.66 19.2578 139.261 19.1797 138.788 19.1797C138.35 19.1797 137.959 19.2578 137.616 19.4141C137.277 19.5651 137.009 19.7708 136.811 20.0312C136.618 20.2865 136.522 20.5703 136.522 20.8828L135.584 20.875C135.584 20.5573 135.663 20.25 135.819 19.9531C135.975 19.6562 136.196 19.3906 136.483 19.1562C136.769 18.9219 137.11 18.737 137.506 18.6016C137.907 18.4609 138.347 18.3906 138.827 18.3906C139.431 18.3906 139.962 18.4922 140.42 18.6953C140.884 18.8984 141.246 19.2031 141.506 19.6094C141.767 20.0156 141.897 20.526 141.897 21.1406V25.2266C141.897 25.5182 141.918 25.8203 141.959 26.1328C142.006 26.4453 142.071 26.7031 142.155 26.9062V27H141.163C141.1 26.8125 141.051 26.5781 141.014 26.2969C140.983 26.0104 140.967 25.7396 140.967 25.4844ZM141.186 22.0781L141.202 22.7969H139.366C138.886 22.7969 138.457 22.8411 138.077 22.9297C137.702 23.013 137.384 23.138 137.123 23.3047C136.863 23.4661 136.663 23.6615 136.522 23.8906C136.386 24.1198 136.319 24.3802 136.319 24.6719C136.319 24.974 136.394 25.25 136.545 25.5C136.702 25.75 136.92 25.9505 137.202 26.1016C137.488 26.2474 137.827 26.3203 138.217 26.3203C138.738 26.3203 139.196 26.224 139.592 26.0312C139.993 25.8385 140.324 25.5859 140.584 25.2734C140.845 24.9609 141.019 24.6198 141.108 24.25L141.514 24.7891C141.446 25.0495 141.321 25.3177 141.139 25.5938C140.962 25.8646 140.73 26.1198 140.444 26.3594C140.157 26.5938 139.819 26.7865 139.428 26.9375C139.043 27.0833 138.605 27.1562 138.116 27.1562C137.564 27.1562 137.082 27.0521 136.67 26.8438C136.264 26.6354 135.946 26.3516 135.717 25.9922C135.493 25.6276 135.381 25.2161 135.381 24.7578C135.381 24.3411 135.47 23.9688 135.647 23.6406C135.824 23.3073 136.079 23.026 136.413 22.7969C136.751 22.5625 137.157 22.3854 137.631 22.2656C138.11 22.1406 138.647 22.0781 139.241 22.0781H141.186ZM147.6 18.5469V19.3125H143.366V18.5469H147.6ZM144.92 16.375H145.85V24.9453C145.85 25.3359 145.902 25.6302 146.006 25.8281C146.11 26.026 146.246 26.1589 146.413 26.2266C146.579 26.2943 146.759 26.3281 146.952 26.3281C147.092 26.3281 147.228 26.3203 147.358 26.3047C147.488 26.2839 147.605 26.263 147.709 26.2422L147.748 27.0312C147.634 27.0677 147.485 27.0964 147.303 27.1172C147.121 27.1432 146.939 27.1562 146.756 27.1562C146.397 27.1562 146.079 27.0911 145.803 26.9609C145.527 26.8255 145.311 26.5964 145.155 26.2734C144.998 25.9453 144.92 25.5 144.92 24.9375V16.375ZM151.163 27H150.233V17.5C150.233 16.9219 150.332 16.4349 150.53 16.0391C150.733 15.6432 151.019 15.3438 151.389 15.1406C151.764 14.9375 152.209 14.8359 152.725 14.8359C152.886 14.8359 153.053 14.8464 153.225 14.8672C153.397 14.8828 153.564 14.9167 153.725 14.9688L153.655 15.7578C153.524 15.7214 153.392 15.6979 153.256 15.6875C153.126 15.6719 152.972 15.6641 152.795 15.6641C152.457 15.6641 152.165 15.737 151.92 15.8828C151.676 16.0234 151.488 16.2292 151.358 16.5C151.228 16.7708 151.163 17.1042 151.163 17.5V27ZM153.178 18.5469V19.3125H148.834V18.5469H153.178ZM154.342 22.9062V22.6484C154.342 22.0339 154.431 21.4661 154.608 20.9453C154.785 20.4245 155.038 19.974 155.366 19.5938C155.699 19.2135 156.097 18.9193 156.561 18.7109C157.024 18.4974 157.54 18.3906 158.108 18.3906C158.681 18.3906 159.199 18.4974 159.663 18.7109C160.126 18.9193 160.524 19.2135 160.858 19.5938C161.191 19.974 161.446 20.4245 161.623 20.9453C161.801 21.4661 161.889 22.0339 161.889 22.6484V22.9062C161.889 23.5208 161.801 24.0885 161.623 24.6094C161.446 25.125 161.191 25.5729 160.858 25.9531C160.53 26.3333 160.134 26.6302 159.67 26.8438C159.207 27.0521 158.691 27.1562 158.123 27.1562C157.551 27.1562 157.032 27.0521 156.569 26.8438C156.105 26.6302 155.707 26.3333 155.373 25.9531C155.04 25.5729 154.785 25.125 154.608 24.6094C154.431 24.0885 154.342 23.5208 154.342 22.9062ZM155.272 22.6484V22.9062C155.272 23.3698 155.334 23.8099 155.459 24.2266C155.584 24.638 155.767 25.0052 156.006 25.3281C156.246 25.6458 156.543 25.8958 156.897 26.0781C157.251 26.2604 157.66 26.3516 158.123 26.3516C158.582 26.3516 158.985 26.2604 159.334 26.0781C159.689 25.8958 159.985 25.6458 160.225 25.3281C160.465 25.0052 160.644 24.638 160.764 24.2266C160.889 23.8099 160.952 23.3698 160.952 22.9062V22.6484C160.952 22.1901 160.889 21.7552 160.764 21.3438C160.644 20.9323 160.462 20.5651 160.217 20.2422C159.978 19.9193 159.681 19.6641 159.327 19.4766C158.972 19.2891 158.566 19.1953 158.108 19.1953C157.649 19.1953 157.243 19.2891 156.889 19.4766C156.54 19.6641 156.243 19.9193 155.998 20.2422C155.759 20.5651 155.577 20.9323 155.452 21.3438C155.332 21.7552 155.272 22.1901 155.272 22.6484ZM164.756 19.9453V27H163.827V18.5469H164.733L164.756 19.9453ZM167.748 18.4844L167.725 19.3438C167.621 19.3281 167.519 19.3151 167.42 19.3047C167.321 19.2943 167.215 19.2891 167.1 19.2891C166.694 19.2891 166.337 19.3646 166.03 19.5156C165.728 19.6615 165.472 19.8672 165.264 20.1328C165.056 20.3932 164.897 20.7005 164.788 21.0547C164.678 21.4036 164.616 21.7786 164.6 22.1797L164.256 22.3125C164.256 21.7604 164.314 21.2474 164.428 20.7734C164.543 20.2995 164.717 19.8854 164.952 19.5312C165.191 19.1719 165.491 18.8932 165.85 18.6953C166.215 18.4922 166.642 18.3906 167.131 18.3906C167.251 18.3906 167.368 18.401 167.483 18.4219C167.603 18.4375 167.691 18.4583 167.748 18.4844ZM170.1 20.2969V27H169.163V18.5469H170.061L170.1 20.2969ZM169.928 22.25L169.475 22.0156C169.506 21.5156 169.6 21.0469 169.756 20.6094C169.918 20.1719 170.142 19.7865 170.428 19.4531C170.715 19.1198 171.058 18.8594 171.459 18.6719C171.86 18.4844 172.316 18.3906 172.827 18.3906C173.238 18.3906 173.61 18.4479 173.944 18.5625C174.282 18.6719 174.569 18.8464 174.803 19.0859C175.043 19.3203 175.228 19.6276 175.358 20.0078C175.488 20.388 175.553 20.8438 175.553 21.375V27H174.623V21.4062C174.623 20.8438 174.535 20.4036 174.358 20.0859C174.186 19.7682 173.944 19.5417 173.631 19.4062C173.324 19.2708 172.967 19.2031 172.561 19.2031C172.082 19.2031 171.676 19.3021 171.342 19.5C171.014 19.6927 170.746 19.9453 170.538 20.2578C170.334 20.5651 170.183 20.8958 170.084 21.25C169.985 21.599 169.933 21.9323 169.928 22.25ZM175.545 21.5156L174.92 21.5312C174.946 21.1198 175.04 20.7266 175.202 20.3516C175.368 19.9766 175.595 19.6432 175.881 19.3516C176.168 19.0547 176.509 18.8203 176.905 18.6484C177.306 18.4766 177.756 18.3906 178.256 18.3906C178.694 18.3906 179.084 18.4505 179.428 18.5703C179.772 18.6849 180.061 18.8698 180.295 19.125C180.535 19.375 180.717 19.6953 180.842 20.0859C180.967 20.4766 181.03 20.9453 181.03 21.4922V27H180.092V21.4844C180.092 20.8854 180.004 20.4219 179.827 20.0938C179.655 19.7604 179.415 19.5286 179.108 19.3984C178.801 19.2682 178.441 19.2031 178.03 19.2031C177.623 19.2083 177.267 19.2839 176.959 19.4297C176.652 19.5703 176.394 19.7578 176.186 19.9922C175.983 20.2214 175.827 20.4688 175.717 20.7344C175.613 21 175.556 21.2604 175.545 21.5156Z"
              fill="black"/>
        <path d="M20.8929 0.214264V8.33033L10.1786 13.6071V5.51783L20.8929 0.214264Z" fill="#00517D"/>
        <path d="M34.2857 5.51783V13.6071L23.5714 8.33033V0.214264L34.2857 5.51783Z" fill="#00517D"/>
        <path d="M20.8929 21.4286V29.5446L10.1786 24.2678V16.1518L20.8929 21.4286Z" fill="#00517D"/>
        <path d="M34.2857 16.1518V24.2678L23.5714 29.5446V21.4286L34.2857 16.1518Z" fill="#00517D"/>
        <path d="M7.5 5.57141L0 0.321411V29.7857L7.5 24.5089V5.57141Z" fill="#00517D"/>
        <path d="M53.4911 9.13396C53.3036 8.83932 53.0893 8.54467 52.8482 8.22324C52.6071 7.90182 52.3393 7.60717 52.0714 7.31253C51.8035 7.01789 51.5357 6.75003 51.241 6.48217C50.9464 6.21431 50.6785 6.00003 50.3839 5.78574V9.10717H49.0446V1.68753H50.3839V4.7411C50.625 4.50003 50.866 4.25896 51.1339 3.9911C51.4018 3.72324 51.6428 3.45539 51.9107 3.18753C52.1518 2.91967 52.3928 2.65182 52.6339 2.38396C52.875 2.1161 53.0625 1.90182 53.25 1.68753H54.8571C54.616 1.95539 54.375 2.25003 54.1071 2.54467C53.8393 2.83932 53.5714 3.13396 53.3035 3.4286C53.0357 3.72324 52.741 4.01789 52.4732 4.31253C52.1785 4.60717 51.9107 4.87503 51.6428 5.14289C51.9375 5.38396 52.2589 5.62503 52.5535 5.94646C52.875 6.2411 53.1696 6.56253 53.4643 6.91075C53.7589 7.25896 54.0535 7.60717 54.3214 7.98217C54.5893 8.35717 54.8571 8.73217 55.0714 9.10717H53.4911V9.13396Z"
              fill="black"/>
        <path d="M60.1607 9.29467C59.6517 9.29467 59.2232 9.21432 58.8482 9.08039C58.4732 8.94646 58.1785 8.73217 57.9375 8.46432C57.6964 8.19646 57.5089 7.90182 57.4017 7.52682C57.2946 7.1786 57.241 6.77682 57.241 6.34824V1.68753H58.6071V6.18753C58.6071 6.53574 58.6339 6.8036 58.7142 7.04467C58.7946 7.28575 58.9017 7.47325 59.0357 7.63396C59.1696 7.79467 59.3303 7.90182 59.5178 7.95539C59.7053 8.03574 59.9196 8.06253 60.1607 8.06253C60.4017 8.06253 60.616 8.03574 60.8035 7.95539C60.991 7.87503 61.1517 7.76789 61.3125 7.63396C61.4464 7.47325 61.5535 7.28575 61.6339 7.04467C61.7143 6.8036 61.741 6.50896 61.741 6.18753V1.68753H63.1071V6.32146C63.1071 6.75003 63.0535 7.15182 62.9196 7.50003C62.8125 7.84825 62.625 8.16967 62.3839 8.43753C62.1428 8.70539 61.8482 8.91967 61.4732 9.0536C61.0982 9.21432 60.6696 9.29467 60.1607 9.29467Z"
              fill="black"/>
        <path d="M68.3572 9.2143C67.9554 9.2143 67.5804 9.2143 67.1786 9.18751C66.7768 9.16073 66.4286 9.10716 66.134 9.0268V1.79466C66.2947 1.76787 66.4554 1.74109 66.6429 1.7143C66.8304 1.68751 66.9911 1.66073 67.1786 1.66073C67.3661 1.63394 67.5536 1.63394 67.7411 1.63394C67.9286 1.63394 68.0893 1.63394 68.25 1.63394C68.7054 1.63394 69.1072 1.66073 69.509 1.74108C69.884 1.82144 70.2322 1.92859 70.5001 2.0893C70.7947 2.25001 71.009 2.4643 71.1697 2.70537C71.3304 2.97323 71.4108 3.26787 71.4108 3.66966C71.4108 4.01787 71.3304 4.31251 71.1697 4.58037C71.009 4.82144 70.7679 5.03573 70.4733 5.16966C70.9286 5.33037 71.25 5.54466 71.4643 5.8393C71.6786 6.13394 71.7858 6.50894 71.7858 6.9643C71.7858 7.74108 71.5179 8.30359 70.9554 8.67859C70.3661 9.0268 69.509 9.2143 68.3572 9.2143ZM67.4465 4.7143H68.4108C68.9197 4.7143 69.3215 4.63394 69.6161 4.50001C69.9108 4.36609 70.0447 4.09823 70.0447 3.72323C70.0447 3.37501 69.884 3.10716 69.5893 2.97323C69.2947 2.8393 68.8929 2.75894 68.4108 2.75894C68.1965 2.75894 68.009 2.75894 67.8483 2.75894C67.6875 2.75894 67.5536 2.78573 67.4465 2.78573V4.7143V4.7143ZM67.4465 5.78573V8.03573C67.6072 8.06251 67.7679 8.06251 67.9286 8.06251C68.0893 8.06251 68.25 8.06251 68.4108 8.06251C68.6786 8.06251 68.9465 8.03573 69.1875 8.00894C69.4286 7.98216 69.6429 7.9018 69.8036 7.82144C69.9643 7.74108 70.1251 7.60716 70.2322 7.47323C70.3393 7.31251 70.3929 7.12501 70.3929 6.88394C70.3929 6.45537 70.2322 6.16073 69.9376 6.00001C69.6429 5.8393 69.2143 5.75894 68.6518 5.75894H67.4465V5.78573Z"
              fill="black"/>
        <path d="M74.4643 9.13396V1.68753H79.2322V2.83932H75.8036V4.66074H78.8572V5.78574H75.8036V7.95539H79.4732V9.10717H74.4643V9.13396Z"
              fill="black"/>
        <path d="M84.1339 1.63394C85.2054 1.63394 86.0357 1.82144 86.5982 2.22323C87.1607 2.62501 87.4554 3.2143 87.4554 4.01787C87.4554 5.03573 86.9464 5.70537 85.9554 6.05358C86.0893 6.2143 86.25 6.42858 86.4107 6.64287C86.5714 6.88394 86.7589 7.12501 86.9464 7.41965C87.1339 7.68751 87.2946 7.98216 87.4554 8.2768C87.6161 8.57144 87.7768 8.8393 87.8839 9.13394H86.3839C86.25 8.86608 86.0893 8.62501 85.9554 8.35715C85.7946 8.0893 85.6339 7.84823 85.4732 7.60716C85.3125 7.36608 85.1518 7.12501 84.9911 6.91073C84.8304 6.69644 84.6964 6.50894 84.5625 6.32144C84.4554 6.32144 84.375 6.32144 84.2946 6.32144C84.2143 6.32144 84.1607 6.32144 84.0804 6.32144H83.4375V9.13394H82.0982V1.79466C82.4196 1.7143 82.7678 1.68751 83.1428 1.66073C83.5178 1.63394 83.8393 1.63394 84.1339 1.63394ZM84.2411 2.78573C83.9464 2.78573 83.6786 2.78573 83.4375 2.81251V5.22323H84.0268C84.3482 5.22323 84.6429 5.19644 84.8839 5.16966C85.125 5.14287 85.3393 5.06251 85.5 4.98216C85.6607 4.9018 85.7946 4.76787 85.875 4.60715C85.9554 4.44644 86.0089 4.25894 86.0089 4.01787C86.0089 3.7768 85.9554 3.5893 85.875 3.42859C85.7946 3.26787 85.6607 3.13394 85.5 3.05358C85.3393 2.97323 85.1518 2.89287 84.9375 2.86608C84.75 2.81251 84.5089 2.78573 84.2411 2.78573Z"
              fill="black"/>
        <path d="M91.982 1.68753C92.1428 1.95539 92.3035 2.3036 92.5177 2.6786C92.7052 3.08039 92.9195 3.48217 93.107 3.91074C93.2945 4.33932 93.5088 4.79467 93.6963 5.22324C93.8838 5.6786 94.0713 6.08039 94.232 6.45539C94.3927 6.08039 94.5802 5.65182 94.7677 5.22324C94.9552 4.76789 95.1695 4.33932 95.357 3.91074C95.5445 3.48217 95.7588 3.0536 95.9463 2.6786C96.1338 2.27682 96.3213 1.95539 96.482 1.68753H97.6874C97.7409 2.22324 97.8213 2.81253 97.8749 3.4286C97.9284 4.04467 97.982 4.66075 98.0356 5.3036C98.0891 5.94646 98.1159 6.58932 98.1695 7.23217C98.1963 7.87503 98.2499 8.51789 98.2766 9.13396H96.9374C96.9106 8.27682 96.8838 7.39289 96.8302 6.45539C96.8034 5.54467 96.7231 4.66074 96.6427 3.8036C96.5624 3.96431 96.482 4.15182 96.3749 4.39289C96.2677 4.63396 96.1606 4.87503 96.0267 5.14289C95.8927 5.41074 95.7856 5.6786 95.6517 5.97325C95.5177 6.26789 95.4106 6.53574 95.2767 6.8036C95.1695 7.07146 95.0624 7.31253 94.9552 7.5536C94.8481 7.79467 94.7677 7.98217 94.6874 8.14289H93.6695C93.5892 7.98217 93.5088 7.76789 93.4017 7.5536C93.2945 7.31253 93.1874 7.07146 93.0802 6.8036C92.9731 6.53574 92.8392 6.26789 92.7053 5.97325C92.5713 5.6786 92.4642 5.41074 92.3303 5.14289C92.1963 4.87503 92.0892 4.63396 91.982 4.39289C91.8749 4.15182 91.7945 3.96431 91.7142 3.8036C91.6338 4.66074 91.5803 5.54467 91.5267 6.45539C91.4999 7.3661 91.4463 8.25003 91.4195 9.13396H90.0803C90.107 8.51789 90.1338 7.87503 90.1874 7.23217C90.2142 6.56253 90.2678 5.91967 90.3213 5.27681C90.3749 4.63396 90.4285 3.9911 90.482 3.40181C90.5356 2.78574 90.5892 2.22324 90.6695 1.71432H91.982V1.68753Z"
              fill="black"/>
        <path d="M106.232 9.13394C106.125 8.83929 106.018 8.54465 105.911 8.27679C105.804 7.98215 105.696 7.68751 105.589 7.39286H102.455C102.348 7.68751 102.241 7.98215 102.161 8.27679C102.054 8.57144 101.946 8.86608 101.866 9.13394H100.473C100.741 8.33036 101.009 7.60715 101.277 6.93751C101.518 6.26787 101.759 5.62501 102 5.03572C102.241 4.44644 102.482 3.85715 102.723 3.32144C102.964 2.78572 103.205 2.25001 103.446 1.71429H104.732C104.973 2.25001 105.214 2.78572 105.455 3.32144C105.696 3.85715 105.938 4.44644 106.179 5.03572C106.42 5.62501 106.661 6.26787 106.929 6.93751C107.17 7.60715 107.438 8.33036 107.732 9.13394H106.232ZM104.063 3.13394C103.902 3.50894 103.714 3.96429 103.5 4.52679C103.286 5.06251 103.071 5.65179 102.83 6.29465H105.268C105.027 5.65179 104.813 5.06251 104.598 4.52679C104.384 3.96429 104.196 3.50894 104.063 3.13394Z"
              fill="black"/>
        <path d="M114.375 1.68753V2.8661H112.098V9.13396H110.732V2.8661H108.455V1.68753H114.375Z" fill="black"/>
        <path d="M116.705 1.68753H118.045V9.10717H116.705V1.68753Z" fill="black"/>
        <path d="M124.42 9.29465C123.857 9.29465 123.375 9.21429 122.92 9.02679C122.464 8.86608 122.089 8.59822 121.795 8.27679C121.5 7.95536 121.259 7.52679 121.098 7.07144C120.937 6.58929 120.857 6.05358 120.857 5.41072C120.857 4.79465 120.964 4.23215 121.152 3.75001C121.339 3.26787 121.607 2.86608 121.929 2.54465C122.25 2.22322 122.652 1.95537 123.08 1.79465C123.509 1.63394 123.991 1.52679 124.5 1.52679C124.795 1.52679 125.089 1.55358 125.33 1.60715C125.571 1.66072 125.786 1.71429 125.973 1.76787C126.161 1.82144 126.321 1.87501 126.429 1.95537C126.562 2.00894 126.643 2.06251 126.696 2.0893L126.295 3.18751C126.134 3.08037 125.866 2.97322 125.571 2.89287C125.25 2.78572 124.902 2.75894 124.527 2.75894C124.205 2.75894 123.911 2.81251 123.616 2.91965C123.321 3.0268 123.107 3.18751 122.893 3.42858C122.679 3.64287 122.518 3.93751 122.411 4.25894C122.304 4.60715 122.25 4.98215 122.25 5.43751C122.25 5.83929 122.304 6.18751 122.384 6.50894C122.464 6.83037 122.598 7.12501 122.786 7.36608C122.973 7.60715 123.214 7.79465 123.482 7.92858C123.777 8.06251 124.098 8.11608 124.5 8.11608C124.982 8.11608 125.357 8.06251 125.679 7.98215C125.973 7.87501 126.214 7.79465 126.375 7.71429L126.75 8.81251C126.67 8.86608 126.536 8.91965 126.402 8.97322C126.268 9.02679 126.08 9.08036 125.893 9.13393C125.705 9.18751 125.464 9.24108 125.223 9.26786C124.982 9.29465 124.687 9.29465 124.42 9.29465Z"
              fill="black"/>
    </g>
    <defs>
        <clipPath id="clip0_8922_3676">
            <rect width="186.964" height="30" fill="white"/>
        </clipPath>
    </defs>
</svg>
