<svg version="1.1" id="Layer_1" xmlns="http://www.w3.org/2000/svg" x="0" y="0" viewBox="0 0 419.3 63.2" xml:space="preserve"><style>.st0{fill:#fff}</style><path class="st0" d="M32.7 62.1c-1.1-1.8-2.4-3.8-4-5.8-1.5-2.1-3.2-4.2-4.9-6.3s-3.6-4.2-5.5-6.1c-1.9-1.9-3.8-3.7-5.8-5.2v23.5H0V6.6h12.5v20.8c3.2-3.4 6.5-6.9 9.8-10.6 3.3-3.7 6.4-7.1 9.2-10.3h14.8c-3.8 4.5-7.6 8.8-11.4 13S27 27.9 22.8 32.1c4.4 3.7 8.7 8.1 12.8 13.2S43.7 56 47.5 62.1H32.7zM86.1 60.6c-2 .6-4.6 1.1-7.8 1.6s-6.6.8-10.1.8c-3.6 0-6.6-.5-8.9-1.4-2.4-1-4.3-2.3-5.6-4s-2.4-3.8-3-6.2c-.6-2.4-.9-5-.9-7.9V20h11.9v22c0 3.8.5 6.6 1.5 8.3 1 1.7 2.9 2.6 5.7 2.6.8 0 1.8 0 2.7-.1s1.8-.2 2.6-.3V20h11.9v40.6zM135.1 41c0 3.4-.5 6.4-1.5 9.1-1 2.7-2.4 5-4.3 7s-4.2 3.4-6.9 4.4-5.8 1.6-9.3 1.6c-1.4 0-2.9-.1-4.5-.2s-3.1-.3-4.6-.5-3-.5-4.4-.8-2.6-.6-3.6-.9V1.9L107.9 0v21c1.3-.6 2.7-1 4.2-1.4s3-.5 4.6-.5c3 0 5.6.5 7.9 1.6s4.2 2.5 5.8 4.4c1.6 1.9 2.7 4.2 3.5 6.9.8 2.7 1.2 5.7 1.2 9zm-12.2-.3c0-7.7-2.8-11.5-8.5-11.5-1.2 0-2.4.2-3.6.5s-2.2.7-2.9 1.2v21.7c.6.1 1.3.2 2.2.3s1.9.1 3 .1c3.3 0 5.7-1.1 7.4-3.4 1.6-2.2 2.4-5.2 2.4-8.9zM140.9 41.4c0-3.7.6-7 1.7-9.8s2.6-5.1 4.5-7c1.9-1.9 4-3.3 6.4-4.2 2.4-1 4.9-1.4 7.5-1.4 6 0 10.7 1.8 14.2 5.5s5.2 9 5.2 16.1c0 .7 0 1.4-.1 2.3s-.1 1.6-.2 2.2h-27c.3 2.4 1.4 4.4 3.4 5.8 2 1.4 4.8 2.2 8.2 2.2 2.2 0 4.3-.2 6.4-.6s3.8-.9 5.2-1.5l1.6 9.7c-.6.3-1.5.6-2.6 1-1.1.3-2.3.6-3.6.8s-2.7.4-4.2.6c-1.5.2-3 .2-4.5.2-3.8 0-7.1-.6-9.9-1.7s-5.1-2.7-7-4.6c-1.8-1.9-3.2-4.3-4.1-6.9-.6-2.8-1.1-5.7-1.1-8.7zm28-4.6c-.1-1-.2-2-.5-3s-.8-1.8-1.4-2.6-1.4-1.4-2.3-1.8c-.9-.5-2.1-.7-3.5-.7-1.3 0-2.5.2-3.4.7s-1.8 1.1-2.4 1.8-1.1 1.6-1.5 2.6c-.4 1-.6 2-.8 3h15.8zM213.7 30.6c-1.1-.3-2.3-.6-3.8-.8-1.4-.3-3-.4-4.6-.4-.8 0-1.6.1-2.7.2s-1.8.3-2.4.4v32.2h-11.9v-40c2.1-.8 4.6-1.4 7.6-2.1 2.9-.7 6.1-1 9.7-1 .6 0 1.4 0 2.3.1l2.7.3c.9.1 1.8.3 2.7.5s1.7.4 2.3.7l-1.9 9.9zM244.2 39.8c0-3.8-.5-6.6-1.5-8.2-1-1.6-2.7-2.4-5.1-2.4-.8 0-1.5 0-2.3.1-.8.1-1.6.2-2.3.3v32.5h-11.9V21.4c1-.3 2.2-.6 3.6-.8 1.4-.3 2.8-.6 4.3-.8 1.5-.2 3.1-.4 4.7-.6s3.2-.2 4.7-.2c3 0 5.5.4 7.4 1.2 1.9.8 3.5 1.7 4.7 2.8 1.7-1.2 3.7-2.2 5.9-2.9 2.2-.7 4.3-1 6.1-1 3.4 0 6.1.5 8.3 1.4 2.2.9 3.9 2.3 5.2 4 1.3 1.7 2.2 3.7 2.6 6.1.5 2.3.7 5 .7 7.8v23.8h-11.9V39.8c0-3.8-.5-6.6-1.5-8.2-1-1.6-2.7-2.4-5.1-2.4-.6 0-1.5.2-2.7.5-1.2.3-2.1.7-2.8 1.2.4 1.2.6 2.5.7 3.9.1 1.4.2 2.8.2 4.4v23h-11.9l-.1-22.4zM304 18.9c3.5 0 6.5.4 8.8 1.2 2.4.8 4.2 1.9 5.6 3.4 1.4 1.5 2.4 3.3 3 5.4.6 2.1.9 4.5.9 7.1v24.8c-1.7.4-4.1.8-7.1 1.3s-6.7.8-11 .8c-2.7 0-5.2-.2-7.4-.7-2.2-.5-4.1-1.3-5.7-2.4-1.6-1.1-2.8-2.5-3.7-4.3-.9-1.8-1.3-3.9-1.3-6.5 0-2.4.5-4.5 1.5-6.2 1-1.7 2.3-3.1 4-4.1 1.7-1 3.5-1.8 5.7-2.2s4.4-.7 6.6-.7c1.5 0 2.9.1 4.1.2 1.2.1 2.2.3 2.9.5v-1.1c0-2-.6-3.7-1.8-4.9-1.2-1.2-3.4-1.8-6.4-1.8-2 0-4 .2-6 .4-2 .3-3.7.7-5.1 1.2l-1.5-9.6c.7-.2 1.6-.4 2.6-.7 1-.2 2.2-.4 3.4-.6 1.2-.2 2.5-.3 3.9-.5h4zm.9 34.9c1.2 0 2.3 0 3.4-.1s1.9-.1 2.6-.2v-9c-.5-.1-1.2-.2-2.2-.3-1-.1-1.8-.2-2.6-.2-1.1 0-2.2.1-3.2.2s-1.9.4-2.6.8-1.3.9-1.8 1.5c-.4.6-.6 1.4-.6 2.4 0 1.9.6 3.2 1.9 3.9 1.2.6 3 1 5.1 1zM331.3 9.5l11.9-1.9V20h14.3v9.9h-14.3v14.8c0 2.5.4 4.5 1.3 6s2.7 2.2 5.3 2.2c1.3 0 2.6-.1 4-.4s2.6-.6 3.7-1l1.7 9.3c-1.4.6-3 1.1-4.8 1.5s-3.9.7-6.4.7c-3.3 0-6-.4-8.1-1.3s-3.8-2.1-5.1-3.7c-1.3-1.6-2.2-3.5-2.7-5.7s-.8-4.7-.8-7.4V9.5zM378.8 7.8c0 2.2-.7 3.9-2.1 5.2-1.4 1.3-3.1 1.9-5 1.9s-3.6-.6-5-1.9c-1.4-1.3-2.1-3-2.1-5.2s.7-3.9 2.1-5.2c1.4-1.3 3.1-1.9 5-1.9s3.6.6 5 1.9c1.4 1.3 2.1 3 2.1 5.2zm-1.1 54.3h-11.9V20h11.9v42.1zM385.3 41c0-3 .5-5.9 1.5-8.6 1-2.7 2.4-5 4.3-7s4.1-3.6 6.8-4.8c2.7-1.2 5.7-1.8 9.1-1.8 2.2 0 4.3.2 6.2.6s3.7 1 5.4 1.7l-2.5 9.5c-1.1-.4-2.4-.8-3.7-1.1-1.3-.3-2.8-.5-4.5-.5-3.5 0-6.1 1.1-7.9 3.3-1.7 2.2-2.6 5.1-2.6 8.6 0 3.8.8 6.7 2.4 8.8s4.5 3.1 8.5 3.1c1.4 0 3-.1 4.6-.4 1.7-.3 3.2-.7 4.6-1.3l1.7 9.8c-1.4.6-3.1 1.1-5.2 1.5-2.1.4-4.4.6-6.9.6-3.8 0-7.1-.6-9.9-1.7s-5-2.7-6.8-4.7c-1.8-2-3.1-4.3-3.9-7-.8-2.5-1.2-5.4-1.2-8.6z"/></svg>