<svg width="159" height="24" viewBox="0 0 159 24" fill="none" xmlns="http://www.w3.org/2000/svg">
<path d="M12.3701 23L6.39355 13.8594L4.00586 17.126V23H0.197266V1.54004H4.00586V11.8086L11.3008 1.54004H15.6367L8.91309 10.915L16.9258 23H12.3701ZM28.6006 23.0146V21.6963C28.083 22.1357 27.3701 22.5117 26.4619 22.8242C25.5537 23.1367 24.7188 23.293 23.957 23.293C20.3145 23.293 18.4932 21.3594 18.4932 17.4922V7.31152H22.1553V17.2139C22.1553 19.2256 23.0586 20.2314 24.8652 20.2314C25.6953 20.2314 26.4668 20.0166 27.1797 19.5869C27.8926 19.1572 28.3662 18.6592 28.6006 18.0928V7.31152H32.2627V23.0146H28.6006ZM38.8105 22.1357L37.9902 23.293H35.9248V1.4668L39.5869 0.587891V7.91211C40.5635 7.31641 41.6279 7.01855 42.7803 7.01855C45.0752 7.01855 46.9258 7.74609 48.332 9.20117C49.7383 10.6465 50.4414 12.502 50.4414 14.7676C50.4414 17.3945 49.7334 19.4746 48.3174 21.0078C46.9014 22.5312 44.9824 23.293 42.5605 23.293C41.1055 23.293 39.8555 22.9072 38.8105 22.1357ZM39.5869 11.0469V19.2354C40.124 19.8701 40.8516 20.1875 41.7695 20.1875C43.5371 20.1875 44.7871 19.7676 45.5195 18.9277C46.2617 18.0879 46.6328 16.7451 46.6328 14.8994C46.6328 11.7158 45.1094 10.124 42.0625 10.124C40.9785 10.124 40.1533 10.4316 39.5869 11.0469ZM67.6826 16.2764H56.4766C56.5449 17.5264 56.9746 18.498 57.7656 19.1914C58.5566 19.8848 59.6211 20.2314 60.959 20.2314C62.6289 20.2314 63.8984 19.7969 64.7676 18.9277L66.1885 21.7256C64.8994 22.7705 62.9756 23.293 60.417 23.293C58.0244 23.293 56.1299 22.5947 54.7334 21.1982C53.3467 19.792 52.6533 17.834 52.6533 15.3242C52.6533 12.8535 53.415 10.8516 54.9385 9.31836C56.4717 7.78516 58.3076 7.01855 60.4463 7.01855C62.7217 7.01855 64.5479 7.69727 65.9248 9.05469C67.3018 10.4121 67.9902 12.1406 67.9902 14.2402C67.9902 14.6895 67.8877 15.3682 67.6826 16.2764ZM56.6084 13.5225H64.3135C64.0596 11.2275 62.79 10.0801 60.5049 10.0801C58.415 10.0801 57.1162 11.2275 56.6084 13.5225ZM80.002 10.7246C79.3477 10.2949 78.6299 10.0801 77.8486 10.0801C76.999 10.0801 76.2422 10.4658 75.5781 11.2373C74.9238 12.0088 74.5967 12.9512 74.5967 14.0645V23H70.9346V7.31152H74.5967V8.74707C75.6221 7.59473 76.9844 7.01855 78.6836 7.01855C79.9336 7.01855 80.8906 7.20898 81.5547 7.58984L80.002 10.7246ZM101.931 23V13.1709C101.931 11.1104 101.008 10.0801 99.1621 10.0801C98.6152 10.0801 98.0879 10.2412 97.5801 10.5635C97.0723 10.8857 96.7158 11.2568 96.5107 11.6768V23H92.8486V12.5996C92.8486 11.8281 92.6094 11.2178 92.1309 10.7686C91.6523 10.3096 90.9785 10.0801 90.1094 10.0801C89.6504 10.0801 89.1475 10.251 88.6006 10.5928C88.0635 10.9346 87.6729 11.3105 87.4287 11.7207V23H83.7666V7.31152H86.2861L87.0332 8.68848C88.0488 7.5752 89.3623 7.01855 90.9736 7.01855C93.0537 7.01855 94.6211 7.58496 95.6758 8.71777C96.1348 8.2002 96.7744 7.79004 97.5947 7.4873C98.415 7.1748 99.2354 7.01855 100.056 7.01855C101.804 7.01855 103.161 7.52148 104.128 8.52734C105.104 9.52344 105.593 10.8955 105.593 12.6436V23H101.931ZM118.278 21.4326C117.946 21.9795 117.365 22.4287 116.535 22.7803C115.715 23.1221 114.855 23.293 113.957 23.293C112.268 23.293 110.939 22.873 109.973 22.0332C109.006 21.1836 108.522 19.9824 108.522 18.4297C108.522 16.6133 109.201 15.1924 110.559 14.167C111.926 13.1416 113.864 12.6289 116.374 12.6289C116.804 12.6289 117.312 12.7021 117.897 12.8486C117.897 11.0029 116.73 10.0801 114.396 10.0801C113.02 10.0801 111.867 10.3096 110.939 10.7686L110.148 7.92676C111.408 7.32129 112.907 7.01855 114.646 7.01855C117.038 7.01855 118.791 7.56543 119.904 8.65918C121.018 9.74316 121.574 11.8037 121.574 14.8408V18.1953C121.574 20.2852 121.994 21.5986 122.834 22.1357C122.531 22.6631 122.194 22.9854 121.823 23.1025C121.452 23.2295 121.027 23.293 120.549 23.293C120.021 23.293 119.548 23.0977 119.128 22.707C118.708 22.3164 118.425 21.8916 118.278 21.4326ZM117.927 15.6172C117.302 15.4902 116.833 15.4268 116.521 15.4268C113.63 15.4268 112.185 16.374 112.185 18.2686C112.185 19.6748 113 20.3779 114.631 20.3779C116.828 20.3779 117.927 19.2793 117.927 17.082V15.6172ZM126.101 10.2559H124.284V7.31152H126.101V4.11816L129.763 2.77051V7.31152H134.069V10.2559H129.763V17.126C129.763 18.249 129.938 19.0449 130.29 19.5137C130.642 19.9727 131.257 20.2021 132.136 20.2021C133.015 20.2021 133.835 19.9629 134.597 19.4844V22.8535C133.747 23.1465 132.536 23.293 130.964 23.293C129.401 23.293 128.2 22.8535 127.36 21.9746C126.521 21.0859 126.101 19.8262 126.101 18.1953V10.2559ZM140.31 1.23242C140.896 1.23242 141.394 1.44238 141.804 1.8623C142.224 2.27246 142.434 2.77051 142.434 3.35645C142.434 3.94238 142.224 4.44531 141.804 4.86523C141.394 5.27539 140.896 5.48047 140.31 5.48047C139.724 5.48047 139.221 5.27539 138.801 4.86523C138.391 4.44531 138.186 3.94238 138.186 3.35645C138.186 2.77051 138.391 2.27246 138.801 1.8623C139.221 1.44238 139.724 1.23242 140.31 1.23242ZM138.42 23V10.3145H136.413V7.31152H142.126V23H138.42ZM158.708 8.55664L157.141 11.2959C156.281 10.4854 155.129 10.0801 153.684 10.0801C152.297 10.0801 151.198 10.5439 150.388 11.4717C149.587 12.3896 149.187 13.6641 149.187 15.2949C149.187 18.5859 150.754 20.2314 153.889 20.2314C155.246 20.2314 156.442 19.7822 157.478 18.8838L158.825 21.7695C157.761 22.4336 156.828 22.8535 156.027 23.0293C155.236 23.2051 154.299 23.293 153.215 23.293C150.793 23.293 148.879 22.5898 147.473 21.1836C146.076 19.7676 145.378 17.8047 145.378 15.2949C145.378 12.8242 146.145 10.8271 147.678 9.30371C149.211 7.78027 151.301 7.01855 153.947 7.01855C155.773 7.01855 157.36 7.53125 158.708 8.55664Z" fill="white"/>
</svg>
