<svg xmlns="http://www.w3.org/2000/svg" viewBox="0 0 620 112" xml:space="preserve"><g fill-rule="nonzero" fill="none"><path d="M78 .8v30.3L38 50.8V20.6zM128 20.6v30.2L88 31.1V.8zM78 80v30.3L38 90.6V60.3zM128 60.3v30.3l-40 19.7V80zM28 20.8L0 1.2v110l28-19.7z" fill="#ffffff"/><path d="M211.8 76.8c-1-1.6-2.2-3.3-3.6-5-1.4-1.8-2.8-3.5-4.3-5.1-1.5-1.6-3.1-3.2-4.7-4.7s-3.2-2.8-4.7-3.8v18.7H187V35.2h7.6v17.2c1.3-1.3 2.7-2.7 4.1-4.2 1.4-1.5 2.9-3 4.3-4.6 1.4-1.5 2.8-3 4-4.5 1.3-1.4 2.4-2.7 3.5-3.9h9.1c-1.3 1.5-2.7 3.1-4.2 4.7s-3 3.3-4.6 5c-1.6 1.7-3.1 3.3-4.7 4.9-1.6 1.6-3.1 3.2-4.6 4.7 1.7 1.3 3.4 2.8 5.1 4.5 1.7 1.7 3.5 3.5 5.1 5.5 1.7 1.9 3.3 4 4.8 6.1 1.5 2.1 2.9 4.2 4.2 6.3h-8.9v-.1zM247.7 77.2c-2.8 0-5.3-.4-7.3-1.2-2-.8-3.7-2-5.1-3.5-1.3-1.5-2.3-3.2-3-5.2-.6-2-1-4.2-1-6.6v-26h7.6V60c0 1.9.2 3.5.6 4.8.4 1.3 1 2.4 1.8 3.3.8.9 1.7 1.5 2.8 1.9 1.1.4 2.3.6 3.6.6 1.3 0 2.5-.2 3.6-.6 1.1-.4 2-1 2.8-1.9.8-.8 1.4-1.9 1.8-3.3.4-1.3.6-2.9.6-4.8V34.8h7.6v26c0 2.4-.3 4.6-1 6.6s-1.7 3.7-3 5.2-3.1 2.6-5.1 3.5c-2 .7-4.5 1.1-7.3 1.1zM293.2 77.2c-2.2 0-4.4-.1-6.7-.2-2.2-.1-4.2-.4-5.9-.9V35.8c.9-.2 1.8-.3 2.8-.4 1-.1 2-.3 3.1-.3 1-.1 2.1-.1 3.1-.2 1 0 2-.1 2.9-.1 2.5 0 4.9.2 7 .6 2.2.4 4 1 5.6 1.9 1.6.9 2.8 2 3.7 3.5.9 1.4 1.3 3.2 1.3 5.3 0 2-.5 3.6-1.4 5-.9 1.4-2.3 2.5-3.9 3.4 2.5.8 4.4 2.1 5.6 3.7 1.2 1.6 1.8 3.7 1.8 6.2 0 4.3-1.6 7.5-4.7 9.6-3.1 2.2-7.9 3.2-14.3 3.2zm-5.1-25.1h5.3c2.9 0 5.1-.4 6.8-1.2 1.6-.8 2.5-2.3 2.5-4.4 0-2-.9-3.4-2.5-4.3-1.7-.8-3.9-1.3-6.6-1.3-1.2 0-2.2 0-3.1.1-.9.1-1.7.1-2.3.2v10.9h-.1zm0 5.9v12.7c.8.1 1.7.1 2.7.2 1 0 1.8.1 2.6.1 1.6 0 3-.1 4.4-.3 1.3-.2 2.5-.5 3.5-1s1.8-1.2 2.3-2c.6-.8.9-1.9.9-3.2 0-2.4-.9-4-2.6-4.9-1.7-.9-4.1-1.4-7.1-1.4h-6.7V58zM326.9 76.8V35.2h26.7v6.4h-19.1v10.3h17v6.3h-17v12.2H355v6.4zM381.5 35c6 0 10.6 1.1 13.8 3.3 3.2 2.2 4.8 5.6 4.8 10.1 0 5.6-2.8 9.5-8.3 11.5.8.9 1.6 2 2.6 3.4 1 1.3 1.9 2.8 2.9 4.3s2 3.1 2.9 4.7c.9 1.6 1.7 3.2 2.5 4.8h-8.5c-.8-1.4-1.6-2.9-2.5-4.3-.9-1.5-1.8-2.9-2.7-4.3-.9-1.4-1.8-2.7-2.7-3.9-.9-1.2-1.7-2.3-2.5-3.3-.6 0-1 .1-1.4.1H377.6V77H370V36c1.8-.4 3.8-.7 5.9-.8 2.1-.1 4-.2 5.6-.2zm.6 6.5c-1.6 0-3.1.1-4.4.2v13.4h3.3c1.8 0 3.5-.1 4.9-.3 1.4-.2 2.6-.6 3.5-1.1.9-.5 1.7-1.2 2.1-2.1.5-.9.7-2 .7-3.4 0-1.3-.2-2.4-.7-3.2-.5-.9-1.2-1.6-2.1-2.1-.9-.5-2-.9-3.2-1.1-1.2-.2-2.7-.3-4.1-.3zM426.9 35.2c.9 1.5 1.9 3.4 2.9 5.6 1.1 2.2 2.2 4.5 3.3 6.9 1.1 2.4 2.2 4.9 3.3 7.4 1.1 2.5 2.1 4.8 3 6.9.9-2.1 1.9-4.4 3-6.9s2.2-5 3.3-7.4c1.1-2.4 2.2-4.7 3.3-6.9 1.1-2.2 2.1-4.1 2.9-5.6h6.8c.4 3 .7 6.3 1 9.7.3 3.4.6 6.9.9 10.5.3 3.6.5 7.2.7 10.8.2 3.6.4 7.2.6 10.6h-7.4c-.2-4.8-.4-9.8-.6-14.9-.2-5.1-.6-10.1-1-14.9-.4.9-1 2-1.6 3.3-.6 1.3-1.2 2.7-1.9 4.2s-1.4 3-2.1 4.6c-.7 1.6-1.4 3.2-2 4.7-.7 1.5-1.3 2.9-1.8 4.2-.5 1.3-1 2.4-1.4 3.3h-5.6c-.4-.9-.9-2-1.4-3.4-.6-1.3-1.2-2.7-1.8-4.2-.6-1.5-1.3-3-2-4.6-.7-1.6-1.4-3.1-2.1-4.6-.7-1.5-1.3-2.9-1.9-4.2-.6-1.3-1.1-2.4-1.6-3.3-.4 4.8-.8 9.8-1 14.9-.2 5.1-.4 10.1-.6 14.9h-7.4c.2-3.4.4-7 .6-10.7.2-3.7.5-7.3.7-11 .2-3.7.6-7.1.9-10.5.3-3.4.7-6.5 1-9.4h7zM505.3 76.8c-.6-1.6-1.1-3.3-1.7-4.9-.6-1.6-1.2-3.2-1.7-4.9h-17.6c-.6 1.7-1.1 3.3-1.7 5-.6 1.7-1.2 3.2-1.7 4.8H473c1.6-4.4 3-8.5 4.4-12.3 1.4-3.8 2.8-7.3 4.1-10.7 1.3-3.4 2.7-6.6 4-9.6 1.3-3 2.7-6 4.1-9h7.2c1.4 3 2.8 6 4.1 9 1.3 3 2.6 6.2 4 9.6 1.3 3.4 2.7 6.9 4.1 10.7 1.4 3.8 2.9 7.9 4.5 12.3h-8.2zM493 43.3c-.9 2.1-2 4.7-3.2 7.7-1.2 3-2.4 6.3-3.7 9.9h13.7c-1.3-3.6-2.5-6.9-3.7-10-1.1-3-2.2-5.6-3.1-7.6zM551.2 35.2v6.5h-12.8v35h-7.6v-35H518v-6.5h33.2zM563.8 35.2h7.6v41.6h-7.6zM606.4 77.7c-3.1 0-5.9-.5-8.4-1.4-2.5-.9-4.6-2.4-6.3-4.2-1.7-1.9-3-4.1-4-6.8-.9-2.7-1.4-5.8-1.4-9.2 0-3.5.5-6.6 1.6-9.2 1.1-2.7 2.5-5 4.4-6.8 1.8-1.9 4-3.3 6.5-4.2 2.5-1 5.1-1.4 8-1.4 1.7 0 3.3.1 4.7.4 1.4.3 2.6.6 3.7.9 1 .3 1.9.7 2.6 1 .7.4 1.2.6 1.4.8l-2.2 6.2c-1-.6-2.3-1.2-4.1-1.7-1.8-.5-3.7-.8-5.8-.8-1.8 0-3.5.3-5 .9-1.6.6-2.9 1.5-4 2.8-1.1 1.2-2 2.8-2.7 4.7-.6 1.9-1 4.1-1 6.5 0 2.2.3 4.2.8 6.1.5 1.8 1.3 3.4 2.3 4.8 1 1.3 2.4 2.4 4 3.1 1.6.7 3.5 1.1 5.8 1.1 2.7 0 4.9-.3 6.5-.8 1.6-.5 3-1 3.9-1.5l2 6.2c-.5.3-1.1.6-1.9 1-.8.3-1.8.6-2.9.9-1.1.3-2.4.5-3.8.7-1.6-.2-3.1-.1-4.7-.1z" fill="#ffffff"/></g></svg>
