<svg version="1.1" xmlns="http://www.w3.org/2000/svg" viewBox="0 0 473.2 110.4" xml:space="preserve"><style>.st0{fill:#00517d}</style><path class="st0" d="M78 0v30.3L38 50V19.8zM128 19.8V50L88 30.3V0zM78 79.2v30.3L38 89.8V59.5zM128 59.5v30.3l-40 19.7V79.2zM28 20L0 .4v110l28-19.7z"/><g><path d="M192.3 84.5l-5.8 5.7V105H183V63.8h3.5V86l21.1-22.2h4.4l-17.3 18.4 18.6 22.9h-4.2l-16.8-20.6zM237.9 101.1c-2 3-5.3 4.4-9.8 4.4-3.3 0-5.7-.9-7.4-2.8-1.7-1.9-2.6-4.7-2.6-8.4V74.4h3.4v19.5c0 5.8 2.4 8.8 7.1 8.8 4.9 0 8-2 9.3-6.1V74.4h3.4V105H238l-.1-3.9zM274.7 89.9c0 4.8-1.1 8.6-3.2 11.4-2.1 2.8-5 4.2-8.5 4.2-4.3 0-7.5-1.6-9.7-4.8l-.1 4.2H250V61.4h3.4v17.3c2.2-3.3 5.3-5 9.6-5 3.6 0 6.5 1.4 8.6 4.1 2.1 2.8 3.2 6.6 3.2 11.5v.6h-.1zm-3.4-.6c0-4-.8-7.2-2.4-9.4s-3.8-3.3-6.6-3.3c-2.2 0-4 .5-5.5 1.6s-2.7 2.6-3.4 4.7v13.8c1.7 3.9 4.7 5.8 9 5.8 2.8 0 5-1.1 6.6-3.3s2.3-5.5 2.3-9.9zM294 105.5c-2.6 0-5-.6-7.1-1.9s-3.7-3.1-4.9-5.4c-1.2-2.3-1.8-4.9-1.8-7.7v-1.2c0-2.9.6-5.6 1.7-8s2.7-4.2 4.8-5.6c2-1.4 4.2-2 6.6-2 3.7 0 6.7 1.3 8.8 3.8 2.2 2.5 3.3 6 3.3 10.4v1.9h-21.9v.7c0 3.5 1 6.4 3 8.7s4.5 3.5 7.5 3.5c1.8 0 3.4-.3 4.8-1s2.6-1.7 3.8-3.2l2.1 1.6c-2.3 3.6-5.9 5.4-10.7 5.4zm-.6-28.9c-2.5 0-4.7.9-6.4 2.8s-2.8 4.4-3.2 7.5h18.4v-.4c-.1-2.9-.9-5.3-2.5-7.2s-3.7-2.7-6.3-2.7zM343.4 86.6c0 3.8-.7 7.1-2 10s-3.2 5.1-5.6 6.6-5.2 2.3-8.4 2.3c-4.8 0-8.7-1.7-11.7-5.2-3-3.4-4.4-8.1-4.4-13.9v-4.2c0-3.8.7-7.1 2-10s3.2-5.1 5.7-6.7c2.4-1.6 5.2-2.3 8.4-2.3s6 .8 8.4 2.3 4.3 3.7 5.6 6.5c1.3 2.8 2 6 2.1 9.7v4.9h-.1zm-3.5-4.5c0-5-1.1-8.9-3.4-11.7-2.2-2.8-5.3-4.2-9.2-4.2-3.8 0-6.9 1.4-9.2 4.2-2.3 2.8-3.4 6.8-3.4 11.8v4.3c0 4.9 1.1 8.8 3.4 11.6 2.3 2.9 5.3 4.3 9.2 4.3 3.9 0 7-1.4 9.2-4.2s3.3-6.8 3.3-11.8v-4.3h.1zM354.6 74.3l.1 5.2c1.2-1.9 2.6-3.3 4.3-4.3 1.7-1 3.6-1.5 5.7-1.5 3.3 0 5.7.9 7.3 2.8 1.6 1.9 2.4 4.6 2.4 8.3v20.1H371V84.8c0-2.7-.6-4.8-1.7-6.1s-3-2-5.5-2c-2.1 0-4 .7-5.6 2s-2.8 3.1-3.6 5.3v21h-3.4V74.4l3.4-.1zM395.1 105.5c-2.6 0-5-.6-7.1-1.9s-3.7-3.1-4.9-5.4c-1.2-2.3-1.8-4.9-1.8-7.7v-1.2c0-2.9.6-5.6 1.7-8s2.7-4.2 4.8-5.6c2-1.4 4.2-2 6.6-2 3.7 0 6.7 1.3 8.8 3.8 2.2 2.5 3.3 6 3.3 10.4v1.9h-21.9v.7c0 3.5 1 6.4 3 8.7s4.5 3.5 7.5 3.5c1.8 0 3.4-.3 4.8-1s2.6-1.7 3.8-3.2l2.1 1.6c-2.3 3.6-6 5.4-10.7 5.4zm-.6-28.9c-2.5 0-4.7.9-6.4 2.8s-2.8 4.4-3.2 7.5h18.4v-.4c-.1-2.9-.9-5.3-2.5-7.2s-3.8-2.7-6.3-2.7z"/></g><g><path d="M199.7 33.3c-.7-1.1-1.5-2.2-2.4-3.4-.9-1.2-1.9-2.3-2.9-3.4s-2-2.1-3.1-3.1-2.1-1.8-3.2-2.6v12.4h-5V5.5h5v11.4l2.8-2.8c1-1 1.9-2 2.9-3l2.7-3c.9-1 1.6-1.8 2.3-2.6h6c-.9 1-1.8 2.1-2.8 3.2l-3 3.3c-1 1.1-2.1 2.2-3.1 3.3l-3.1 3.1c1.1.9 2.3 1.8 3.4 3 1.2 1.1 2.3 2.3 3.4 3.6 1.1 1.3 2.2 2.6 3.2 4s2 2.8 2.8 4.2l-5.9.1zM224.6 33.9c-1.9 0-3.5-.3-4.9-.8s-2.5-1.3-3.4-2.3-1.6-2.1-2-3.5c-.4-1.3-.6-2.8-.6-4.4V5.5h5.1v16.8c0 1.3.1 2.3.4 3.2.3.9.7 1.6 1.2 2.2s1.1 1 1.8 1.2c.7.3 1.5.4 2.4.4s1.7-.1 2.4-.4c.7-.3 1.3-.7 1.9-1.2.5-.6.9-1.3 1.2-2.2.3-.9.4-2 .4-3.2V5.5h5.1v17.3c0 1.6-.2 3.1-.7 4.4-.4 1.3-1.1 2.5-2 3.5s-2 1.8-3.4 2.3c-1.4.6-3 .9-4.9.9zM255.2 33.6c-1.5 0-2.9 0-4.4-.1s-2.8-.3-3.9-.6v-27c.6-.1 1.2-.2 1.9-.3.7-.1 1.3-.2 2-.2.7-.1 1.4-.1 2.1-.1h1.9c1.7 0 3.2.1 4.7.4 1.4.3 2.7.7 3.7 1.3 1.1.6 1.9 1.4 2.5 2.3.6 1 .9 2.1.9 3.6 0 1.3-.3 2.4-.9 3.4-.6.9-1.5 1.7-2.6 2.2 1.7.6 2.9 1.4 3.7 2.5.8 1.1 1.2 2.5 1.2 4.2 0 2.9-1 5-3.1 6.4-2.2 1.3-5.4 2-9.7 2zm-3.4-16.8h3.6c1.9 0 3.4-.3 4.5-.8s1.6-1.5 1.6-2.9c0-1.3-.6-2.3-1.7-2.8s-2.6-.8-4.4-.8h-2.1c-.6 0-1.1.1-1.5.1v7.2zm0 4v8.4c.6.1 1.2.1 1.8.1h1.8c1 0 2-.1 2.9-.2s1.7-.4 2.3-.7 1.2-.8 1.6-1.3c.4-.6.6-1.3.6-2.2 0-1.6-.6-2.7-1.7-3.3-1.1-.6-2.7-.9-4.8-.9l-4.5.1zM278 33.3V5.5h17.8v4.3H283v6.8h11.4v4.2H283v8.1h13.7v4.3l-18.7.1zM314.1 5.3c4 0 7.1.7 9.2 2.2s3.2 3.7 3.2 6.7c0 3.8-1.9 6.3-5.6 7.6.5.6 1.1 1.4 1.7 2.2.6.9 1.3 1.8 2 2.9.7 1 1.3 2.1 1.9 3.2s1.2 2.1 1.6 3.2h-5.6c-.5-1-1.1-1.9-1.6-2.9-.6-1-1.2-1.9-1.8-2.8-.6-.9-1.2-1.8-1.8-2.6-.6-.8-1.1-1.5-1.6-2.2h-4.2v10.5h-5V5.9c1.2-.3 2.5-.4 3.9-.5 1.4-.1 2.6-.1 3.7-.1zm.4 4.3c-1.1 0-2.1 0-3 .1v9h2.2c1.2 0 2.3-.1 3.2-.2s1.7-.4 2.3-.7c.6-.3 1.1-.8 1.4-1.4s.5-1.3.5-2.2c0-.9-.2-1.6-.5-2.2s-.8-1.1-1.4-1.4-1.3-.6-2.1-.7c-.7-.2-1.6-.3-2.6-.3zM343.4 5.5c.6 1 1.2 2.3 2 3.7.7 1.5 1.5 3 2.2 4.6s1.5 3.3 2.2 4.9c.7 1.7 1.4 3.2 2 4.6.6-1.4 1.3-3 2-4.6.7-1.7 1.5-3.3 2.2-4.9s1.5-3.2 2.2-4.6c.7-1.5 1.4-2.7 2-3.7h4.5c.2 2 .5 4.2.7 6.5s.4 4.6.6 7 .3 4.8.5 7.2c.1 2.4.3 4.8.4 7.1h-5c-.1-3.2-.2-6.5-.4-10-.1-3.4-.4-6.7-.7-9.9-.3.6-.6 1.3-1 2.2-.4.9-.8 1.8-1.3 2.8s-.9 2-1.4 3.1-.9 2.1-1.4 3.1c-.4 1-.8 1.9-1.2 2.8-.4.9-.7 1.6-1 2.2h-3.8c-.3-.6-.6-1.4-1-2.2-.4-.9-.8-1.8-1.2-2.8-.4-1-.9-2-1.4-3.1s-.9-2.1-1.4-3.1-.9-1.9-1.3-2.8-.7-1.6-1-2.2c-.3 3.2-.5 6.5-.7 9.9-.1 3.4-.3 6.7-.4 10h-5c.1-2.3.2-4.7.4-7.1.1-2.5.3-4.9.5-7.3s.4-4.8.6-7c.2-2.3.4-4.4.7-6.3l4.9-.1zM396.6 33.3c-.4-1.1-.8-2.2-1.2-3.2l-1.2-3.3h-11.7c-.4 1.1-.8 2.2-1.1 3.3-.4 1.1-.8 2.2-1.1 3.2h-5.2c1-3 2-5.7 3-8.2.9-2.5 1.8-4.9 2.7-7.1.9-2.2 1.8-4.4 2.7-6.4l2.7-6h4.8l2.7 6c.9 2 1.8 4.2 2.7 6.4.9 2.2 1.8 4.6 2.8 7.1.9 2.5 1.9 5.2 3 8.2h-5.6zm-8.1-22.4c-.6 1.4-1.3 3.1-2.1 5.2-.8 2-1.6 4.2-2.5 6.6h9.1c-.9-2.4-1.7-4.6-2.5-6.6-.8-2.1-1.5-3.8-2-5.2zM427 5.5v4.4h-8.5v23.4h-5.1V9.9h-8.5V5.5H427zM435.7 5.5h5v27.7h-5V5.5zM464.5 33.9c-2.1 0-3.9-.3-5.6-1-1.7-.6-3.1-1.6-4.2-2.8-1.1-1.2-2-2.8-2.6-4.5-.6-1.8-.9-3.8-.9-6.2 0-2.3.4-4.4 1.1-6.2.7-1.8 1.7-3.3 2.9-4.5s2.7-2.2 4.3-2.8 3.4-1 5.3-1c1.1 0 2.2.1 3.1.3.9.2 1.7.4 2.4.6s1.3.4 1.7.7c.5.2.8.4 1 .5l-1.5 4.1c-.6-.4-1.6-.8-2.7-1.1-1.2-.4-2.5-.5-3.9-.5-1.2 0-2.3.2-3.4.6s-1.9 1-2.7 1.9c-.8.8-1.4 1.9-1.8 3.1-.4 1.3-.6 2.7-.6 4.4 0 1.5.2 2.8.5 4s.8 2.3 1.5 3.2c.7.9 1.6 1.6 2.6 2.1 1.1.5 2.3.7 3.8.7 1.8 0 3.2-.2 4.4-.5 1.1-.4 2-.7 2.6-1l1.4 4.1c-.3.2-.8.4-1.3.6s-1.2.4-1.9.6-1.6.4-2.5.5-2 .1-3 .1z"/></g></svg>
