<svg xmlns="http://www.w3.org/2000/svg" xmlns:xlink="http://www.w3.org/1999/xlink" viewBox="0 0 1920 1080"><path fill="#001129" d="M0 0h1920v1080H0z"/><defs><path id="a" d="M0 0h1920v1080H0z"/></defs><clipPath id="b"><use xlink:href="#a" overflow="visible"/></clipPath><g clip-path="url(#b)"><linearGradient id="c" gradientUnits="userSpaceOnUse" x1="1286.7" y1="268.8" x2="1740.9" y2="268.8" gradientTransform="matrix(1 0 0 -1 0 1080)"><stop offset="0" stop-color="#006878"/><stop offset="1" stop-color="#00d9d2"/></linearGradient><path d="M1513.8 1038.3l-227.1-227.1 227.1-227.1 227.1 227.1-227.1 227.1zm-220.3-227.1l220.3 220.3 220.3-220.3-220.3-220.3-220.3 220.3z" fill="url(#c)"/></g><defs><path id="d" d="M0 0h1920v1080H0z"/></defs><clipPath id="e"><use xlink:href="#d" overflow="visible"/></clipPath><g clip-path="url(#e)"><linearGradient id="f" gradientUnits="userSpaceOnUse" x1="1502.7" y1="331.25" x2="1860.3" y2="331.25" gradientTransform="matrix(1 0 0 -1 0 1080)"><stop offset="0" stop-color="#006878"/><stop offset="1" stop-color="#00d9d2"/></linearGradient><path d="M1681.5 927.5l-178.8-178.8L1681.5 570l178.8 178.8-178.8 178.7zm-175.4-178.7l175.4 175.4L1857 748.8l-175.4-175.4-175.5 175.4z" fill="url(#f)"/></g><defs><path id="g" d="M0 0h1920v1080H0z"/></defs><clipPath id="h"><use xlink:href="#g" overflow="visible"/></clipPath><g clip-path="url(#h)"><linearGradient id="i" gradientUnits="userSpaceOnUse" x1="1053.3" y1="-665.2" x2="3362.9" y2="-665.2" gradientTransform="matrix(1 0 0 -1 0 1080)"><stop offset="0" stop-color="#006878"/><stop offset="1" stop-color="#00d9d2"/></linearGradient><path d="M2208.1 2900L1053.3 1745.2 2208.1 590.4l1154.8 1154.8L2208.1 2900zM1057.5 1745.2l1150.6 1150.6 1150.6-1150.6L2208.1 594.6 1057.5 1745.2z" fill="url(#i)"/></g><defs><path id="j" d="M0 0h1920v1080H0z"/></defs><clipPath id="k"><use xlink:href="#j" overflow="visible"/></clipPath><g clip-path="url(#k)"><linearGradient id="l" gradientUnits="userSpaceOnUse" x1="1091.3" y1="-699.2" x2="3400.9" y2="-699.2" gradientTransform="matrix(1 0 0 -1 0 1080)"><stop offset="0" stop-color="#006878"/><stop offset="1" stop-color="#00d9d2"/></linearGradient><path d="M2246.1 2934L1091.3 1779.2 2246.1 624.4l1154.8 1154.8L2246.1 2934zM1095.5 1779.2l1150.6 1150.6 1150.6-1150.6L2246.1 628.6 1095.5 1779.2z" fill="url(#l)"/></g><defs><path id="m" d="M0 0h1920v1080H0z"/></defs><clipPath id="n"><use xlink:href="#m" overflow="visible"/></clipPath><g clip-path="url(#n)"><linearGradient id="o" gradientUnits="userSpaceOnUse" x1="1075.3" y1="-789.2" x2="3384.9" y2="-789.2" gradientTransform="matrix(1 0 0 -1 0 1080)"><stop offset="0" stop-color="#006878"/><stop offset="1" stop-color="#00d9d2"/></linearGradient><path d="M2230.1 3024L1075.3 1869.2 2230.1 714.4l1154.8 1154.8L2230.1 3024zM1079.5 1869.2l1150.6 1150.6 1150.6-1150.6L2230.1 718.6 1079.5 1869.2z" fill="url(#o)"/></g><defs><path id="p" d="M0 0h1920v1080H0z"/></defs><clipPath id="q"><use xlink:href="#p" overflow="visible"/></clipPath><g clip-path="url(#q)"><linearGradient id="r" gradientUnits="userSpaceOnUse" x1="1500.1" y1="782.8" x2="1682.5" y2="782.8" gradientTransform="matrix(1 0 0 -1 0 1080)"><stop offset="0" stop-color="#006878"/><stop offset="1" stop-color="#00d9d2"/></linearGradient><path d="M1591.3 388.4l-91.2-91.2 91.2-91.2 91.2 91.2-91.2 91.2zm-87.9-91.2l87.9 87.9 87.9-87.9-87.9-87.9-87.9 87.9z" fill="url(#r)"/></g><g><defs><path id="s" d="M0 0h1920v1080H0z"/></defs><clipPath id="t"><use xlink:href="#s" overflow="visible"/></clipPath><linearGradient id="u" gradientUnits="userSpaceOnUse" x1="1617.3" y1="42.7" x2="1639.3" y2="42.7" gradientTransform="matrix(1 0 0 -1 0 1080)"><stop offset="0" stop-color="#006878"/><stop offset="1" stop-color="#00d9d2"/></linearGradient><path clip-path="url(#t)" fill="url(#u)" d="M1639.3 1037.3l-11 11-11-11 11-11z"/></g><g><defs><path id="v" d="M0 0h1920v1080H0z"/></defs><clipPath id="w"><use xlink:href="#v" overflow="visible"/></clipPath><g clip-path="url(#w)"><linearGradient id="x" gradientUnits="userSpaceOnUse" x1="27.3" y1="267.6" x2="66.7" y2="267.6" gradientTransform="matrix(1 0 0 -1 0 1080)"><stop offset="0" stop-color="#006878"/><stop offset="1" stop-color="#00d9d2"/></linearGradient><path d="M47 832.1l-19.7-19.7L47 792.7l19.7 19.7L47 832.1zm-17.1-19.7L47 829.5l17.1-17.1L47 795.3l-17.1 17.1z" fill="url(#x)"/></g></g><g><linearGradient id="y" gradientUnits="userSpaceOnUse" x1="2004.765" y1="536.424" x2="2077.593" y2="536.424" gradientTransform="scale(1 -1) rotate(45 3069.102 -279.316)"><stop offset="0" stop-color="#006878"/><stop offset="1" stop-color="#00d9d2"/></linearGradient><path transform="rotate(-45.001 1765.453 429.338)" fill="none" stroke="url(#y)" stroke-width="2" stroke-miterlimit="10" d="M1740.7 404.6h49.5v49.5h-49.5z"/></g><g><defs><path id="z" d="M0 0h1920v1080H0z"/></defs><clipPath id="A"><use xlink:href="#z" overflow="visible"/></clipPath><linearGradient id="B" gradientUnits="userSpaceOnUse" x1="1368.8" y1="505.2" x2="1413.8" y2="505.2" gradientTransform="matrix(1 0 0 -1 0 1080)"><stop offset="0" stop-color="#006878"/><stop offset="1" stop-color="#00d9d2"/></linearGradient><path clip-path="url(#A)" fill="url(#B)" d="M1413.8 574.8l-22.5 22.5-22.5-22.5 22.5-22.5z"/></g><g><defs><path id="C" d="M0 0h1920v1080H0z"/></defs><clipPath id="D"><use xlink:href="#C" overflow="visible"/></clipPath><g clip-path="url(#D)"><linearGradient id="E" gradientUnits="userSpaceOnUse" x1="1458.6" y1="782.8" x2="1724" y2="782.8" gradientTransform="matrix(1 0 0 -1 0 1080)"><stop offset="0" stop-color="#006878"/><stop offset="1" stop-color="#00d9d2"/></linearGradient><path d="M1591.3 429.9l-132.7-132.7 132.7-132.7L1724 297.2l-132.7 132.7zm-129.4-132.7l129.4 129.4 129.4-129.4-129.4-129.4-129.4 129.4z" fill="url(#E)"/></g></g><g><defs><path id="F" d="M0 0h1920v1080H0z"/></defs><clipPath id="G"><use xlink:href="#F" overflow="visible"/></clipPath><g clip-path="url(#G)"><linearGradient id="H" gradientUnits="userSpaceOnUse" x1="496.598" y1="399.223" x2="761.179" y2="399.223" gradientTransform="matrix(-1.3168 0 0 1.3168 2419.42 -228.497)"><stop offset="0" stop-color="#006878"/><stop offset="1" stop-color="#00d9d2"/></linearGradient><path d="M1591.3 471.4l-.8-.8-173.4-173.4.8-.8L1591.3 123l.8.8 173.4 173.4-174.2 174.2zm-170.9-174.2l171 171 171-171-171-171-171 171z" fill="url(#H)"/></g></g><g><defs><path id="I" d="M0 0h1920v1080H0z"/></defs><clipPath id="J"><use xlink:href="#I" overflow="visible"/></clipPath><g clip-path="url(#J)"><linearGradient id="K" gradientUnits="userSpaceOnUse" x1="753" y1="-121.1" x2="1104.2" y2="-121.1" gradientTransform="matrix(1 0 0 -1 0 1080)"><stop offset="0" stop-color="#006878"/><stop offset="1" stop-color="#00d9d2"/></linearGradient><path d="M928.6 1376.7L753 1201.1l175.6-175.6 175.6 175.6-175.6 175.6zm-172.8-175.6l172.7 172.7 172.7-172.7-172.7-172.7-172.7 172.7z" fill="url(#K)"/></g></g><g><defs><path id="L" d="M0 0h1920v1080H0z"/></defs><clipPath id="M"><use xlink:href="#L" overflow="visible"/></clipPath><g clip-path="url(#M)"><linearGradient id="N" gradientUnits="userSpaceOnUse" x1="956.956" y1="1060.903" x2="1307.351" y2="1060.903" gradientTransform="matrix(-1.3168 0 0 1.3168 2419.42 -228.497)"><stop offset="0" stop-color="#006878"/><stop offset="1" stop-color="#00d9d2"/></linearGradient><path d="M928.6 1399.2l-230.7-230.7 230.7-230.7 230.7 230.7-230.7 230.7zm-227.9-230.7l227.9 227.9 227.9-227.9-227.9-227.9-227.9 227.9z" fill="url(#N)"/></g></g><g><defs><path id="O" d="M0 0h1920v1080H0z"/></defs></g><g><defs><path id="P" d="M0 0h1920v1080H0z"/></defs><clipPath id="Q"><use xlink:href="#P" overflow="visible"/></clipPath><g clip-path="url(#Q)"><linearGradient id="R" gradientUnits="userSpaceOnUse" x1="1689.738" y1="-442.652" x2="2270.531" y2="-442.652" gradientTransform="matrix(.3051 0 0 -.3051 -365.94 822.347)"><stop offset="0" stop-color="#006878"/><stop offset="1" stop-color="#00d9d2"/></linearGradient><path d="M238.2 1046l-88.6-88.6 88.6-88.6 88.6 88.6-88.6 88.6zm-83.9-88.5l84 84 84-84-84-84-84 84z" fill="url(#R)"/></g></g><g><defs><path id="S" d="M0 0h1920v1080H0z"/></defs><clipPath id="T"><use xlink:href="#S" overflow="visible"/></clipPath><g clip-path="url(#T)"><linearGradient id="U" gradientUnits="userSpaceOnUse" x1="2042.568" y1="-1929.952" x2="2565.486" y2="-1929.952" gradientTransform="matrix(-.5236 0 0 .5236 1444.589 1968.023)"><stop offset="0" stop-color="#006878"/><stop offset="1" stop-color="#00d9d2"/></linearGradient><path d="M238.2 1094.4L101.3 957.5l136.9-136.9 136.9 136.9-136.9 136.9zM106.6 957.5l131.7 131.7L370 957.5 238.2 825.8 106.6 957.5z" fill="url(#U)"/></g></g></svg>