<svg xmlns="http://www.w3.org/2000/svg" xml:space="preserve" id="Layer_1" x="0" y="0" style="enable-background:new 0 0 1440 750" version="1.1" viewBox="0 0 1440 750"><style>.st2{opacity:.3;fill:#00d9d2;enable-background:new}.st3{opacity:.1}.st4{fill:#48b8bc}.st5{opacity:.4;fill:#00d9d2;enable-background:new}.st6{opacity:.5}.st7{fill:#00d9d2}.st8{opacity:.6}.st9{opacity:.7}.st10{opacity:.8}.st11{opacity:.9}</style><path d="M1440 0H0v750h1440V0z" style="fill:#001129"/><linearGradient id="SVGID_1_" x1="1388.236" x2="903.736" y1="-442.882" y2="150.118" gradientTransform="matrix(1 0 0 -1 0 750)" gradientUnits="userSpaceOnUse"><stop offset="0" style="stop-color:#0081ae"/><stop offset="1" style="stop-color:#0081ae;stop-opacity:0"/></linearGradient><path d="M1440 0H0v750h1440V0z" style="fill:url(#SVGID_1_)"/><path d="m1304.5 492.6-239.7-19 19-239.7 239.7 19-19 239.7zM1068 470.9l233.7 18.5 18.5-233.7-233.7-18.5-18.5 233.7z" class="st2"/><g class="st3"><path d="m1290.4 503.5-236.4-44 .3-1.5 43.7-235 236.4 44-44 236.5zm-233-46.4L1288 500l42.9-230.5-230.5-42.9-43 230.5z" class="st4"/></g><path d="m1290.4 503.5-236.4-44 .3-1.5 43.7-235 236.4 44-44 236.5zm-233-46.4L1288 500l42.9-230.5-230.5-42.9-43 230.5z" class="st5"/><g class="st3"><path d="m1275.2 512.8-230.6-68.4 68.5-230.6 1.5.4 229.1 68-.4 1.5-68.1 229.1zm-226.8-70.5 224.8 66.7 66.7-224.8-224.8-66.7-66.7 224.8z" class="st4"/></g><g class="st6"><path d="m1275.2 512.8-230.6-68.4 68.5-230.6 1.5.4 229.1 68-.4 1.5-68.1 229.1zm-226.8-70.5 224.8 66.7 66.7-224.8-224.8-66.7-66.7 224.8z" class="st7"/></g><g class="st8"><path d="m1351.3 298.3-92.2 222.1-222.1-92.1 92.2-222.1 222.1 92.1zm-93.8 218.2 89.8-216.6-216.5-89.9-89.8 216.6 216.5 89.9z" class="st7"/></g><g class="st9"><path d="m1242.8 526.2-211.6-114.4 114.4-211.6 211.5 114.4-114.3 211.6zm-207.5-115.5 206.2 111.5L1353 316l-206.2-111.5-111.5 206.2z" class="st7"/></g><g class="st3"><path d="M1225.5 530.4 1027 394.5l.9-1.3 135-197.2 198.4 136-135.8 198.4zm-194.3-136.6 193.5 132.5 132.5-193.5-193.5-132.4-132.5 193.4z" class="st4"/></g><g class="st10"><path d="M1225.5 530.4 1027 394.5l.9-1.3 135-197.2 198.4 136-135.8 198.4zm-194.3-136.6 193.5 132.5 132.5-193.5-193.5-132.4-132.5 193.4z" class="st7"/></g><g class="st3"><path d="m1207.8 532.8-183.2-155.9 155.9-183.2 1.1 1 182 154.9-1 1.1-154.8 182.1zm-178.9-156.2 178.6 151.9 151.9-178.6L1180.8 198l-151.9 178.6z" class="st4"/></g><g class="st11"><path d="m1207.8 532.8-183.2-155.9 155.9-183.2 1.1 1 182 154.9-1 1.1-154.8 182.1zm-178.9-156.2 178.6 151.9 151.9-178.6L1180.8 198l-151.9 178.6z" class="st7"/></g><path d="M1364.2 367.4 1190 533.3l-165.9-174.2 174.2-165.9 165.9 174.2zM1190.1 529l169.8-161.7-161.7-169.8-169.8 161.7L1190.1 529z" class="st7"/><path d="m1041 193.5-64.9-5.1 5.1-64.9 64.9 5.1-5.1 64.9zm-64-5.9 63.2 5 5-63.2-63.2-5-5 63.2z" class="st2"/><g class="st3"><path d="m1037.2 196.4-64-11.9.1-.4 11.8-63.6 64 11.9-11.9 64zm-63-12.5 62.4 11.6 11.6-62.4-62.4-11.6-11.6 62.4z" class="st4"/></g><path d="m1037.2 196.4-64-11.9.1-.4 11.8-63.6 64 11.9-11.9 64zm-63-12.5 62.4 11.6 11.6-62.4-62.4-11.6-11.6 62.4z" class="st5"/><g class="st3"><path d="m1033.1 198.9-62.4-18.5 18.5-62.4.4.1 62 18.4-.1.4-18.4 62zm-61.4-19 60.8 18.1 18.1-60.8-60.8-18-18.1 60.7z" class="st4"/></g><g class="st6"><path d="m1033.1 198.9-62.4-18.5 18.5-62.4.4.1 62 18.4-.1.4-18.4 62zm-61.4-19 60.8 18.1 18.1-60.8-60.8-18-18.1 60.7z" class="st7"/></g><g class="st8"><path d="m1053.7 140.9-24.9 60.1-60.1-24.9 24.9-60.1 60.1 24.9zm-25.4 59.1 24.3-58.6-58.6-24.3-24.3 58.6 58.6 24.3z" class="st7"/></g><g class="st9"><path d="m1024.3 202.6-57.2-30.9 30.9-57.2 57.2 31-30.9 57.1zm-56.1-31.3 55.8 30.2 30.2-55.8-55.8-30.2-30.2 55.8z" class="st7"/></g><g class="st3"><path d="M1019.6 203.7 965.9 167l.2-.3 36.5-53.3 53.7 36.8-36.7 53.5zm-52.5-36.9 52.3 35.8 35.8-52.3-52.4-35.8-35.7 52.3z" class="st4"/></g><g class="st10"><path d="M1019.6 203.7 965.9 167l.2-.3 36.5-53.3 53.7 36.8-36.7 53.5zm-52.5-36.9 52.3 35.8 35.8-52.3-52.4-35.8-35.7 52.3z" class="st7"/></g><g class="st3"><path d="m1014.9 204.4-49.6-42.2 42.2-49.6.3.3 49.2 41.9-.3.3-41.8 49.3zm-48.4-42.3 48.3 41.1 41.1-48.3-48.3-41.1-41.1 48.3z" class="st4"/></g><g class="st11"><path d="m1014.9 204.4-49.6-42.2 42.2-49.6.3.3 49.2 41.9-.3.3-41.8 49.3zm-48.4-42.3 48.3 41.1 41.1-48.3-48.3-41.1-41.1 48.3z" class="st7"/></g><path d="m1057.2 159.6-47.1 44.9-44.9-47.1 47.1-44.9 44.9 47.1zm-47.1 43.7 45.9-43.8-43.8-45.9-45.9 43.7 43.8 46z" class="st7"/><path d="M991.2 663.5 846.6 652l11.5-144.6 144.6 11.5-11.5 144.6zm-142.6-13.1 140.9 11.2 11.2-140.9-140.9-11.2-11.2 140.9z" class="st2"/><g class="st3"><path d="M982.6 670 840 643.5l.2-.9L866.6 501l142.6 26.5L982.6 670zm-140.4-27.9 139 25.9 25.9-139-139-25.9-25.9 139z" class="st4"/></g><path d="M982.6 670 840 643.5l.2-.9L866.6 501l142.6 26.5L982.6 670zm-140.4-27.9 139 25.9 25.9-139-139-25.9-25.9 139z" class="st5"/><g class="st3"><path d="m973.5 675.6-139-41.3 41.3-139 .9.3 138.1 41-.3.9-41 138.1zm-136.7-42.5 135.5 40.2 40.2-135.5L877 497.6l-40.2 135.5z" class="st4"/></g><g class="st6"><path d="m973.5 675.6-139-41.3 41.3-139 .9.3 138.1 41-.3.9-41 138.1zm-136.7-42.5 135.5 40.2 40.2-135.5L877 497.6l-40.2 135.5z" class="st7"/></g><g class="st8"><path d="m1019.4 546.3-55.6 133.9-133.9-55.6 55.6-133.9 133.9 55.6zm-56.6 131.6 54.2-130.6-130.6-54.2-54.2 130.6 130.6 54.2z" class="st7"/></g><g class="st9"><path d="m953.9 683.8-127.6-68.9 69-127.6 127.6 69-69 127.5zm-125.1-69.7 124.4 67.2 67.2-124.4-124.3-67.2-67.3 124.4z" class="st7"/></g><g class="st3"><path d="m943.5 686.3-119.6-81.9.5-.8 81.4-118.9 119.6 81.9-81.9 119.7zm-117.1-82.4L943 683.7l79.9-116.6-116.7-79.9-79.8 116.7z" class="st4"/></g><g class="st10"><path d="m943.5 686.3-119.6-81.9.5-.8 81.4-118.9 119.6 81.9-81.9 119.7zm-117.1-82.4L943 683.7l79.9-116.6-116.7-79.9-79.8 116.7z" class="st7"/></g><g class="st3"><path d="m932.9 687.7-110.4-94 94-110.4.7.6 109.7 93.4-.6.7-93.4 109.7zM825 593.5l107.7 91.6 91.6-107.7-107.7-91.6L825 593.5z" class="st4"/></g><g class="st11"><path d="m932.9 687.7-110.4-94 94-110.4.7.6 109.7 93.4-.6.7-93.4 109.7zM825 593.5l107.7 91.6 91.6-107.7-107.7-91.6L825 593.5z" class="st7"/></g><path d="m1027.1 588-105 100-100-105 105-100 100 105zm-104.9 97.4 102.4-97.5-97.5-102.4L824.7 583l97.5 102.4z" class="st7"/></svg>
