<?xml version="1.0" encoding="UTF-8"?><svg id="a" xmlns="http://www.w3.org/2000/svg" viewBox="0 0 868.73 117.31"><defs><style>.b{fill:#00517d;}</style></defs><g><polygon class="b" points="78 0 78 30.3 38 50 38 19.8 78 0"/><polygon class="b" points="128 19.8 128 50 88 30.3 88 0 128 19.8"/><polygon class="b" points="78 79.2 78 109.5 38 89.8 38 59.5 78 79.2"/><polygon class="b" points="128 59.5 128 89.8 88 109.5 88 79.2 128 59.5"/><polygon class="b" points="28 20 0 .4 0 110.4 28 90.7 28 20"/></g><g><path d="M213.48,86.56c0,3.79-.66,7.13-1.97,10-1.31,2.87-3.19,5.08-5.62,6.63s-5.25,2.32-8.44,2.32c-4.81,0-8.7-1.72-11.67-5.17-2.96-3.45-4.45-8.1-4.45-13.95v-4.25c0-3.76,.67-7.08,2-9.98,1.33-2.9,3.21-5.13,5.65-6.68s5.24-2.34,8.41-2.34,5.97,.76,8.4,2.29c2.43,1.53,4.3,3.69,5.62,6.49,1.32,2.79,2.01,6.03,2.07,9.71v4.93Zm-3.48-4.47c0-4.97-1.12-8.85-3.37-11.67-2.25-2.81-5.32-4.22-9.23-4.22s-6.89,1.41-9.16,4.23c-2.28,2.82-3.41,6.76-3.41,11.82v4.3c0,4.89,1.13,8.76,3.4,11.63,2.27,2.86,5.34,4.29,9.23,4.29s7.02-1.41,9.23-4.23c2.21-2.82,3.31-6.75,3.31-11.8v-4.36Z"/><path d="M246.11,89.93c0,4.78-1.06,8.57-3.17,11.37-2.11,2.8-4.95,4.21-8.5,4.21-4.19,0-7.4-1.47-9.63-4.42v15.63h-3.37v-42.42h3.14l.17,4.33c2.21-3.27,5.41-4.9,9.6-4.9,3.66,0,6.54,1.39,8.62,4.16,2.09,2.78,3.13,6.63,3.13,11.55v.48Zm-3.4-.59c0-3.91-.8-7-2.41-9.26-1.6-2.27-3.84-3.4-6.71-3.4-2.08,0-3.86,.5-5.35,1.5-1.49,1-2.63,2.45-3.43,4.36v14.7c.81,1.76,1.97,3.1,3.48,4.02,1.51,.92,3.29,1.39,5.35,1.39,2.85,0,5.07-1.14,6.67-3.41,1.6-2.27,2.39-5.57,2.39-9.9Z"/><path d="M265.48,105.5c-2.61,0-4.96-.64-7.07-1.93-2.11-1.28-3.74-3.07-4.91-5.37-1.17-2.29-1.76-4.87-1.76-7.72v-1.22c0-2.95,.57-5.6,1.71-7.96,1.14-2.36,2.73-4.21,4.77-5.57,2.04-1.35,4.25-2.02,6.63-2.02,3.72,0,6.67,1.27,8.85,3.81,2.18,2.54,3.27,6.01,3.27,10.41v1.9h-21.86v.65c0,3.47,1,6.37,2.99,8.68,1.99,2.31,4.5,3.47,7.52,3.47,1.81,0,3.41-.33,4.8-.99s2.65-1.72,3.78-3.17l2.12,1.61c-2.49,3.61-6.11,5.41-10.85,5.41Zm-.62-28.89c-2.55,0-4.7,.93-6.44,2.8-1.75,1.87-2.81,4.38-3.19,7.53h18.38v-.37c-.09-2.95-.93-5.34-2.52-7.19s-3.66-2.78-6.23-2.78Z"/><path d="M297.73,77.18c-.72-.13-1.48-.2-2.29-.2-2.11,0-3.9,.59-5.37,1.77-1.46,1.18-2.51,2.89-3.13,5.14v21.04h-3.37v-30.64h3.31l.06,4.87c1.79-3.62,4.67-5.44,8.64-5.44,.94,0,1.69,.12,2.24,.37l-.08,3.09Z"/><path d="M321.3,104.94c-.34-.96-.56-2.39-.65-4.28-1.19,1.55-2.71,2.74-4.54,3.58-1.84,.84-3.79,1.26-5.85,1.26-2.95,0-5.33-.82-7.15-2.46-1.82-1.64-2.73-3.72-2.73-6.23,0-2.98,1.24-5.34,3.72-7.08,2.48-1.74,5.94-2.61,10.38-2.61h6.15v-3.48c0-2.19-.67-3.91-2.02-5.17-1.35-1.25-3.32-1.88-5.91-1.88-2.36,0-4.31,.6-5.86,1.81s-2.32,2.66-2.32,4.36l-3.4-.03c0-2.44,1.13-4.55,3.4-6.33s5.05-2.68,8.35-2.68,6.11,.85,8.08,2.56c1.97,1.71,2.99,4.09,3.04,7.15v14.5c0,2.96,.31,5.18,.93,6.66v.34h-3.62Zm-10.65-2.44c2.27,0,4.29-.55,6.08-1.64,1.78-1.09,3.08-2.56,3.89-4.39v-6.74h-6.06c-3.38,.04-6.02,.66-7.93,1.85-1.91,1.2-2.86,2.85-2.86,4.94,0,1.72,.64,3.14,1.91,4.28,1.27,1.13,2.93,1.7,4.97,1.7Z"/><path d="M338.29,66.45v7.84h6.34v2.78h-6.34v20.44c0,1.7,.31,2.97,.92,3.8,.61,.83,1.64,1.25,3.07,1.25,.57,0,1.48-.09,2.75-.28l.14,2.75c-.89,.32-2.1,.48-3.62,.48-2.32,0-4.01-.67-5.07-2.03-1.06-1.35-1.59-3.34-1.59-5.96v-20.45h-5.64v-2.78h5.64v-7.84h3.4Z"/><path d="M351.46,65.45c0-.64,.21-1.18,.62-1.62s.98-.66,1.7-.66,1.29,.22,1.71,.66c.42,.44,.64,.98,.64,1.62s-.21,1.17-.64,1.6c-.43,.43-1,.65-1.71,.65s-1.28-.22-1.7-.65-.62-.97-.62-1.6Zm3.99,39.49h-3.4v-30.64h3.4v30.64Z"/><path d="M367.88,74.3l.11,5.24c1.15-1.89,2.59-3.33,4.3-4.32s3.62-1.49,5.69-1.49c3.29,0,5.73,.92,7.33,2.78s2.42,4.63,2.44,8.33v20.11h-3.37v-20.14c-.02-2.74-.6-4.78-1.74-6.12-1.14-1.34-2.97-2.01-5.48-2.01-2.1,0-3.95,.66-5.56,1.97-1.62,1.31-2.81,3.08-3.58,5.31v20.99h-3.37v-30.64h3.23Z"/><path d="M395.16,89.33c0-4.8,1.06-8.6,3.19-11.4,2.12-2.8,5.01-4.21,8.65-4.21,4.17,0,7.34,1.66,9.52,4.98l.17-4.42h3.17v30.02c0,3.95-1.1,7.07-3.31,9.37s-5.2,3.46-8.98,3.46c-2.13,0-4.17-.48-6.1-1.43-1.93-.95-3.46-2.22-4.57-3.81l1.9-2.04c2.4,2.95,5.25,4.42,8.55,4.42,2.83,0,5.04-.84,6.63-2.51,1.59-1.67,2.41-3.99,2.46-6.95v-3.85c-2.17,3.02-5.33,4.53-9.49,4.53-3.55,0-6.4-1.42-8.55-4.25s-3.23-6.66-3.23-11.47v-.45Zm3.43,.59c0,3.91,.78,6.99,2.35,9.25,1.57,2.26,3.78,3.38,6.63,3.38,4.17,0,7.13-1.87,8.86-5.61v-14.25c-.79-1.96-1.94-3.46-3.43-4.49-1.49-1.03-3.29-1.54-5.38-1.54-2.85,0-5.07,1.12-6.66,3.36s-2.38,5.54-2.38,9.9Z"/><path d="M466.92,94.8c0-2.28-.8-4.09-2.41-5.42s-4.54-2.6-8.81-3.79c-4.27-1.2-7.38-2.51-9.35-3.92-2.79-2-4.19-4.63-4.19-7.87s1.3-5.72,3.89-7.69c2.6-1.97,5.91-2.96,9.95-2.96,2.74,0,5.19,.53,7.35,1.59,2.16,1.06,3.84,2.53,5.03,4.42s1.78,3.99,1.78,6.32h-3.51c0-2.82-.96-5.09-2.89-6.8s-4.51-2.57-7.76-2.57-5.66,.7-7.53,2.11-2.8,3.25-2.8,5.52c0,2.1,.84,3.81,2.52,5.13,1.68,1.32,4.37,2.49,8.07,3.5s6.5,2.06,8.41,3.15c1.91,1.09,3.34,2.38,4.3,3.89s1.44,3.29,1.44,5.35c0,3.25-1.3,5.85-3.89,7.82-2.6,1.96-6.02,2.95-10.27,2.95-2.91,0-5.57-.52-8-1.56-2.43-1.04-4.27-2.49-5.52-4.36-1.25-1.87-1.88-4.01-1.88-6.43h3.48c0,2.91,1.09,5.2,3.26,6.88s5.06,2.52,8.67,2.52c3.21,0,5.79-.71,7.73-2.12s2.92-3.29,2.92-5.64Z"/><path d="M486.86,100.07l8.95-25.77h3.65l-13.08,35.85-.68,1.59c-1.68,3.72-4.28,5.58-7.79,5.58-.81,0-1.68-.13-2.61-.4l-.03-2.8,1.76,.17c1.66,0,3.01-.41,4.04-1.23,1.03-.82,1.9-2.23,2.62-4.23l1.5-4.13-11.55-30.39h3.71l9.52,25.77Z"/><path d="M523.05,97.15c0-1.68-.67-3.03-2.03-4.05-1.35-1.02-3.38-1.82-6.1-2.39-2.72-.58-4.83-1.24-6.33-1.98-1.5-.75-2.62-1.66-3.34-2.73-.73-1.08-1.09-2.38-1.09-3.91,0-2.42,1.01-4.41,3.03-5.99,2.02-1.58,4.61-2.36,7.76-2.36,3.42,0,6.16,.84,8.23,2.53,2.07,1.69,3.1,3.89,3.1,6.61h-3.4c0-1.79-.75-3.29-2.25-4.47-1.5-1.19-3.39-1.78-5.68-1.78s-4.02,.5-5.37,1.49c-1.35,.99-2.02,2.28-2.02,3.87s.56,2.71,1.68,3.55c1.12,.84,3.17,1.61,6.15,2.31,2.97,.7,5.2,1.44,6.68,2.24,1.48,.79,2.58,1.75,3.3,2.86s1.08,2.46,1.08,4.05c0,2.59-1.04,4.65-3.13,6.2-2.09,1.55-4.81,2.32-8.17,2.32-3.57,0-6.46-.86-8.68-2.59-2.22-1.73-3.33-3.91-3.33-6.56h3.4c.13,1.98,.97,3.53,2.51,4.63,1.54,1.11,3.57,1.66,6.1,1.66,2.36,0,4.27-.52,5.72-1.56s2.18-2.35,2.18-3.94Z"/><path d="M539.33,66.45v7.84h6.34v2.78h-6.34v20.44c0,1.7,.31,2.97,.92,3.8,.61,.83,1.64,1.25,3.07,1.25,.57,0,1.48-.09,2.75-.28l.14,2.75c-.89,.32-2.1,.48-3.62,.48-2.32,0-4.01-.67-5.07-2.03-1.06-1.35-1.59-3.34-1.59-5.96v-20.45h-5.64v-2.78h5.64v-7.84h3.4Z"/><path d="M564.57,105.5c-2.61,0-4.96-.64-7.07-1.93-2.11-1.28-3.74-3.07-4.91-5.37-1.17-2.29-1.76-4.87-1.76-7.72v-1.22c0-2.95,.57-5.6,1.71-7.96,1.14-2.36,2.73-4.21,4.77-5.57,2.04-1.35,4.25-2.02,6.63-2.02,3.72,0,6.67,1.27,8.85,3.81,2.18,2.54,3.27,6.01,3.27,10.41v1.9h-21.86v.65c0,3.47,1,6.37,2.99,8.68,1.99,2.31,4.5,3.47,7.52,3.47,1.81,0,3.41-.33,4.8-.99,1.39-.66,2.65-1.72,3.78-3.17l2.12,1.61c-2.49,3.61-6.11,5.41-10.85,5.41Zm-.62-28.89c-2.55,0-4.7,.93-6.44,2.8-1.75,1.87-2.81,4.38-3.19,7.53h18.38v-.37c-.09-2.95-.93-5.34-2.52-7.19s-3.66-2.78-6.23-2.78Z"/><path d="M585.75,74.3l.11,4.98c1.13-1.85,2.55-3.24,4.25-4.16s3.59-1.39,5.66-1.39c4.83,0,7.9,1.98,9.2,5.95,1.09-1.91,2.56-3.38,4.39-4.4,1.83-1.03,3.85-1.54,6.06-1.54,6.57,0,9.92,3.59,10.05,10.76v20.45h-3.4v-20.19c-.02-2.74-.61-4.77-1.77-6.09-1.16-1.32-3.05-1.98-5.68-1.98-2.44,.04-4.49,.83-6.17,2.36-1.68,1.54-2.62,3.41-2.8,5.62v20.28h-3.4v-20.45c-.02-2.62-.64-4.58-1.86-5.88-1.22-1.29-3.09-1.94-5.62-1.94-2.13,0-3.96,.61-5.49,1.83s-2.66,3.03-3.4,5.42v21.01h-3.4v-30.64h3.26Z"/><path d="M653.58,63.7l15.21,36.39,15.26-36.39h4.64v41.23h-3.48v-17.96l.28-18.41-15.35,36.36h-2.69l-15.29-36.22,.28,18.15v18.07h-3.48V63.7h4.62Z"/><path d="M717.7,104.94c-.34-.96-.56-2.39-.65-4.28-1.19,1.55-2.71,2.74-4.54,3.58-1.84,.84-3.79,1.26-5.85,1.26-2.95,0-5.33-.82-7.15-2.46-1.82-1.64-2.73-3.72-2.73-6.23,0-2.98,1.24-5.34,3.72-7.08,2.48-1.74,5.94-2.61,10.38-2.61h6.15v-3.48c0-2.19-.67-3.91-2.02-5.17-1.35-1.25-3.32-1.88-5.91-1.88-2.36,0-4.31,.6-5.86,1.81s-2.32,2.66-2.32,4.36l-3.4-.03c0-2.44,1.13-4.55,3.4-6.33s5.05-2.68,8.35-2.68,6.11,.85,8.08,2.56c1.97,1.71,2.99,4.09,3.04,7.15v14.5c0,2.96,.31,5.18,.93,6.66v.34h-3.62Zm-10.65-2.44c2.27,0,4.29-.55,6.08-1.64,1.78-1.09,3.08-2.56,3.89-4.39v-6.74h-6.06c-3.38,.04-6.02,.66-7.93,1.85-1.91,1.2-2.86,2.85-2.86,4.94,0,1.72,.64,3.14,1.91,4.28,1.27,1.13,2.93,1.7,4.97,1.7Z"/><path d="M732.65,74.3l.11,5.24c1.15-1.89,2.59-3.33,4.3-4.32s3.62-1.49,5.69-1.49c3.29,0,5.73,.92,7.33,2.78s2.42,4.63,2.44,8.33v20.11h-3.37v-20.14c-.02-2.74-.6-4.78-1.74-6.12-1.14-1.34-2.97-2.01-5.48-2.01-2.1,0-3.95,.66-5.56,1.97-1.62,1.31-2.81,3.08-3.58,5.31v20.99h-3.37v-30.64h3.23Z"/><path d="M780.62,104.94c-.34-.96-.56-2.39-.65-4.28-1.19,1.55-2.71,2.74-4.54,3.58-1.84,.84-3.79,1.26-5.85,1.26-2.95,0-5.33-.82-7.15-2.46-1.82-1.64-2.73-3.72-2.73-6.23,0-2.98,1.24-5.34,3.72-7.08,2.48-1.74,5.94-2.61,10.38-2.61h6.15v-3.48c0-2.19-.67-3.91-2.02-5.17-1.35-1.25-3.32-1.88-5.91-1.88-2.36,0-4.31,.6-5.86,1.81s-2.32,2.66-2.32,4.36l-3.4-.03c0-2.44,1.13-4.55,3.4-6.33s5.05-2.68,8.35-2.68,6.11,.85,8.08,2.56c1.97,1.71,2.99,4.09,3.04,7.15v14.5c0,2.96,.31,5.18,.93,6.66v.34h-3.62Zm-10.65-2.44c2.27,0,4.29-.55,6.08-1.64,1.78-1.09,3.08-2.56,3.89-4.39v-6.74h-6.06c-3.38,.04-6.02,.66-7.93,1.85-1.91,1.2-2.86,2.85-2.86,4.94,0,1.72,.64,3.14,1.91,4.28,1.27,1.13,2.93,1.7,4.97,1.7Z"/><path d="M790.99,89.33c0-4.8,1.06-8.6,3.19-11.4,2.12-2.8,5.01-4.21,8.65-4.21,4.17,0,7.34,1.66,9.52,4.98l.17-4.42h3.17v30.02c0,3.95-1.1,7.07-3.31,9.37s-5.2,3.46-8.98,3.46c-2.13,0-4.17-.48-6.1-1.43-1.93-.95-3.46-2.22-4.57-3.81l1.9-2.04c2.4,2.95,5.25,4.42,8.55,4.42,2.83,0,5.04-.84,6.63-2.51,1.59-1.67,2.41-3.99,2.46-6.95v-3.85c-2.17,3.02-5.33,4.53-9.49,4.53-3.55,0-6.4-1.42-8.55-4.25s-3.23-6.66-3.23-11.47v-.45Zm3.43,.59c0,3.91,.78,6.99,2.35,9.25,1.57,2.26,3.78,3.38,6.63,3.38,4.17,0,7.13-1.87,8.86-5.61v-14.25c-.79-1.96-1.94-3.46-3.43-4.49-1.49-1.03-3.29-1.54-5.38-1.54-2.85,0-5.07,1.12-6.66,3.36s-2.38,5.54-2.38,9.9Z"/><path d="M836.39,105.5c-2.61,0-4.96-.64-7.07-1.93-2.11-1.28-3.74-3.07-4.91-5.37-1.17-2.29-1.76-4.87-1.76-7.72v-1.22c0-2.95,.57-5.6,1.71-7.96,1.14-2.36,2.73-4.21,4.77-5.57,2.04-1.35,4.25-2.02,6.63-2.02,3.72,0,6.67,1.27,8.85,3.81,2.18,2.54,3.27,6.01,3.27,10.41v1.9h-21.86v.65c0,3.47,1,6.37,2.99,8.68,1.99,2.31,4.5,3.47,7.52,3.47,1.81,0,3.41-.33,4.8-.99,1.39-.66,2.65-1.72,3.78-3.17l2.12,1.61c-2.49,3.61-6.11,5.41-10.85,5.41Zm-.62-28.89c-2.55,0-4.7,.93-6.44,2.8-1.75,1.87-2.81,4.38-3.19,7.53h18.38v-.37c-.09-2.95-.93-5.34-2.52-7.19s-3.66-2.78-6.23-2.78Z"/><path d="M868.64,77.18c-.72-.13-1.48-.2-2.29-.2-2.11,0-3.9,.59-5.37,1.77-1.46,1.18-2.51,2.89-3.13,5.14v21.04h-3.37v-30.64h3.31l.06,4.87c1.79-3.62,4.67-5.44,8.64-5.44,.94,0,1.69,.12,2.24,.37l-.08,3.09Z"/></g><g><path d="M199.56,33.26c-.69-1.07-1.49-2.19-2.4-3.36-.91-1.17-1.86-2.31-2.86-3.4-1-1.09-2.03-2.13-3.1-3.12-1.07-.99-2.12-1.84-3.16-2.56v12.44h-5.04V5.54h5.04v11.44c.88-.88,1.8-1.82,2.76-2.82s1.91-2.01,2.86-3.04c.95-1.03,1.85-2.02,2.7-2.98s1.63-1.83,2.32-2.6h6.04c-.88,1.01-1.81,2.07-2.8,3.16-.99,1.09-2,2.19-3.04,3.3s-2.09,2.21-3.14,3.3c-1.05,1.09-2.09,2.13-3.1,3.12,1.12,.85,2.26,1.85,3.42,2.98,1.16,1.13,2.3,2.35,3.42,3.64,1.12,1.29,2.19,2.64,3.22,4.04,1.03,1.4,1.97,2.79,2.82,4.18h-5.96Z"/><path d="M224.47,33.86c-1.89,0-3.52-.27-4.88-.82-1.36-.55-2.49-1.31-3.38-2.3-.89-.99-1.55-2.15-1.98-3.48-.43-1.33-.64-2.8-.64-4.4V5.54h5.08V22.38c0,1.25,.14,2.33,.42,3.22,.28,.89,.68,1.62,1.2,2.18,.52,.56,1.13,.97,1.84,1.24,.71,.27,1.5,.4,2.38,.4s1.68-.13,2.4-.4c.72-.27,1.34-.68,1.86-1.24,.52-.56,.92-1.29,1.2-2.18,.28-.89,.42-1.97,.42-3.22V5.54h5.08V22.86c0,1.6-.22,3.07-.66,4.4-.44,1.33-1.11,2.49-2,3.48-.89,.99-2.03,1.75-3.42,2.3-1.39,.55-3.03,.82-4.92,.82Z"/><path d="M255.12,33.58c-1.47,0-2.95-.05-4.44-.14-1.49-.09-2.8-.29-3.92-.58V5.94c.59-.11,1.21-.21,1.88-.3,.67-.09,1.35-.17,2.04-.22,.69-.05,1.38-.09,2.06-.12,.68-.03,1.33-.04,1.94-.04,1.68,0,3.24,.13,4.68,.38,1.44,.25,2.69,.67,3.74,1.26,1.05,.59,1.87,1.36,2.46,2.32,.59,.96,.88,2.15,.88,3.56,0,1.31-.31,2.43-.94,3.36-.63,.93-1.5,1.68-2.62,2.24,1.68,.56,2.92,1.39,3.72,2.48,.8,1.09,1.2,2.48,1.2,4.16,0,2.85-1.04,4.99-3.12,6.42-2.08,1.43-5.27,2.14-9.56,2.14Zm-3.4-16.76h3.56c1.92,0,3.43-.27,4.52-.82s1.64-1.53,1.64-2.94c0-1.33-.57-2.28-1.7-2.84s-2.61-.84-4.42-.84c-.77,0-1.46,.01-2.06,.04-.6,.03-1.11,.07-1.54,.12v7.28Zm0,3.96v8.44c.56,.05,1.16,.09,1.8,.12,.64,.03,1.23,.04,1.76,.04,1.04,0,2.01-.07,2.9-.2,.89-.13,1.67-.37,2.32-.7s1.17-.78,1.56-1.34c.39-.56,.58-1.28,.58-2.16,0-1.57-.57-2.67-1.72-3.28-1.15-.61-2.73-.92-4.76-.92h-4.44Z"/><path d="M277.92,33.26V5.54h17.8v4.28h-12.76v6.84h11.36v4.2h-11.36v8.12h13.72v4.28h-18.76Z"/><path d="M314.04,5.26c4,0,7.06,.73,9.18,2.2,2.12,1.47,3.18,3.71,3.18,6.72,0,3.76-1.85,6.31-5.56,7.64,.51,.61,1.08,1.36,1.72,2.24,.64,.88,1.29,1.83,1.96,2.86,.67,1.03,1.31,2.08,1.92,3.16,.61,1.08,1.16,2.14,1.64,3.18h-5.64c-.51-.96-1.05-1.93-1.64-2.9-.59-.97-1.18-1.92-1.78-2.84-.6-.92-1.19-1.79-1.78-2.6-.59-.81-1.13-1.54-1.64-2.18-.37,.03-.69,.04-.96,.04h-3.2v10.48h-5.04V5.94c1.23-.27,2.53-.45,3.92-.54,1.39-.09,2.63-.14,3.72-.14Zm.36,4.36c-1.07,0-2.05,.04-2.96,.12v8.96h2.2c1.23,0,2.31-.07,3.24-.2s1.71-.37,2.34-.72c.63-.35,1.1-.81,1.42-1.4,.32-.59,.48-1.33,.48-2.24,0-.85-.16-1.57-.48-2.16-.32-.59-.78-1.05-1.38-1.4-.6-.35-1.31-.59-2.14-.74-.83-.15-1.73-.22-2.72-.22Z"/><path d="M343.29,5.54c.59,1.01,1.24,2.25,1.96,3.72,.72,1.47,1.45,3.01,2.2,4.62,.75,1.61,1.49,3.25,2.22,4.92,.73,1.67,1.41,3.21,2.02,4.62,.61-1.41,1.28-2.95,2-4.62,.72-1.67,1.45-3.31,2.2-4.92,.75-1.61,1.48-3.15,2.2-4.62,.72-1.47,1.37-2.71,1.96-3.72h4.54c.24,2.03,.47,4.18,.69,6.46,.22,2.28,.41,4.61,.59,7,.18,2.39,.34,4.79,.49,7.2,.15,2.41,.28,4.77,.39,7.06h-4.96c-.11-3.23-.24-6.55-.39-9.96-.15-3.41-.37-6.72-.67-9.92-.29,.61-.64,1.35-1.04,2.2-.4,.85-.83,1.78-1.28,2.78-.45,1-.91,2.03-1.38,3.1-.47,1.07-.92,2.1-1.36,3.1-.44,1-.85,1.93-1.22,2.8-.37,.87-.69,1.61-.96,2.22h-3.76c-.27-.61-.59-1.36-.96-2.24-.37-.88-.78-1.82-1.22-2.82-.44-1-.89-2.03-1.36-3.1-.47-1.07-.93-2.09-1.38-3.08-.45-.99-.88-1.91-1.28-2.78-.4-.87-.75-1.59-1.04-2.18-.3,3.2-.52,6.51-.67,9.92-.15,3.41-.28,6.73-.39,9.96h-4.96c.11-2.29,.24-4.67,.39-7.12,.15-2.45,.31-4.89,.49-7.3,.18-2.41,.37-4.75,.59-7.02,.22-2.27,.45-4.36,.69-6.28h4.66Z"/><path d="M396.53,33.26c-.37-1.09-.76-2.17-1.16-3.24-.4-1.07-.79-2.16-1.16-3.28h-11.71c-.37,1.12-.76,2.22-1.14,3.3-.39,1.08-.77,2.15-1.14,3.22h-5.24c1.04-2.96,2.02-5.69,2.96-8.2,.93-2.51,1.84-4.88,2.74-7.12,.89-2.24,1.78-4.37,2.66-6.4,.88-2.03,1.79-4.03,2.72-6h4.81c.93,1.97,1.84,3.97,2.72,6,.88,2.03,1.77,4.16,2.66,6.4,.89,2.24,1.81,4.61,2.76,7.12,.95,2.51,1.94,5.24,2.98,8.2h-5.44Zm-8.18-22.36c-.61,1.41-1.31,3.13-2.1,5.16-.79,2.03-1.61,4.23-2.46,6.6h9.12c-.85-2.37-1.68-4.59-2.48-6.64-.8-2.05-1.49-3.76-2.08-5.12Z"/><path d="M426.87,5.54v4.36h-8.52v23.36h-5.08V9.9h-8.52V5.54h22.12Z"/><path d="M435.6,5.54h5.04v27.72h-5.04V5.54Z"/><path d="M464.35,33.86c-2.08,0-3.95-.32-5.6-.96-1.65-.64-3.05-1.58-4.2-2.82-1.15-1.24-2.03-2.75-2.64-4.54-.61-1.79-.92-3.84-.92-6.16s.35-4.37,1.06-6.16c.71-1.79,1.67-3.3,2.9-4.54,1.23-1.24,2.67-2.18,4.32-2.82s3.43-.96,5.32-.96c1.15,0,2.19,.09,3.12,.26,.93,.17,1.75,.37,2.44,.58,.69,.21,1.27,.44,1.72,.68,.45,.24,.77,.41,.96,.52l-1.48,4.12c-.64-.4-1.55-.78-2.74-1.14-1.19-.36-2.47-.54-3.86-.54-1.2,0-2.32,.21-3.36,.62s-1.94,1.03-2.7,1.86c-.76,.83-1.35,1.87-1.78,3.12-.43,1.25-.64,2.71-.64,4.36,0,1.47,.17,2.81,.5,4.04,.33,1.23,.85,2.29,1.54,3.18,.69,.89,1.57,1.59,2.64,2.08,1.07,.49,2.35,.74,3.84,.74,1.79,0,3.24-.18,4.36-.54,1.12-.36,1.99-.7,2.6-1.02l1.36,4.12c-.32,.21-.75,.43-1.3,.64-.55,.21-1.19,.42-1.94,.62-.75,.2-1.59,.36-2.52,.48s-1.93,.18-3,.18Z"/></g></svg>