<svg width="51" height="49" viewBox="0 0 51 49" fill="none" xmlns="http://www.w3.org/2000/svg">
<path fill-rule="evenodd" clip-rule="evenodd" d="M2.65931 2.65931H40.8233V20.9333L42.4826 21.3779V1H1V25.8896H6.35777L6.80238 24.2303H2.65931V2.65931ZM26.301 17.042C27.0824 16.0528 27.5489 14.8033 27.5489 13.4448C27.5489 10.2374 24.9487 7.63722 21.7413 7.63722C18.5339 7.63722 15.9337 10.2374 15.9337 13.4448C15.9337 13.7284 15.9541 14.0073 15.9934 14.2801L17.808 14.7663C17.6686 14.3512 17.5931 13.9068 17.5931 13.4448C17.5931 11.1538 19.4503 9.29653 21.7413 9.29653C24.0323 9.29653 25.8896 11.1538 25.8896 13.4448C25.8896 14.6835 25.3466 15.7955 24.4857 16.5556L26.301 17.042Z" fill="url(#paint0_linear)"/>
<path d="M40.8233 2.65931H41.3233V2.15931H40.8233V2.65931ZM2.65931 2.65931V2.15931H2.15931V2.65931H2.65931ZM40.8233 20.9333H40.3233V21.3169L40.6939 21.4162L40.8233 20.9333ZM42.4826 21.3779L42.3532 21.8608L42.9826 22.0295V21.3779H42.4826ZM42.4826 1H42.9826V0.5H42.4826V1ZM1 1V0.5H0.5V1H1ZM1 25.8896H0.5V26.3896H1V25.8896ZM6.35777 25.8896V26.3896H6.74143L6.84073 26.019L6.35777 25.8896ZM6.80238 24.2303L7.28534 24.3597L7.45399 23.7303H6.80238V24.2303ZM2.65931 24.2303H2.15931V24.7303H2.65931V24.2303ZM26.301 17.042L26.1716 17.525L26.4894 17.6101L26.6933 17.352L26.301 17.042ZM15.9934 14.2801L15.4985 14.3514L15.5455 14.6777L15.864 14.7631L15.9934 14.2801ZM17.808 14.7663L17.6786 15.2493L18.5786 15.4904L18.282 14.6071L17.808 14.7663ZM24.4857 16.5556L24.1547 16.1808L23.4563 16.7974L24.3562 17.0386L24.4857 16.5556ZM40.8233 2.15931H2.65931V3.15931H40.8233V2.15931ZM41.3233 20.9333V2.65931H40.3233V20.9333H41.3233ZM40.6939 21.4162L42.3532 21.8608L42.612 20.8949L40.9527 20.4503L40.6939 21.4162ZM42.9826 21.3779V1H41.9826V21.3779H42.9826ZM42.4826 0.5H1V1.5H42.4826V0.5ZM0.5 1V25.8896H1.5V1H0.5ZM1 26.3896H6.35777V25.3896H1V26.3896ZM6.84073 26.019L7.28534 24.3597L6.31942 24.1009L5.87481 25.7602L6.84073 26.019ZM2.65931 24.7303H6.80238V23.7303H2.65931V24.7303ZM2.15931 2.65931V24.2303H3.15931V2.65931H2.15931ZM27.0489 13.4448C27.0489 14.6868 26.6229 15.828 25.9086 16.7321L26.6933 17.352C27.542 16.2777 28.0489 14.9197 28.0489 13.4448H27.0489ZM21.7413 8.13722C24.6726 8.13722 27.0489 10.5135 27.0489 13.4448H28.0489C28.0489 9.96122 25.2249 7.13722 21.7413 7.13722V8.13722ZM16.4337 13.4448C16.4337 10.5135 18.81 8.13722 21.7413 8.13722V7.13722C18.2577 7.13722 15.4337 9.96122 15.4337 13.4448H16.4337ZM16.4883 14.2088C16.4524 13.9596 16.4337 13.7045 16.4337 13.4448H15.4337C15.4337 13.7524 15.4558 14.0551 15.4985 14.3514L16.4883 14.2088ZM15.864 14.7631L17.6786 15.2493L17.9374 14.2834L16.1228 13.7971L15.864 14.7631ZM17.0931 13.4448C17.0931 13.9616 17.1776 14.4598 17.334 14.9255L18.282 14.6071C18.1596 14.2427 18.0931 13.852 18.0931 13.4448H17.0931ZM21.7413 8.79653C19.1742 8.79653 17.0931 10.8776 17.0931 13.4448H18.0931C18.0931 11.4299 19.7264 9.79653 21.7413 9.79653V8.79653ZM26.3896 13.4448C26.3896 10.8776 24.3085 8.79653 21.7413 8.79653V9.79653C23.7562 9.79653 25.3896 11.4299 25.3896 13.4448H26.3896ZM24.8166 16.9304C25.7805 16.0794 26.3896 14.8329 26.3896 13.4448H25.3896C25.3896 14.5342 24.9127 15.5116 24.1547 16.1808L24.8166 16.9304ZM24.3562 17.0386L26.1716 17.525L26.4304 16.559L24.6151 16.0726L24.3562 17.0386Z" fill="url(#paint1_linear)"/>
<path fill-rule="evenodd" clip-rule="evenodd" d="M47.9678 24.5587L11.1042 14.6811L5.52118 35.517L42.3848 45.3946L47.9678 24.5587ZM9.93086 12.6489L3.48896 36.6904L43.5581 47.4268L50 23.3854L9.93086 12.6489Z" fill="url(#paint2_linear)"/>
<path fill-rule="evenodd" clip-rule="evenodd" d="M26.9632 26.031C24.7503 25.438 22.4756 26.7513 21.8827 28.9642C21.2897 31.1772 22.603 33.4518 24.8159 34.0448C27.0289 34.6377 29.3035 33.3245 29.8965 31.1115C30.4895 28.8986 29.1762 26.6239 26.9632 26.031ZM20.2799 28.5348C21.11 25.4366 24.2945 23.598 27.3927 24.4282C30.4908 25.2583 32.3294 28.4428 31.4993 31.541C30.6691 34.6391 27.4846 36.4777 24.3865 35.6476C21.2883 34.8174 19.4498 31.6329 20.2799 28.5348Z" fill="url(#paint3_linear)"/>
<path fill-rule="evenodd" clip-rule="evenodd" d="M47.9678 24.5587L11.1042 14.6811L5.52118 35.517L42.3848 45.3946L47.9678 24.5587ZM9.93086 12.6489L3.48896 36.6904L43.5581 47.4268L50 23.3854L9.93086 12.6489Z" stroke="url(#paint4_linear)"/>
<path fill-rule="evenodd" clip-rule="evenodd" d="M26.9632 26.031C24.7503 25.438 22.4756 26.7513 21.8827 28.9642C21.2897 31.1772 22.603 33.4518 24.8159 34.0448C27.0289 34.6377 29.3035 33.3245 29.8965 31.1115C30.4895 28.8986 29.1762 26.6239 26.9632 26.031ZM20.2799 28.5348C21.11 25.4366 24.2945 23.598 27.3927 24.4282C30.4908 25.2583 32.3294 28.4428 31.4993 31.541C30.6691 34.6391 27.4846 36.4777 24.3865 35.6476C21.2883 34.8174 19.4498 31.6329 20.2799 28.5348Z" stroke="url(#paint5_linear)"/>
<defs>
<linearGradient id="paint0_linear" x1="6.93403" y1="22.3075" x2="22.6067" y2="-3.66076" gradientUnits="userSpaceOnUse">
<stop stop-color="#0081AE"/>
<stop offset="1" stop-color="#00D9D2"/>
</linearGradient>
<linearGradient id="paint1_linear" x1="6.93403" y1="22.3075" x2="22.6067" y2="-3.66076" gradientUnits="userSpaceOnUse">
<stop stop-color="#0081AE"/>
<stop offset="1" stop-color="#00D9D2"/>
</linearGradient>
<linearGradient id="paint2_linear" x1="10.1423" y1="42.4216" x2="33.9221" y2="10.8052" gradientUnits="userSpaceOnUse">
<stop stop-color="#0081AE"/>
<stop offset="1" stop-color="#00D9D2"/>
</linearGradient>
<linearGradient id="paint3_linear" x1="10.1423" y1="42.4216" x2="33.9221" y2="10.8052" gradientUnits="userSpaceOnUse">
<stop stop-color="#0081AE"/>
<stop offset="1" stop-color="#00D9D2"/>
</linearGradient>
<linearGradient id="paint4_linear" x1="10.1423" y1="42.4216" x2="33.9221" y2="10.8052" gradientUnits="userSpaceOnUse">
<stop stop-color="#0081AE"/>
<stop offset="1" stop-color="#00D9D2"/>
</linearGradient>
<linearGradient id="paint5_linear" x1="10.1423" y1="42.4216" x2="33.9221" y2="10.8052" gradientUnits="userSpaceOnUse">
<stop stop-color="#0081AE"/>
<stop offset="1" stop-color="#00D9D2"/>
</linearGradient>
</defs>
</svg>
