<svg width="13" height="16" fill="none" xmlns="http://www.w3.org/2000/svg" viewBox="0 0 13 16"><mask id="a" fill="#fff"><path fill-rule="evenodd" clip-rule="evenodd" d="M2 10V2h5v1h2V1a1 1 0 00-1-1H1a1 1 0 00-1 1v10a1 1 0 001 1h2v-2H2z"/></mask><path fill-rule="evenodd" clip-rule="evenodd" d="M2 10V2h5v1h2V1a1 1 0 00-1-1H1a1 1 0 00-1 1v10a1 1 0 001 1h2v-2H2z" fill="#fff"/><path d="M2 2V0H0v2h2zm0 8H0v2h2v-2zm5-8h2V0H7v2zm0 1H5v2h2V3zm2 0v2h2V3H9zm-6 9v2h2v-2H3zm0-2h2V8H3v2zM0 2v8h4V2H0zm7-2H2v4h5V0zm2 3V2H5v1h4zM7 5h2V1H7v4zm4-2V1H7v2h4zm0-2a3 3 0 00-3-3v4a1 1 0 01-1-1h4zM8-2H1v4h7v-4zM1-2a3 3 0 00-3 3h4a1 1 0 01-1 1v-4zm-3 3v10h4V1h-4zm0 10a3 3 0 003 3v-4a1 1 0 011 1h-4zm3 3h2v-4H1v4zm4-2v-2H1v2h4zm-3 0h1V8H2v4z" fill="#fff" mask="url(#a)"/><mask id="b" fill="#fff"><rect x="3.75" y="4" width="9" height="12" rx="1"/></mask><rect x="3.75" y="4" width="9" height="12" rx="1" stroke="#fff" stroke-width="4" mask="url(#b)"/></svg>
