<svg width="18" height="19" viewBox="0 0 18 19" fill="none" xmlns="http://www.w3.org/2000/svg">
<path fill-rule="evenodd" clip-rule="evenodd" d="M2.525 0.00708008C1.12963 0.00708008 0 1.13671 0 2.53208C0 3.92745 1.12963 5.05708 2.525 5.05708C2.80623 5.05708 3.07607 5.01073 3.32814 4.92574L5.80667 7.40427C5.5636 7.88556 5.425 8.42995 5.425 9.00708C5.425 9.58421 5.5636 10.1286 5.80667 10.6099L3.32814 13.0884C3.07607 13.0034 2.80623 12.9571 2.525 12.9571C1.12963 12.9571 0 14.0867 0 15.4821C0 16.8775 1.12963 18.0071 2.525 18.0071C3.92037 18.0071 5.05 16.8775 5.05 15.4821C5.05 15.2009 5.00365 14.931 4.91866 14.6789L7.39719 12.2004C7.87848 12.4435 8.42287 12.5821 9 12.5821C9.57713 12.5821 10.1215 12.4435 10.6028 12.2004L13.0813 14.6789C12.9964 14.931 12.95 15.2009 12.95 15.4821C12.95 16.8775 14.0796 18.0071 15.475 18.0071C16.8704 18.0071 18 16.8775 18 15.4821C18 14.0867 16.8704 12.9571 15.475 12.9571C15.1938 12.9571 14.9239 13.0034 14.6719 13.0884L12.1933 10.6099C12.4364 10.1286 12.575 9.58421 12.575 9.00708C12.575 8.42995 12.4364 7.88556 12.1933 7.40427L14.6719 4.92574C14.9239 5.01073 15.1938 5.05708 15.475 5.05708C16.8704 5.05708 18 3.92745 18 2.53208C18 1.13671 16.8704 0.00708008 15.475 0.00708008C14.0796 0.00708008 12.95 1.13671 12.95 2.53208C12.95 2.81331 12.9964 3.08315 13.0813 3.33522L10.6028 5.81374C10.1215 5.57068 9.57713 5.43208 9 5.43208C8.42287 5.43208 7.87848 5.57068 7.39719 5.81374L4.91866 3.33522C5.00365 3.08315 5.05 2.81331 5.05 2.53208C5.05 1.13671 3.92037 0.00708008 2.525 0.00708008ZM2.25 2.53208C2.25 2.38045 2.37337 2.25708 2.525 2.25708C2.67663 2.25708 2.8 2.38045 2.8 2.53208C2.8 2.68371 2.67663 2.80708 2.525 2.80708C2.37337 2.80708 2.25 2.68371 2.25 2.53208ZM15.2 2.53208C15.2 2.38045 15.3234 2.25708 15.475 2.25708C15.6266 2.25708 15.75 2.38045 15.75 2.53208C15.75 2.68371 15.6266 2.80708 15.475 2.80708C15.3234 2.80708 15.2 2.68371 15.2 2.53208ZM8.35518 7.85057C8.54739 7.74301 8.76538 7.68208 9 7.68208C9.23462 7.68208 9.45262 7.74301 9.64483 7.85058C9.69247 7.87733 9.73802 7.90694 9.77881 7.93754L9.79313 7.94842L9.80545 7.95746L9.80553 7.95752C9.89644 8.02784 9.97924 8.11064 10.0496 8.20155L10.0496 8.20163L10.0587 8.21395L10.0665 8.22432C10.1026 8.27369 10.1322 8.31902 10.1566 8.36251C10.2641 8.55466 10.325 8.77257 10.325 9.00708C10.325 9.24159 10.2641 9.45951 10.1566 9.65165C10.1303 9.69856 10.1012 9.74343 10.0711 9.78374C10.0645 9.79206 10.0538 9.80576 10.0417 9.82265C9.97311 9.90962 9.89308 9.98892 9.80553 10.0566L9.80545 10.0567L9.79312 10.0657L9.78277 10.0736C9.73339 10.1097 9.68806 10.1393 9.64457 10.1637C9.45243 10.2712 9.23451 10.3321 9 10.3321C8.76549 10.3321 8.54757 10.2712 8.35543 10.1637C8.31194 10.1393 8.26661 10.1097 8.21723 10.0736L8.20686 10.0657L8.19455 10.0567L8.19447 10.0566C8.10353 9.9863 8.02071 9.90348 7.95038 9.81253L7.94736 9.80862L7.94654 9.80759L7.94615 9.80702L7.93778 9.79566C7.8998 9.74411 7.86883 9.69701 7.84349 9.6519C7.73593 9.45969 7.675 9.24169 7.675 9.00708C7.675 8.77246 7.73593 8.55447 7.84349 8.36226C7.86787 8.31884 7.89748 8.27359 7.93353 8.2243L7.94134 8.21395L7.95038 8.20163L7.95044 8.20155C8.02078 8.11061 8.10361 8.02779 8.19455 7.95746L8.19846 7.95444L8.19948 7.95362L8.20006 7.95323L8.21142 7.94486C8.26297 7.90688 8.31007 7.87591 8.35518 7.85057ZM2.25 15.4821C2.25 15.3305 2.37337 15.2071 2.525 15.2071C2.67663 15.2071 2.8 15.3305 2.8 15.4821C2.8 15.6337 2.67663 15.7571 2.525 15.7571C2.37337 15.7571 2.25 15.6337 2.25 15.4821ZM15.2 15.4821C15.2 15.3305 15.3234 15.2071 15.475 15.2071C15.6266 15.2071 15.75 15.3305 15.75 15.4821C15.75 15.6337 15.6266 15.7571 15.475 15.7571C15.3234 15.7571 15.2 15.6337 15.2 15.4821Z" fill="#00D9D2"/>
</svg>
