<svg width="36" height="36" viewBox="0 0 36 36" fill="none" xmlns="http://www.w3.org/2000/svg">
<circle cx="18" cy="18" r="17" stroke="#23B15F" stroke-width="2"/>
<path d="M15 22H21V25H15V22Z" stroke="#2B3035" stroke-width="2"/>
<path d="M15 25H21V26C21 27.1046 20.1046 28 19 28H17C15.8954 28 15 27.1046 15 26V25Z" stroke="#2B3035" stroke-width="2"/>
<path d="M22.8089 20.0867C22.2834 20.5837 21.8182 21.236 21.5912 22H14.4088C14.1818 21.236 13.7166 20.5837 13.1911 20.0867C11.8406 18.8094 11 17.0037 11 15C11 11.134 14.134 8 18 8C21.866 8 25 11.134 25 15C25 17.0037 24.1594 18.8094 22.8089 20.0867Z" stroke="#2B3035" stroke-width="2"/>
</svg>
