<svg width="36" height="36" viewBox="0 0 36 36" fill="none" xmlns="http://www.w3.org/2000/svg">
<circle cx="18" cy="18" r="17" stroke="#0081AE" stroke-width="2"/>
<path d="M19.0547 20.2264H16.8311L16.6904 11.9031H19.1953L19.0547 20.2264ZM16.5146 23.5047C16.5146 23.3113 16.5469 23.1326 16.6113 22.9686C16.6758 22.8045 16.7695 22.6609 16.8926 22.5379C17.0156 22.4149 17.165 22.3211 17.3408 22.2567C17.5166 22.1863 17.7158 22.1512 17.9385 22.1512C18.1553 22.1512 18.3516 22.1863 18.5273 22.2567C18.7031 22.3211 18.8525 22.4149 18.9756 22.5379C19.0986 22.6609 19.1924 22.8045 19.2568 22.9686C19.3271 23.1326 19.3623 23.3113 19.3623 23.5047C19.3623 23.6922 19.3271 23.868 19.2568 24.032C19.1924 24.1961 19.0986 24.3367 18.9756 24.4539C18.8525 24.5711 18.7031 24.6619 18.5273 24.7264C18.3516 24.7967 18.1553 24.8318 17.9385 24.8318C17.7158 24.8318 17.5166 24.7967 17.3408 24.7264C17.165 24.6619 17.0156 24.5711 16.8926 24.4539C16.7695 24.3367 16.6758 24.1961 16.6113 24.032C16.5469 23.868 16.5146 23.6922 16.5146 23.5047Z" fill="#2B3035"/>
</svg>
