<svg width="255" height="195" viewBox="0 0 255 195" fill="none" xmlns="http://www.w3.org/2000/svg">
<path d="M131.193 0H122.907V192.383H131.193V0Z" fill="#C1C1C1"/>
<path d="M209.888 29.171L183.865 52.5089L183.686 52.6671L62.345 68.2257L57.2607 28.6067L178.607 13.0428L195.853 21.9349L209.888 29.171Z" fill="#EDEFF0"/>
<path d="M69.4229 113.773H191.761V73.8215H69.4229L40.447 93.7945L69.4229 113.773Z" fill="#EDEFF0"/>
<path d="M205.996 190.637H62.2344V194.134H205.996V190.637Z" fill="#C1C1C1"/>
<path d="M60.4622 194.134H34.2869V190.637H60.4622V194.134Z" fill="#C1C1C1"/>
<path d="M27.3198 190.637H0V194.134H27.3198V190.637Z" fill="#C1C1C1"/>
<path d="M228.405 190.637H205.363V194.134H228.405V190.637Z" fill="#C1C1C1"/>
<path d="M254.022 194.134H235.668V190.637H254.022V194.134Z" fill="#C1C1C1"/>
<path d="M110.96 38.6274C110.445 39.5162 109.899 40.4815 109.323 41.5232C108.747 42.565 108.285 43.6163 107.937 44.6772L111.674 44.1978L110.96 38.6274ZM113.88 33.8491L115.15 43.7519L116.911 43.526L117.284 46.4302L115.522 46.6561L115.996 50.3459L112.52 50.7917L112.047 47.102L104.929 48.015L104.596 45.4203C104.856 44.6772 105.192 43.8357 105.603 42.8957C106.013 41.9398 106.476 40.9609 106.993 39.959C107.524 38.9392 108.089 37.9391 108.689 36.9588C109.289 35.9785 109.901 35.0854 110.523 34.2797L113.88 33.8491ZM130.105 40.1155C130.462 42.8927 130.204 45.0954 129.332 46.7236C128.474 48.3339 127.116 49.2581 125.26 49.4963C123.403 49.7345 121.848 49.1838 120.595 47.8443C119.357 46.4869 118.559 44.4196 118.203 41.6423C118.026 40.2616 118.004 39.0224 118.137 37.9245C118.287 36.8245 118.576 35.876 119.006 35.0788C119.436 34.2816 119.992 33.6457 120.673 33.1712C121.354 32.6967 122.147 32.4014 123.052 32.2853C124.909 32.0471 126.456 32.6068 127.695 33.9642C128.948 35.3037 129.751 37.3541 130.105 40.1155ZM126.487 40.5796C126.381 39.7544 126.246 39.0136 126.081 38.3573C125.914 37.685 125.712 37.1141 125.474 36.6445C125.236 36.175 124.95 35.8246 124.613 35.5935C124.277 35.3624 123.887 35.2754 123.443 35.3324C122.998 35.3894 122.643 35.5721 122.376 35.8806C122.125 36.187 121.935 36.5984 121.808 37.1148C121.697 37.6292 121.645 38.2327 121.653 38.9252C121.659 39.602 121.715 40.3529 121.821 41.1782C121.927 42.0034 122.063 42.7521 122.23 43.4244C122.397 44.0966 122.6 44.6675 122.837 45.1371C123.091 45.6046 123.378 45.955 123.698 46.1881C124.034 46.4192 124.424 46.5063 124.869 46.4493C125.313 46.3923 125.669 46.2095 125.936 45.9011C126.203 45.5926 126.392 45.1812 126.503 44.6668C126.615 44.1524 126.666 43.549 126.658 42.8564C126.65 42.1638 126.593 41.4049 126.487 40.5796ZM138.019 35.1562C137.504 36.045 136.959 37.0103 136.382 38.052C135.806 39.0938 135.344 40.1451 134.997 41.206L138.734 40.7266L138.019 35.1562ZM140.939 30.3779L142.209 40.2807L143.971 40.0548L144.344 42.959L142.582 43.1849L143.055 46.8747L139.58 47.3205L139.106 43.6308L131.989 44.5438L131.656 41.9491C131.915 41.206 132.251 40.3645 132.663 39.4245C133.073 38.4686 133.536 37.4897 134.052 36.4878C134.583 35.468 135.148 34.4679 135.749 33.4876C136.349 32.5073 136.96 31.6142 137.583 30.8085L140.939 30.3779Z" fill="#00517D"/>
<path d="M90.4854 99V86.2031H94.0977C95.2109 86.2031 96.1953 86.4492 97.0508 86.9414C97.9062 87.4336 98.5654 88.1338 99.0283 89.042C99.4971 89.9502 99.7344 90.9932 99.7402 92.1709V92.9883C99.7402 94.1953 99.5059 95.2529 99.0371 96.1611C98.5742 97.0693 97.9092 97.7666 97.042 98.2529C96.1807 98.7393 95.1758 98.9883 94.0273 99H90.4854ZM92.1729 87.5918V97.6201H93.9482C95.249 97.6201 96.2598 97.2158 96.9805 96.4072C97.707 95.5986 98.0703 94.4473 98.0703 92.9531V92.2061C98.0703 90.7529 97.7275 89.625 97.042 88.8223C96.3623 88.0137 95.3955 87.6035 94.1416 87.5918H92.1729ZM105.989 99.1758C104.7 99.1758 103.651 98.7539 102.843 97.9102C102.034 97.0605 101.63 95.9268 101.63 94.5088V94.21C101.63 93.2666 101.809 92.4258 102.166 91.6875C102.529 90.9434 103.033 90.3633 103.678 89.9473C104.328 89.5254 105.031 89.3145 105.787 89.3145C107.023 89.3145 107.984 89.7217 108.67 90.5361C109.355 91.3506 109.698 92.5166 109.698 94.0342V94.7109H103.256C103.279 95.6484 103.552 96.4072 104.073 96.9873C104.601 97.5615 105.269 97.8486 106.077 97.8486C106.651 97.8486 107.138 97.7314 107.536 97.4971C107.935 97.2627 108.283 96.9521 108.582 96.5654L109.575 97.3389C108.778 98.5635 107.583 99.1758 105.989 99.1758ZM105.787 90.6504C105.131 90.6504 104.58 90.8906 104.135 91.3711C103.689 91.8457 103.414 92.5137 103.309 93.375H108.072V93.252C108.025 92.4258 107.803 91.7871 107.404 91.3359C107.006 90.8789 106.467 90.6504 105.787 90.6504ZM117.459 99C117.365 98.8125 117.289 98.4785 117.23 97.998C116.475 98.7832 115.572 99.1758 114.523 99.1758C113.586 99.1758 112.815 98.9121 112.212 98.3848C111.614 97.8516 111.315 97.1777 111.315 96.3633C111.315 95.373 111.69 94.6055 112.44 94.0605C113.196 93.5098 114.257 93.2344 115.622 93.2344H117.204V92.4873C117.204 91.9189 117.034 91.4678 116.694 91.1338C116.354 90.7939 115.854 90.624 115.191 90.624C114.611 90.624 114.125 90.7705 113.732 91.0635C113.34 91.3564 113.144 91.7109 113.144 92.127H111.509C111.509 91.6523 111.676 91.1953 112.01 90.7559C112.35 90.3105 112.807 89.959 113.381 89.7012C113.961 89.4434 114.597 89.3145 115.288 89.3145C116.384 89.3145 117.242 89.5898 117.863 90.1406C118.484 90.6855 118.807 91.4385 118.83 92.3994V96.7764C118.83 97.6494 118.941 98.3438 119.164 98.8594V99H117.459ZM114.761 97.7607C115.271 97.7607 115.754 97.6289 116.211 97.3652C116.668 97.1016 116.999 96.7588 117.204 96.3369V94.3857H115.93C113.938 94.3857 112.941 94.9688 112.941 96.1348C112.941 96.6445 113.111 97.043 113.451 97.3301C113.791 97.6172 114.228 97.7607 114.761 97.7607ZM120.983 94.166C120.983 92.707 121.329 91.5352 122.021 90.6504C122.712 89.7598 123.617 89.3145 124.736 89.3145C125.85 89.3145 126.731 89.6953 127.382 90.457V85.5H129.008V99H127.514L127.435 97.9805C126.784 98.7773 125.879 99.1758 124.719 99.1758C123.617 99.1758 122.718 98.7246 122.021 97.8223C121.329 96.9199 120.983 95.7422 120.983 94.2891V94.166ZM122.609 94.3506C122.609 95.4287 122.832 96.2725 123.277 96.8818C123.723 97.4912 124.338 97.7959 125.123 97.7959C126.154 97.7959 126.907 97.333 127.382 96.4072V92.0391C126.896 91.1426 126.148 90.6943 125.141 90.6943C124.344 90.6943 123.723 91.002 123.277 91.6172C122.832 92.2324 122.609 93.1436 122.609 94.3506ZM143.492 93.085H137.946V97.6201H144.389V99H136.259V86.2031H144.301V87.5918H137.946V91.7051H143.492V93.085ZM147.772 89.4902L147.825 90.6855C148.552 89.7715 149.501 89.3145 150.673 89.3145C152.683 89.3145 153.696 90.4482 153.714 92.7158V99H152.088V92.707C152.082 92.0215 151.924 91.5146 151.613 91.1865C151.309 90.8584 150.831 90.6943 150.181 90.6943C149.653 90.6943 149.19 90.835 148.792 91.1162C148.394 91.3975 148.083 91.7666 147.86 92.2236V99H146.234V89.4902H147.772ZM155.771 94.166C155.771 92.707 156.116 91.5352 156.808 90.6504C157.499 89.7598 158.404 89.3145 159.523 89.3145C160.637 89.3145 161.519 89.6953 162.169 90.457V85.5H163.795V99H162.301L162.222 97.9805C161.571 98.7773 160.666 99.1758 159.506 99.1758C158.404 99.1758 157.505 98.7246 156.808 97.8223C156.116 96.9199 155.771 95.7422 155.771 94.2891V94.166ZM157.396 94.3506C157.396 95.4287 157.619 96.2725 158.064 96.8818C158.51 97.4912 159.125 97.7959 159.91 97.7959C160.941 97.7959 161.694 97.333 162.169 96.4072V92.0391C161.683 91.1426 160.936 90.6943 159.928 90.6943C159.131 90.6943 158.51 91.002 158.064 91.6172C157.619 92.2324 157.396 93.1436 157.396 94.3506Z" fill="#00517D"/>
</svg>
