<?xml version="1.0" encoding="UTF-8"?><svg xmlns="http://www.w3.org/2000/svg" xmlns:xlink="http://www.w3.org/1999/xlink" viewBox="0 0 260.54 295.37"><defs><style>.bf{fill:#bcedff;}.bg{fill:url(#t);}.bh{fill:url(#af);}.bh,.bi,.bj,.bk,.bl,.bm,.bn,.bo,.bp,.bq,.br,.bs,.bt,.bu,.bv,.bw,.bx,.by,.c`,.ca,.cb,.cc,.cd,.ce,.cf,.cg,.ch{opacity:.5;}.ci{fill:#fff;}.cj{fill:#123a6a;}.ck{fill:#0a2d5b;}.cl{fill:url(#r);}.cm{fill:#4677a5;}.cn{fill:#0f054c;}.co{fill:#180d5b;opacity:.2;}.bi{fill:url(#bb);}.cp{fill:url(#y);}.cq{fill:url(#l);}.bk{fill:url(#b`);}.bl{fill:url(#ae);}.bm{fill:url(#ai);}.bn{fill:url(#bc);}.cr{fill:url(#c);}.bo{fill:url(#al);}.bp{fill:url(#ah);}.cs{fill:#e2b1a6;}.ct{fill:#3c6f9e;}.cu{fill:url(#u);}.bq{fill:url(#bd);}.cv{isolation:isolate;}.cw{fill:url(#v);}.cx{fill:url(#a`);}.cy{fill:url(#m);}.br{fill:url(#ax);}.bs{fill:url(#ap);}.d`{fill:#936d6d;}.da,.db,.dc{opacity:.11;}.dd{fill:#1b2b3a;}.db{fill:url(#f);}.bt{fill:url(#ag);}.de{fill:url(#g);}.bu{fill:url(#ba);}.df{fill:url(#ad);}.dg{fill:url(#ab);}.dh{fill:url(#ak);}.di{fill:url(#b);}.dj{opacity:.8;}.dj,.dk,.dl,.ce{fill:#42e8e0;}.bv{fill:url(#aw);}.dm{fill:url(#i);}.dn{fill:#aa8383;}.do{fill:url(#ar);}.dp{fill:url(#h);}.dq{fill:url(#d);}.dr{fill:url(#e);}.bw{fill:url(#be);}.bx{fill:url(#ao);}.by{fill:url(#aq);}.ds{fill:url(#x);}.dt{fill:#fcd1c5;}.du{fill:url(#aa);}.dv{fill:url(#s);}.dw{fill:url(#n);}.dx{fill:url(#ac);}.dy{fill:url(#w);}.c`{fill:url(#an);}.e`{fill:#f0f6ff;}.ea{fill:url(#j);}.dc{fill:url(#k);}.eb{fill:url(#o);}.dk{opacity:.5;}.ca{fill:url(#as);}.ec{fill:url(#q);}.ed{fill:url(#ay);}.cb{fill:url(#aj);}.cc{fill:url(#au);}.cd{fill:url(#av);}.ee{fill:#86ccf2;mix-blend-mode:lighten;}.cf{fill:url(#p);}.cg{fill:url(#at);}.ch{fill:url(#am);}.ef{fill:#c4ccd6;}.eg{fill:#722318;}</style><linearGradient id="b" x1="90.1" y1="258.95" x2="218.62" y2="258.95" gradientTransform="translate(260.54) rotate(-180) scale(1 -1)" gradientUnits="userSpaceOnUse"><stop offset="0" stop-color="#5797d7"/><stop offset=".04" stop-color="#559cd7"/><stop offset=".3" stop-color="#4dbddb"/><stop offset=".56" stop-color="#46d4dd"/><stop offset=".8" stop-color="#43e3df"/><stop offset="1" stop-color="#42e8e0"/></linearGradient><linearGradient id="c" y1="249.06" x2="218.62" y2="249.06" xlink:href="#b"/><linearGradient id="d" x1="90.1" y1="239.17" x2="218.62" y2="239.17" xlink:href="#b"/><linearGradient id="e" x1="90.1" y1="229.29" x2="218.62" y2="229.29" xlink:href="#b"/><linearGradient id="f" x1="90.1" y1="244.12" x2="218.62" y2="244.12" xlink:href="#b"/><linearGradient id="g" x1="90.1" y1="218.05" y2="218.05" xlink:href="#b"/><linearGradient id="h" x1="90.1" y1="208.16" y2="208.16" xlink:href="#b"/><linearGradient id="i" x1="90.1" y1="198.27" y2="198.27" xlink:href="#b"/><linearGradient id="j" x1="90.1" y1="188.39" y2="188.39" xlink:href="#b"/><linearGradient id="k" x1="90.1" y1="203.22" x2="218.62" y2="203.22" xlink:href="#b"/><linearGradient id="l" x1="90.1" y1="177.15" x2="218.62" y2="177.15" xlink:href="#b"/><linearGradient id="m" x1="90.1" y1="167.26" x2="218.62" y2="167.26" xlink:href="#b"/><linearGradient id="n" x1="90.1" y1="157.37" x2="218.62" y2="157.37" xlink:href="#b"/><linearGradient id="o" x1="90.1" y1="147.49" x2="218.62" y2="147.49" xlink:href="#b"/><linearGradient id="p" x1="90.1" y1="162.32" x2="218.62" y2="162.32" xlink:href="#b"/><linearGradient id="q" x1="90.1" y1="147.49" x2="218.62" y2="147.49" xlink:href="#b"/><linearGradient id="r" x1="90.1" y1="165.31" x2="218.62" y2="165.31" xlink:href="#b"/><linearGradient id="s" x1="142.74" y1="121.49" x2="148.3" y2="121.49" xlink:href="#b"/><linearGradient id="t" x1="145.57" y1="109.26" x2="159.5" y2="109.26" xlink:href="#b"/><linearGradient id="u" x1="145.63" y1="95.54" x2="160.73" y2="95.54" xlink:href="#b"/><linearGradient id="v" x1="161.98" y1="190.68" x2="171.13" y2="190.68" gradientTransform="translate(270.51 -30.46) rotate(-174.99) scale(1 -1)" xlink:href="#b"/><linearGradient id="w" x1="172.56" y1="119.3" x2="173.85" y2="119.3" gradientTransform="translate(270.51 -30.46) rotate(-174.99) scale(1 -1)" xlink:href="#b"/><linearGradient id="x" x1="153.17" y1="165.19" x2="175.15" y2="165.19" gradientTransform="translate(270.51 -30.46) rotate(-174.99) scale(1 -1)" xlink:href="#b"/><linearGradient id="y" x1="174.02" y1="139.15" x2="179.22" y2="139.15" gradientTransform="translate(270.51 -30.46) rotate(-174.99) scale(1 -1)" xlink:href="#b"/><linearGradient id="a`" x1="141.56" y1="185.74" x2="159.34" y2="185.74" gradientTransform="translate(270.51 -30.46) rotate(-174.99) scale(1 -1)" xlink:href="#b"/><linearGradient id="aa" x1="151.55" y1="179.31" x2="153.81" y2="179.31" gradientTransform="translate(270.51 -30.46) rotate(-174.99) scale(1 -1)" xlink:href="#b"/><linearGradient id="ab" x1="147.27" y1="175.02" x2="149.53" y2="175.02" gradientTransform="translate(270.51 -30.46) rotate(-174.99) scale(1 -1)" xlink:href="#b"/><linearGradient id="ac" x1="151.6" y1="155.43" x2="168.42" y2="155.43" gradientTransform="translate(270.51 -30.46) rotate(-174.99) scale(1 -1)" xlink:href="#b"/><linearGradient id="ad" x1="31.78" y1="130.96" x2="121.84" y2="130.96" gradientTransform="translate(260.54) rotate(-180) scale(1 -1)" gradientUnits="userSpaceOnUse"><stop offset="0" stop-color="#57a4d7"/><stop offset=".16" stop-color="#5eaad9"/><stop offset=".41" stop-color="#71bbe1"/><stop offset=".69" stop-color="#91d8ed"/><stop offset="1" stop-color="#bcfffd"/></linearGradient><linearGradient id="ae" x1="57.27" y1="118.79" x2="111.32" y2="118.79" gradientTransform="translate(260.54) rotate(-180) scale(1 -1)" gradientUnits="userSpaceOnUse"><stop offset="0" stop-color="#42e8e0"/><stop offset=".44" stop-color="#46e3dd"/><stop offset=".95" stop-color="#55d4d7"/><stop offset="1" stop-color="#57d3d7"/></linearGradient><linearGradient id="af" x1="84.29" y1="109.02" y2="109.02" xlink:href="#ae"/><linearGradient id="ag" x1="57.27" y1="109.02" x2="84.29" y2="109.02" xlink:href="#ae"/><linearGradient id="ah" x1="57.27" y1="114.85" y2="114.85" xlink:href="#ae"/><linearGradient id="ai" x1="84.29" y1="124.62" y2="124.62" xlink:href="#ae"/><linearGradient id="aj" x1="57.27" y1="124.62" x2="84.29" y2="124.62" xlink:href="#ae"/><linearGradient id="ak" y1="223.13" y2="223.13" xlink:href="#ad"/><linearGradient id="al" x1="57.27" y1="210.96" y2="210.96" xlink:href="#ae"/><linearGradient id="am" x1="84.29" y1="201.19" y2="201.19" xlink:href="#ae"/><linearGradient id="an" x1="57.27" y1="201.19" x2="84.29" y2="201.19" xlink:href="#ae"/><linearGradient id="ao" x1="57.27" y1="207.02" y2="207.02" xlink:href="#ae"/><linearGradient id="ap" x1="84.29" y1="216.79" y2="216.79" xlink:href="#ae"/><linearGradient id="aq" x1="57.27" y1="216.79" x2="84.29" y2="216.79" xlink:href="#ae"/><linearGradient id="ar" x1="172.63" y1="130.96" x2="262.69" y2="130.96" xlink:href="#ad"/><linearGradient id="as" x1="198.12" x2="252.17" xlink:href="#ae"/><linearGradient id="at" x1="225.14" y1="109.02" x2="252.17" y2="109.02" xlink:href="#ae"/><linearGradient id="au" x1="198.12" y1="109.02" x2="225.14" y2="109.02" xlink:href="#ae"/><linearGradient id="av" x1="198.12" y1="114.85" x2="252.17" y2="114.85" xlink:href="#ae"/><linearGradient id="aw" x1="225.14" y1="124.62" x2="252.17" y2="124.62" xlink:href="#ae"/><linearGradient id="ax" x1="198.12" y1="124.62" x2="225.14" y2="124.62" xlink:href="#ae"/><linearGradient id="ay" x1="172.63" y1="223.13" x2="262.69" y2="223.13" xlink:href="#ad"/><linearGradient id="b`" x1="198.12" y1="210.96" x2="252.17" y2="210.96" xlink:href="#ae"/><linearGradient id="ba" x1="225.14" y1="201.19" x2="252.17" y2="201.19" xlink:href="#ae"/><linearGradient id="bb" x1="198.12" y1="201.19" x2="225.14" y2="201.19" xlink:href="#ae"/><linearGradient id="bc" x1="198.12" y1="207.02" x2="252.17" y2="207.02" xlink:href="#ae"/><linearGradient id="bd" x1="225.14" y1="216.79" x2="252.17" y2="216.79" xlink:href="#ae"/><linearGradient id="be" x1="198.12" y1="216.79" x2="225.14" y2="216.79" xlink:href="#ae"/></defs><g class="cv"><g id="a"><g><g><path class="dl" d="M8.83,59.28c-2.61,.67-5.17,1.38-7.69,2.11v18.59c2.52-.73,5.08-1.44,7.69-2.11v-18.59h0Z"/><path class="ce" d="M26.65,60.06c-2.79,.53-5.54,1.1-8.25,1.7v13.82c2.71-.6,5.46-1.17,8.25-1.7v-13.82h0Z"/><path class="dl" d="M45.6,44.92c-2.95,.38-5.86,.8-8.74,1.26v25.93c2.88-.45,5.8-.87,8.74-1.26v-25.93h0Z"/><path class="ce" d="M65.52,28.58c-3.09,.22-6.14,.48-9.17,.78v40.27c3.03-.3,6.08-.56,9.17-.78V28.58h0Z"/><path class="ce" d="M86.29,37.22c-3.21,.05-6.39,.14-9.55,.27v30.72c3.16-.13,6.34-.22,9.55-.27v-30.72h0Z"/><path class="dl" d="M107.25,5.06c-3.13-.13-6.29-.21-9.46-.26v63.14c3.18,.05,6.33,.14,9.46,.26V5.06h0Z"/><path class="dl" d="M127.53,18.07c-3.01-.29-6.06-.55-9.12-.77v51.53c3.07,.22,6.11,.48,9.12,.77V18.07h0Z"/><path class="dl" d="M146.96,1.24c-2.87-.45-5.78-.86-8.72-1.24V70.81c2.94,.38,5.85,.79,8.72,1.24V1.24h0Z"/></g><g><g><g><g class="bj"><g class="da"><path class="di" d="M101.21,223.84c3.05-1.76,6.8-1.76,9.85,0l58.69,33.81c.92,.53,.92,1.87,0,2.4l-59.18,34.17c-2.69,1.55-6,1.55-8.69,0l-59.27-34.13c-.92-.53-.92-1.87,0-2.4l58.6-33.83Z"/></g><g class="da"><path class="cr" d="M101.21,213.95c3.05-1.76,6.8-1.76,9.85,0l58.69,33.81c.92,.53,.92,1.87,0,2.4l-59.18,34.17c-2.69,1.55-6,1.55-8.69,0l-59.27-34.13c-.92-.53-.92-1.87,0-2.4l58.6-33.83Z"/></g><g class="da"><path class="dq" d="M101.21,204.07c3.05-1.76,6.8-1.76,9.85,0l58.69,33.81c.92,.53,.92,1.87,0,2.4l-59.18,34.17c-2.69,1.55-6,1.55-8.69,0l-59.27-34.13c-.92-.53-.92-1.87,0-2.4l58.6-33.83Z"/></g><g class="da"><path class="dr" d="M101.21,194.18c3.05-1.76,6.8-1.76,9.85,0l58.69,33.81c.92,.53,.92,1.87,0,2.4l-59.18,34.17c-2.69,1.55-6,1.55-8.69,0l-59.27-34.13c-.92-.53-.92-1.87,0-2.4l58.6-33.83Z"/></g><path class="db" d="M42.61,228.01l58.6-33.83c3.05-1.76,6.8-1.76,9.85,0l58.69,33.81c.46,.27,.69,.73,.69,1.2v29.66c0,.47-.23,.93-.69,1.2l-59.18,34.17c-2.69,1.55-6,1.55-8.69,0l-59.27-34.13c-.46-.27-.69-.73-.69-1.2v-29.66h0c0-.47,.23-.93,.69-1.2Z"/></g><g><g class="da"><path class="de" d="M101.21,182.94c3.05-1.76,6.8-1.76,9.85,0l58.69,33.81c.92,.53,.92,1.87,0,2.4l-59.18,34.17c-2.69,1.55-6,1.55-8.69,0l-59.27-34.13c-.92-.53-.92-1.87,0-2.4l58.6-33.83Z"/></g><g class="da"><path class="dp" d="M101.21,173.05c3.05-1.76,6.8-1.76,9.85,0l58.69,33.81c.92,.53,.92,1.87,0,2.4l-59.18,34.17c-2.69,1.55-6,1.55-8.69,0l-59.27-34.13c-.92-.53-.92-1.87,0-2.4l58.6-33.83Z"/></g><g class="da"><path class="dm" d="M101.21,163.17c3.05-1.76,6.8-1.76,9.85,0l58.69,33.81c.92,.53,.92,1.87,0,2.4l-59.18,34.17c-2.69,1.55-6,1.55-8.69,0l-59.27-34.13c-.92-.53-.92-1.87,0-2.4l58.6-33.83Z"/></g><g class="da"><path class="ea" d="M101.21,153.28c3.05-1.76,6.8-1.76,9.85,0l58.69,33.81c.92,.53,.92,1.87,0,2.4l-59.18,34.17c-2.69,1.55-6,1.55-8.69,0l-59.27-34.13c-.92-.53-.92-1.87,0-2.4l58.6-33.83Z"/></g><path class="dc" d="M42.61,187.11l58.6-33.83c3.05-1.76,6.8-1.76,9.85,0l58.69,33.81c.46,.27,.69,.73,.69,1.2v29.66c0,.47-.23,.93-.69,1.2l-59.18,34.17c-2.69,1.55-6,1.55-8.69,0l-59.27-34.13c-.46-.27-.69-.73-.69-1.2v-29.66h0c0-.47,.23-.93,.69-1.2Z"/></g><g><g class="da"><path class="cq" d="M101.21,142.04c3.05-1.76,6.8-1.76,9.85,0l58.69,33.81c.92,.53,.92,1.87,0,2.4l-59.18,34.17c-2.69,1.55-6,1.55-8.69,0l-59.27-34.13c-.92-.53-.92-1.87,0-2.4l58.6-33.83Z"/></g><g class="da"><path class="cy" d="M101.21,132.15c3.05-1.76,6.8-1.76,9.85,0l58.69,33.81c.92,.53,.92,1.87,0,2.4l-59.18,34.17c-2.69,1.55-6,1.55-8.69,0l-59.27-34.13c-.92-.53-.92-1.87,0-2.4l58.6-33.83Z"/></g><g class="da"><path class="dw" d="M101.21,122.27c3.05-1.76,6.8-1.76,9.85,0l58.69,33.81c.92,.53,.92,1.87,0,2.4l-59.18,34.17c-2.69,1.55-6,1.55-8.69,0l-59.27-34.13c-.92-.53-.92-1.87,0-2.4l58.6-33.83Z"/></g><g class="da"><path class="eb" d="M101.21,112.38c3.05-1.76,6.8-1.76,9.85,0l58.69,33.81c.92,.53,.92,1.87,0,2.4l-59.18,34.17c-2.69,1.55-6,1.55-8.69,0l-59.27-34.13c-.92-.53-.92-1.87,0-2.4l58.6-33.83Z"/></g><path class="cf" d="M42.61,146.21l58.6-33.83c3.05-1.76,6.8-1.76,9.85,0l58.69,33.81c.46,.27,.69,.73,.69,1.2v29.66c0,.47-.23,.93-.69,1.2l-59.18,34.17c-2.69,1.55-6,1.55-8.69,0l-59.27-34.13c-.46-.27-.69-.73-.69-1.2v-29.66h0c0-.47,.23-.93,.69-1.2Z"/><g class="da"><path class="ec" d="M101.21,112.38c3.05-1.76,6.8-1.76,9.85,0l58.69,33.81c.92,.53,.92,1.87,0,2.4l-59.18,34.17c-2.69,1.55-6,1.55-8.69,0l-59.27-34.13c-.92-.53-.92-1.87,0-2.4l58.6-33.83Z"/></g><path class="cl" d="M42.61,147.25l59.27,34.13c2.69,1.55,6,1.55,8.69,0l59.18-34.17c.23-.13,.4-.31,.51-.52,.35,.63,.18,1.48-.51,1.88l-59.18,34.17c-2.69,1.55-6,1.55-8.69,0l-59.27-34.13c-.7-.4-.87-1.26-.51-1.88,.12,.21,.29,.39,.51,.52Z"/></g></g><g><g><polygon class="dl" points="163.54 157.69 162.08 158.54 162.08 157.56 163.54 156.72 163.54 157.69"/><polygon class="dl" points="163.54 164.3 162.08 165.15 162.08 159.43 163.54 158.59 163.54 164.3"/><polygon class="dl" points="163.54 167.47 162.08 168.31 162.08 166.04 163.54 165.2 163.54 167.47"/><polygon class="dl" points="163.54 170.74 162.08 171.58 162.08 169.31 163.54 168.47 163.54 170.74"/><polygon class="dl" points="165.71 159.6 164.25 160.44 164.25 158.17 165.71 157.33 165.71 159.6"/><polygon class="dl" points="165.71 163.94 164.25 164.78 164.25 161.45 165.71 160.61 165.71 163.94"/><polygon class="dl" points="165.71 167.94 164.25 168.78 164.25 165.92 165.71 165.08 165.71 167.94"/><polygon class="dl" points="163.54 174.02 162.08 174.86 162.08 172.59 163.54 171.75 163.54 174.02"/><polygon class="dl" points="165.71 156.44 164.25 157.28 164.25 156.3 165.71 155.46 165.71 156.44"/></g><polygon class="dl" points="164.62 176.57 162.08 178.04 162.08 177.09 164.62 175.62 164.62 176.57"/></g></g><ellipse class="co" cx="106.17" cy="147.49" rx="31.51" ry="18.19"/><g><g><path class="ck" d="M106.01,132.49l-.06,.28-.09-.19s-.43,1.47-.06,2.2c.37,.73,.91,1.64,1.69,2.66,.78,1.03,2.03,3.16,2.35,3.57,.33,.41,2.23,2,4.61,2.25,2.38,.25,2.99-1.12,2.79-1.85s-1.48-2.69-2.87-4.28c-1.39-1.59-2.46-3.64-2.46-3.64l-5.91-1Z"/><path class="ck" d="M113.16,126.03s-.07,1.53,.09,2.15c.16,.63,3.65,.82,4.9,.98,1.24,.16,3.41,1.05,4.08,1.38,.68,.33,5.22,.81,5.77-.86,.55-1.67-2.28-3.08-4.2-3.52-1.92-.44-5.06-1.4-5.06-1.4l-5.59,1.27Z"/><path class="cj" d="M101.04,95.82s-.12,4.28,1.3,10.19c1.43,5.91,1.26,10.04,1.26,10.04,0,0-1.49,6.69-.18,11.25,1.31,4.56,2.43,5.84,2.43,5.84,0,0,2.62,3.48,6.07,.36,0,0-1.94-6.27-2.17-11.25,0,0,1.71-3.66,2.3-6.93,0,0,.49,5.2,.79,7.3,0,0-.3,3.08,.52,4.33,.82,1.25,4.53,1.61,5.71-.56,1.18-2.17-.98-1.11-.33-11.07,0,0,3.41-4.25,3.9-12.08,.49-7.83,.44-10.93,0-12.45-.44-1.53-8.01-7.02-8.01-7.02l-4.27,5.45-9.33,6.62Z"/><g><path class="dv" d="M112.24,117.23c.21-.72,.4-1.46,.53-2.18,0,0,.49,5.2,.79,7.3,0,0-.3,3.08,.52,4.33,.53,.8,2.25,1.23,3.73,.86-1.58,.76-3.82,.32-4.44-.61-.82-1.25-.52-4.33-.52-4.33-.18-1.27-.43-3.67-.6-5.37Z"/><path class="bg" d="M101.04,95.82l9.33-6.62,4.27-5.45s.12,.09,.33,.24l-3.88,4.95-9.33,6.62s-.12,4.28,1.3,10.19c1.43,5.91,1.26,10.04,1.26,10.04,0,0-1.49,6.69-.18,11.25,1.31,4.56,2.43,5.84,2.43,5.84,0,0,1.61,2.12,3.96,1.55-2.74,1.26-4.68-1.3-4.68-1.3,0,0-1.12-1.28-2.43-5.84-1.31-4.56,.18-11.25,.18-11.25,0,0,.17-4.13-1.26-10.04-1.43-5.91-1.3-10.19-1.3-10.19Z"/></g><path class="ck" d="M117.87,104.55c1.23-1.48,1.92-6.1,1.92-6.1,0,0-1.92,3.89-3.3,5.02-1.38,1.13-2.56,3.4-2.81,4.87-.25,1.48-1.64,6.96-1.64,6.96,0,0,.49,5.2,.79,7.3,0,0-.3,3.08,.52,4.33,.17,.25,.45,.46,.81,.63,0-.06-.21-6.88,0-9.77,.21-2.9,2.47-11.76,3.7-13.24Z"/><path class="cm" d="M89.68,64.25s-3.26,6.37-3.59,6.86c-.33,.49-6.43,8.27-7.02,12.76,0,0-.46,1.74,1.64,3.28,2.1,1.54,12.7,8.27,13.35,8.37s4.5-1.77,4.66-5.97c0,0-8.3-3.87-10.11-5.81,0,0,3.23-5.43,4.82-7.03,.4-.4,.63-1.13,.76-2.01,.52-3.57-.88-7.15-3.54-9.58l-.97-.88Z"/><path class="cj" d="M114.06,49.33s5.04,1.87,6.77,1.23c1.72-.64,5.96-1.18,8.86-2.81,2.9-1.62,15.59-4.9,17.46-5.01,0,0,.03,.07-.28,.21-.31,.13-1.62,.25-1.97,1.72-.35,1.48,.43,3.25,.64,3.37,.21,.12,.34-.4,1.55-.96,1.21-.56,1.96-.52,1.96-.52l.46,.58,.28,.43s-.6,1.79-2.22,1.91c-1.62,.12-12.06,4.48-12.71,4.68-.66,.2-9.42,3.97-11.06,4.56-1.64,.59-2.92,1.34-2.92,1.34,0,0-5.12-3.41-5.28-3.41s-1.53-7.32-1.53-7.32Z"/><path class="dt" d="M160.07,39.49c-.39-.43-5.15,.94-5.15,.94,0,0-.8-.26-1.59-.23-.79,.03-2.92,1.67-3.67,2.03-.75,.36-2.5,.52-2.5,.52-4.21,.87-1.85,5.49-1.68,5.42,.17-.07,1.32-.84,1.68-1.03,.36-.19,1.01-.29,1.01-.29,.19,.11,1.05,.53,1.63,.71,.58,.18,2.01-.03,2.63-.43,.62-.4,2.51-.57,2.6-.52,.09,.06,.39,.21,.39,.21,0,0,.11,.48,.49,.59,.38,.11,.79-.8,.95-.9,.16-.1,.71-.46,.8-.62,.1-.16,.41-2.84,.31-3.31-.1-.48-1.15-1.02-1.15-1.02,0,0,2.64-.89,2.85-.94,.21-.05,.79-.71,.39-1.13Zm-4.69,4.91c-.24,.09-.55,.07-.9,.24-.35,.17-.77,.34-1.13,.31,0,0-.49-.8-.12-1.07,.37-.27,.66-.52,.66-.52,0,0,.65-.12,.65-.21,0,0,.36,.3,.73,.06,0,0,.4,.59,.96,.58,0,0-.62,.52-.86,.61Z"/><path class="ck" d="M122.65,90.77c-.44-1.53-8.01-7.02-8.01-7.02l-2.12,2.71-1.82,7.07-9.66,3.01h0s.51,4.83,8.38,4.28c7.87-.56,8.79-6.66,8.79-6.66,0,0,.87,2,4.75,2.53,.09-3.23-.03-4.91-.32-5.91Z"/><path class="ct" d="M99.25,53.3l-1.33,3.41s-6.4,5.54-8.24,7.54c0,0,3.16,6.07,3.75,12.47,0,0,2.93,2.39,3.81,3.49,.89,1.1,3.13,6.19,3.84,7.86s-1.28,6.72-1.28,6.72c0,0,2.72,5.03,7.1,4.86,4.38-.16,7.37-2.84,7.92-7.6,.56-4.76,.39-5.45,.39-5.45,0,0,1.97,5.84,4.95,5.84s7.73-5.07,7.73-5.07c0,0,3.2-2.9,2.9-4.22-.3-1.31-7.53-12.67-7.92-14.54-.39-1.87-2.02-8.56-2.02-8.56l-6.82-10.73-4.16,.2-10.65,3.77Z"/><path class="cu" d="M107.1,98.44c4.19-.16,7.08-2.63,7.81-7.01-.02,.2-.05,.4-.07,.62-.56,4.76-3.54,7.43-7.92,7.6-4.38,.16-7.1-4.86-7.1-4.86,0,0,.14-.37,.34-.93,.63,1.03,3.17,4.74,6.94,4.59Z"/><path class="e`" d="M99.25,53.3s-.03,2.03,.77,4.05c.8,2.02,3.43,13.39,9.38,17.27l2.29,1.45v-7.23s-.04-4.45-1.06-7.28c-1.02-2.82-.98-6.27-.98-6.27,0,0-1.67-.46-1.67-.43,0,.03-8.73-1.58-8.73-1.58Z"/><path class="dt" d="M106.59,58.58s1.06,.43,1.51-.26c.46-.69,.92-2.08,.8-2.72,0,0,2.82,.14,3.38-1.34,.56-1.48-.05-1.86-.14-2.32-.09-.46-.17-1.67-.55-2.54l-.04-.38s.57-.49,.31-1.01c-.26-.52-1.8-2.12-1.96-2.4-.16-.27,.04-2.26-.56-3.26-.6-.99-1.76-2.37-1.76-2.37,0,0-6-4.68-10.73,0-4.72,4.68,2.4,13.3,2.4,13.3,0,0,.57,2.78,1.95,3.89,1.38,1.11,5.39,1.39,5.39,1.39Z"/><path class="dn" d="M102.2,47.18c0-.17-.02-.35-.07-.51-.18-.51-.48-1.9,.97-2.95,1.8-1.31,4.99-2.49,4.89-3.81-.1-1.31-5.12-4.56-8.83-2.82-3.71,1.74-7.19,6.14-4.66,10.79,2.53,4.66,4.76,5.41,4.76,5.41,0,0,.75-.16,.08-.93-.68-.78-1.91-2.73-.89-3.35,1.02-.62,2.79,.71,3.03,1.01,.09,.11,.18,.26,.26,.39,.13,.22,.41,.31,.64,.2l.09-.04c.23-.11,.35-.38,.26-.62l-.44-1.21c-.07-.18-.1-.37-.09-.56l.02-1.01Z"/><path class="ef" d="M106.44,59.9s-1.34,.95-2.12,2.77c0,0,1.43-1.48,2.24-1.77,0,0,1.57,.74,1.57,1.23s.15,3.44,.52,5.03c.37,1.59,.33,7.17,.33,7.17l1,.66,.47-2.45-.18-5.22-.93-4.75s-.17-1.8-.25-1.89c-.07-.1-2.65-.78-2.65-.78Z"/><path class="cj" d="M106.44,59.9s1.53-1.62,2.3-1.66c.77-.03,1.18,.38,1.2,.48s.74,2.64,.74,2.64c0,0,1.44,4.43,1.29,9.6-.15,5.17-.27,5.13-.27,5.13l-1.89-1.2s.51-3.7-.52-7.98c-1.03-4.28-.12-4.92-.62-5.36-.49-.44-2.47-1.12-2.23-1.64Z"/><path class="cj" d="M97.25,80.21c.89,1.1,3.08,6.18,3.79,7.85,.12,.27,.21,.64,.2,1.05,.18,.12,.29,.19,.29,.19l.96-.94s-.86-3.1-2.24-6.94c-1.38-3.84-6.82-4.7-6.82-4.7,0,0,2.93,2.39,3.81,3.49Z"/><path class="dt" d="M98.73,89.69s1.56-2.26,2.05-2.56c0,0-.11,.64,.77,1.03,.89,.39,5.52,2.19,5.68,2.4,.16,.21-.01,.47-.31,.53,0,0,.96,.33,1.35,.32,.39,0,.92,.49,.66,.92-.26,.43-.48,.39-.48,.39,0,0,.11,.48-.17,.58-.29,.11-.98,.12-.98,.12,0,0,.14,.48-.25,.66-.39,.19-2.26,.39-2.26,.39,0,0-1.47-.16-1.89-.16-.42,0-2.33,.46-3.14,.34-.81-.11-3.49-1.07-3.76-1.23-.27-.16,2.73-3.75,2.73-3.75Z"/><path class="cj" d="M97.62,57.82l.2,3.05,1.65,.52-1.11,.91s4.47,10.16,10.18,13.38c0,0-5.45-1.94-10.6-13.29,0,0,.54-.64,.71-.82l-1.15-.51,.12-3.24Z"/><path class="cj" d="M112.21,57.5s2.02,10.37,.3,18.18c0,0,2.07-3.76,.2-18.18h-.5Z"/><path class="cs" d="M157.86,42.35c-.29-.41-1.04-.79-1.04-.79,0,0-2.16,.88-2.53,1.05,0,0,2.21-.23,3.57-.26Z"/><path class="cs" d="M145.47,48.17c.09-.03,.43-.25,.8-.48h0c-1.43-1.93,.14-4.71,.15-4.72-3.17,1.23-1.1,5.27-.94,5.21Z"/><path class="cs" d="M96,93.44c.2,.12,1.73,.67,2.84,1,0,0,.72-2.8,.55-3.74-.16-.94-.55-1.16-.55-1.16-.06,.09-.11,.15-.11,.15,0,0-3,3.59-2.73,3.75Z"/><path class="cm" d="M98.73,89.56s.48,1.62-.62,2.88c-1.1,1.25-1.22,1.42-1.22,1.42h-1.26s-.65-1.98-.55-2.03c.1-.05,3.64-2.26,3.64-2.26Z"/><path class="cj" d="M110.44,60.53h0s1.21,7.11,.94,9.72c-.27,2.61-.17,5.43-.17,5.43l.38,.33,.11,.07s.12,.04,.27-5.13c.15-5.17-1.29-9.6-1.29-9.6,0,0-.1-.36-.23-.82Z"/><path class="ck" d="M110.83,134.28c.35-.2,.71-.45,1.08-.79,0,0-1.94-6.27-2.17-11.25,0,0,1.71-3.66,2.3-6.93-.16,.65-2.15,4.16-3.05,7.75-.9,3.59,1.83,11.22,1.83,11.22Z"/><g><path class="cs" d="M102.03,52.15v0Z"/><path class="cs" d="M102.03,52.15c.04,.18,.55,2.71,1.57,3.9,1.06,1.23,1.87,2.42,1.87,2.42,.66,.09,1.12,.12,1.12,.12,0,0,1.06,.43,1.51-.26,.46-.69,.92-2.08,.8-2.72,0,0-3.8-.39-5.25-1.4-1.35-.94-1.59-1.91-1.62-2.05Z"/></g><path class="dd" d="M100.66,87.15s.2,.43,.24,.47c.04,.03,.09-.33,.09-.33,0,0-.17-.35-.18-.35s-.15,.22-.15,.22Z"/><path class="cj" d="M111.7,76.08s2.65,8.47,3.54,10.52l-.05,2.04s-3.38-10.52-3.48-12.56Z"/><path class="cj" d="M114.26,79.1c.15,.49-.1,1.01-.56,1.15-.46,.14-.95-.15-1.1-.64-.15-.49,.1-1.01,.56-1.15,.46-.14,.95,.15,1.1,.64Z"/><path class="cj" d="M115.6,82.75c.15,.49-.1,1.01-.56,1.15-.46,.14-.95-.15-1.1-.64-.15-.49,.1-1.01,.56-1.15,.46-.14,.95,.15,1.1,.64Z"/></g><path class="d`" d="M102.27,48.75c-.07-.18-.1-.37-.09-.56l.02-1.01c0-.17-.02-.35-.07-.51-.05-.15-.11-.37-.14-.63,0,0-4.13,3.01-6.75,3.13,2.2,3.52,4.01,4.14,4.01,4.14,0,0,.75-.16,.08-.93-.68-.78-1.91-2.73-.89-3.35,1.02-.62,2.79,.71,3.03,1.01,.09,.11,.18,.26,.26,.39,.13,.22,.41,.31,.64,.2l.09-.04c.23-.11,.35-.38,.26-.62l-.44-1.21Z"/></g><g><g><path class="ck" d="M94.46,159.55s1.86,.46,3.67,.53c1.81,.07,6.71,1.06,6.59,2.89-.12,1.84-2.69,4.48-5.9,4.87-3.22,.39-7.35-.53-9.45-.48-2.1,.06-3.54-2.09-2.71-4.14,.82-2.04,7.81-3.68,7.81-3.68Z"/><path class="ck" d="M83.62,154.62s-.69,1.11-.35,1.79c.34,.68,1.24,2.37,4.18,.73,2.92-1.63,8.57-3.96,8.57-3.96,0,0,3.24-1.72,3.06-3.75-.18-2.02-3.16-1.72-3.16-1.72l-12.3,6.91Z"/><path class="cj" d="M102.7,125.8s-1.25,13.2-3.9,18.2c-2.7,5.08-3.44,14.4-4,16.17-.57,1.79-2.31,4.36-5.06,4.9-2.76,.55-3.21-1.33-3.07-2.45,.14-1.12,.9-2.93,.91-4.15,.01-1.21-.27-1.78-.31-2.34,0,0-3.15,.93-3.63-1.51,0,0,.26-.71,.3-1.07,.04-.36-.27-9.2-.35-10.27-.08-1.07,.5-6.84,1.38-9.69,.87-2.82,.58-8.82,.58-8.82l8.97-1.25,8.19,2.29Z"/><path class="cw" d="M84.95,133.59c.87-2.82,.58-8.82,.58-8.82l.78-.11c.03,.83,.22,6.1-.57,8.69-.87,2.84-1.44,8.62-1.36,9.68,.08,1.07,.4,9.9,.36,10.26-.04,.36-.3,1.07-.3,1.07,.48,2.44,3.63,1.51,3.63,1.51,.04,.56,.33,1.12,.32,2.33,0,1.22-.77,3.03-.9,4.15-.13,1.12,.32,3,3.07,2.45,.09-.02,.16-.05,.25-.07-.34,.14-.7,.26-1.07,.34-2.76,.55-3.21-1.33-3.07-2.45,.14-1.12,.9-2.93,.91-4.15,.01-1.21-.27-1.89-.32-2.45,0,0-3.15,1.04-3.63-1.4,0,0,.26-.71,.3-1.07,.04-.36-.27-9.2-.35-10.27-.08-1.07,.5-6.84,1.38-9.69Z"/><path class="ck" d="M88.19,125.72s.04,2.06,.9,3.79c0,0-.02,7.01,.7,10.57,0,0-1.16,7.13-1.89,9.38-.74,2.26-.64,6.68-.64,6.68,0,0-.36,.13-.87,.15-.51,.02-.55-8.72,.24-10.26,.79-1.53,1.38-8.35,1.09-10.42-.29-2.06-.19-7.96-.58-9.01-.39-1.04,.49-1.59,.49-1.59l.58,.71Z"/><path class="ck" d="M95.74,78.11s2.61,1.89,2.48,5.14l-1.94-.42s.58-3.61-.54-4.73Z"/><path class="ck" d="M94.73,128.6c-5.95,.18-9.16-2.45-9.16-2.45-.01-.83-.04-1.38-.04-1.38l8.97-1.25,8.19,2.29s-.25,2.6-.75,5.93c-1.46,.16-2.89-3.43-2.89-3.43l-4.08,.26s5.7-.15-.24,.03Z"/><path class="ct" d="M101.55,126s-12.93,5.28-19.19-4.74c-.18-.28-.26-.63-.25-.98l.08-2.33c.01-.3-.03-.59-.13-.87h0c-.2-.59-.25-1.24-.13-1.86,.48-2.61,1.8-9.7,2.1-11.67,.37-2.4-.9-12.01-3.04-16.17-2.11-4.1,3.32-13.32,3.32-13.32,0,0,1.33-2.15,3.94-1.42,0,0-2.49,1.74-1.13,3.58,1.37,1.85,5.46,3.33,5.46,3.33,0,0,7.56,3.92,10.15,8.7,0,0,.89,2.48,.97,5.62,.08,3.17-.27,10.79-.14,11.85,.13,1.06,.53,8.32,.49,8.66-.04,.34-2.51,11.62-2.51,11.62Z"/><g><path class="dy" d="M87.04,73.97c-.21-.52-.14-1.02,.05-1.46,.36-.01,.74,.01,1.17,.13,0,0-.77,.54-1.22,1.33Z"/><path class="cj" d="M97.63,127.07s-7.62-20.57-7.25-28.03c.35-7.28,11.12,14.75,11.12,14.75l.06,12.21s-2.44,.9-3.92,1.08Z"/><path class="ds" d="M82.28,115.06c.09,.27,.14,.56,.12,.86l-.08,2.32c-.01,.35,.07,.7,.25,.98,6.23,9.95,19.12,4.7,19.12,4.7,0,0,1.77-8.09,2.33-10.71,.03,.64,.04,1.09,.03,1.16-.04,.34-2.51,11.62-2.51,11.62,0,0-12.93,5.28-19.19-4.74-.18-.28-.26-.63-.25-.98l.08-2.33c.01-.3-.03-.59-.13-.87-.2-.59-.25-1.24-.13-1.86,.05-.27,.11-.6,.18-.96,.03,.28,.07,.55,.16,.81Z"/><path class="cp" d="M81.2,85.56c2.14,4.13,3.41,13.68,3.04,16.06-.03,.22-.08,.51-.14,.84,.01-3.44-1.2-11.4-3.1-15.09-.59-1.15-.58-2.72-.27-4.36-.02,.95,.1,1.83,.47,2.54Z"/></g><path class="cm" d="M101.74,102.78c-.28-1.68-.44-3.36-.46-5.04-.03-2.93-.86-7.78-6.15-6.94-7.48,1.19-4.28,11.67-3.46,13.5,.83,1.84,4.1,10.14,4.27,10.62,.16,.44,5.34,10.81,7.18,13.29,.17,.23,.47,.26,.67,.08,.75-.64,2.43-2.16,2.65-3.12,.28-1.24-.8-5.72-.8-5.72,0,0-2.91-11.2-3.16-11.73-.18-.39-.31-2.23-.76-4.95Z"/><path class="dt" d="M95.62,78.34s.59-1.35,1.97-1.49c1.37-.14,2.15-.52,2.29-1.03,.14-.51,.14-1.12,.48-1.88,.33-.75,.61-2.61,.61-2.65,0-.04,1.04-.36,1.09-.82,.05-.46-.49-2.1-.43-2.22,.06-.13,.62-1.13,.54-1.91-.08-.78-.18-1.91-.59-2.86-.41-.95-3.32-6.76-10.89-3.77-7.65,3.02-1.83,9.44-2.59,13.6,0,0-.68,.88,.57,2.37,1.25,1.5,4.87,1.82,6.96,2.67Z"/><path class="cs" d="M88.65,75.68c-1.25-1.49-.57-2.37-.57-2.37,.11-.58,.08-1.2-.02-1.85l2.99,.57s4.42-3.93,4.11-1.83c-.32,2.12,.76,2.49,.76,2.49l-.91,1.15c-.23,.3-.09,.64,.09,.97,1.26,2.17,4.33,1.52,4.33,1.52-.38,.25-1.01,.43-1.87,.52-1.37,.14-1.97,1.49-1.97,1.49-2.09-.85-5.71-1.17-6.96-2.67Z"/><g><path class="dn" d="M101.89,61.27s.53,1.55-.33,2.21c-.86,.65-1.63,1.27-1.63,1.27v1.97c0,.28-.08,.56-.23,.8l-1.08,1.66c-.21,.32-.32,.7-.32,1.08v.81c0,.24-.18,.43-.41,.46l-.28,.03c-.25,.03-.47-.16-.5-.41l-.12-1.12s-.57-.9-1.81,.17l-1.12,.46c-.31,.13-.56,.38-.67,.71-.31,.86-.98,2.56-1.48,2.84-.68,.38-3.29-.97-3.64-1.57-.35-.6-1.23-4.59-1.78-6.49-.54-1.89-.22-6.56,5.41-7.76,5.61-1.19,9.23,1.19,10,2.88Z"/><path class="d`" d="M88.26,72.64c-.35-.6-1.23-4.59-1.78-6.49,0,0,2.18,1.45,5.01,1.88,2.83,.43,8.44-2.76,8.44-2.76v1.44c0,.28-.08,.56-.23,.8l-1.08,1.66c-.21,.32-.32,.7-.32,1.08v.81c0,.24-.18,.43-.41,.46l-.28,.03c-.25,.03-.47-.16-.5-.41l-.12-1.12s-.57-.9-1.81,.17l-1.61,.66s-.98,2.96-1.66,3.34c-.68,.38-3.29-.97-3.64-1.57Z"/></g><path class="e`" d="M88.14,72.83s-2.19,1.35-1.1,3.26c1.1,1.93,9.04,5.35,9.44,5.86,0,0,.31-2.87-.74-3.84,0,0-6.08-1.19-7.03-2.74-.94-1.54-.57-2.54-.57-2.54Z"/><path class="ef" d="M88.14,72.83s-.37,1,.57,2.54c.71,1.18,4.37,2.14,6.11,2.54h0s-.65,.37-1.73,2.21c-2.44-1.27-5.41-2.9-6.05-4.02-1.09-1.92,1.1-3.26,1.1-3.26Z"/><path class="cj" d="M86.66,78.96s3.54,2.03,5.26,2.94c1.73,.92,3.62,2.14,3.62,2.14l.66-.66,.79,1.75s2.72,1.63,3.99,2.99c1.28,1.37,2.24,3.15,2.38,3.56,0,0-3.39-4.45-6.07-5.77l-.72-.36-.41-1.38-.66,.69s-7.78-4.69-8.85-5.9Z"/></g><g><path class="cx" d="M95.79,139.01h0c.11-.32,.28-.6,.47-.76l14.56-12.22c.38-.32,.75-.08,.83,.55l1.7,14.23c.08,.66-.18,1.46-.57,1.8l-12.23,10.57,.42,4.11-3.66-1.68h0c-.16-.11-.29-.35-.32-.7l-1.36-14.87c-.03-.33,.03-.7,.14-1.03Z"/><path class="ct" d="M114.79,127.42l-3.44-1.49-.11-.05c-.13-.03-.27,.01-.41,.13l-14.56,12.22c-.2,.16-.36,.44-.47,.76l.52,.25h0l2.96,1.43,12.76-10.91h0l2.75-2.35Z"/><path class="cj" d="M116.37,144.2l-14.89,12.97c-.41,.36-.79,.08-.86-.61l-1.45-14.95c-.06-.66,.21-1.46,.61-1.8l14.53-12.28c.38-.32,.76-.08,.83,.55l1.79,14.3c.08,.66-.17,1.47-.56,1.81Z"/><path class="ck" d="M98.77,155.69l-1.4-14.91c-.06-.65,.21-1.46,.61-1.79l14.54-12.25c.12-.1,.24-.14,.34-.14-.14-.06-.3-.02-.47,.11l-14.54,12.25c-.4,.34-.67,1.14-.61,1.79l1.4,14.91c.04,.47,.23,.77,.48,.78-.19-.08-.32-.36-.35-.75Z"/><g><g><path class="ck" d="M104.1,133.74l-.76-.38c-.17-.09-.34-.12-.47-.08h-.06c-.08,.03-.12,.11-.1,.23v.14l2.16,1.07v-.14c-.03-.12-.09-.25-.18-.35l-.07-.08c-.16-.18-.34-.32-.51-.41Z"/><polygon class="ck" points="103.83 135.58 104.86 134.71 102.74 133.33 101.72 134.18 103.83 135.58"/><path class="du" d="M103.07,134.6l-.76-.38c-.17-.09-.34-.12-.47-.09h-.06c-.08,.03-.12,.11-.1,.23v.14l2.16,1.07v-.14c-.03-.12-.09-.25-.18-.35l-.07-.08c-.16-.18-.34-.32-.51-.41Z"/><polygon class="eg" points="102.62 134.97 102.55 134.34 102.62 134.38 102.68 135 102.62 134.97"/><polygon class="eg" points="102.55 134.34 103.61 133.49 103.67 133.52 102.62 134.38 102.55 134.34"/></g><g><path class="ck" d="M108.73,129.85l-.76-.38c-.17-.08-.33-.11-.47-.08h-.06c-.08,.03-.11,.11-.1,.23l.02,.14,2.14,1.06-.02-.14c-.01-.11-.08-.25-.16-.34l-.07-.08c-.16-.18-.34-.32-.51-.4Z"/><polygon class="ck" points="108.47 131.67 109.49 130.81 107.37 129.45 106.36 130.29 108.47 131.67"/><path class="dg" d="M107.71,130.7l-.76-.38c-.17-.09-.33-.11-.47-.08h-.06c-.08,.03-.11,.11-.1,.23l.02,.14,2.14,1.06-.02-.14c-.01-.12-.08-.25-.16-.34l-.07-.08c-.16-.18-.34-.32-.51-.4Z"/><polygon class="eg" points="107.26 131.07 107.19 130.45 107.26 130.48 107.33 131.1 107.26 131.07"/><polygon class="eg" points="107.19 130.45 108.24 129.61 108.29 129.63 107.26 130.48 107.19 130.45"/></g><g><path class="ct" d="M102.14,131.36l.27,2.65,.69-.58-.27-2.58c-.04-.38,.15-.86,.41-1.08l2.96-2.48c.26-.22,.51-.1,.55,.27l.28,2.55,.68-.57-.29-2.62c-.09-.82-.64-1.09-1.22-.6l-3.16,2.64c-.59,.49-1,1.56-.91,2.39Z"/><path class="ct" d="M107.25,127.12l-1.22-.12-3.53,3.29-.15,2.03,.07,1.7,.79,.4,.02-2.12,.04-1.45,.73-1.05s1.32-1.07,1.34-1.1c.01-.03,1.91-1.58,1.91-1.58Z"/><polygon class="ct" points="107.84 130.51 107.05 130.12 106.84 128.24 107.59 128.3 107.82 128.34 107.84 130.51"/><path class="ct" d="M107.81,126.54l-.85-.42,.23,.46s.28,.1,.28,.1c0,0,.34-.14,.34-.14Z"/><path class="ck" d="M102.93,131.75l.28,2.66,.69-.58-.27-2.58c-.04-.38,.14-.86,.41-1.09l2.96-2.48c.26-.22,.51-.1,.55,.27l.29,2.55,.68-.57-.3-2.62c-.09-.82-.64-1.09-1.22-.6l-3.16,2.64c-.59,.49-1,1.56-.91,2.4Z"/></g></g></g><path class="dt" d="M106.24,125.06s.5,2.6,.36,3.25c-.14,.65-1.38,1.91-2.13,2.14-.75,.23-.44-.66-.61-1.22-.17-.56-.14-1.78-.14-1.78l2.52-2.39Z"/><path class="cs" d="M103.72,127.45l2.52-2.39s.1,.53,.2,1.17c0,0-.94,1.93-2.65,2.69-.1-.61-.08-1.48-.08-1.48Z"/><path class="cm" d="M106.43,125.26s-.89,2.79-3.13,3.06l.76-3.06s1.89-.53,1.95-.54c.06,0,.42,.54,.42,.54Z"/><path class="dx" d="M91.85,92.44c-2.08,6.32,3.12,16.15,3.87,19.02,.76,2.9,8.66,16.31,8.66,16.32h0l.07,.14c-.17,.13-.36,.27-.52,.35-.21,.08-.12,.07-.36,.13h0c-.17,.03-.34-.03-.46-.19-1.85-2.49-7.02-12.85-7.18-13.29-.17-.47-3.45-8.77-4.27-10.62-.66-1.47-2.85-8.54,.18-11.86Z"/></g><g><g><path class="ee" d="M174.38,152.79l-32.64-18.85c-.56-.32-.88-.77-.88-1.23,0-.4,.23-.75,.66-1l33.09-19.1c.87-.51,2.34-.45,3.34,.13l32.64,18.85c.56,.32,.88,.77,.88,1.23,0,.4-.23,.75-.66,1l-33.09,19.1c-.4,.23-.92,.34-1.47,.34-.65,0-1.33-.16-1.87-.47Zm36.17-19.42c.18-.11,.41-.29,.41-.55,0-.27-.23-.56-.63-.79l-32.64-18.85c-.83-.48-2.12-.53-2.83-.13l-33.09,19.1c-.18,.11-.41,.29-.41,.55,0,.27,.23,.56,.63,.79l32.64,18.85c.83,.48,2.12,.54,2.83,.13l33.09-19.1Z"/><g><g><polygon class="df" points="141.1 118.78 141.1 122.85 176.24 143.13 211.38 122.84 211.38 118.78 141.1 118.78"/><polygon class="bf" points="176.24 139.07 211.38 118.78 176.24 98.5 141.1 118.78 176.24 139.07"/><polygon class="ci" points="176.24 138.6 210.97 118.55 211.38 118.78 176.24 139.07 141.1 118.78 141.51 118.55 176.24 138.6"/></g><g><polygon class="cn" points="176.24 134.39 203.27 118.79 176.24 103.19 149.22 118.79 176.24 134.39"/><g><polygon class="bl" points="176.24 134.39 203.27 118.79 176.24 103.19 149.22 118.79 176.24 134.39"/><g><polygon class="bh" points="176.24 99.25 149.22 114.85 149.22 118.79 176.24 103.19 176.24 99.25"/><polygon class="bt" points="176.24 103.19 203.27 118.79 203.27 114.85 176.24 99.25 176.24 103.19"/><polygon class="bp" points="176.24 130.46 203.27 114.85 176.24 99.25 149.22 114.85 176.24 130.46"/><polygon class="ce" points="176.24 121.09 187.04 114.85 176.24 108.62 165.44 114.85 176.24 121.09"/><polygon class="ce" points="176.24 109.19 165.94 115.14 165.44 114.85 176.24 108.62 187.04 114.85 186.55 115.14 176.24 109.19"/><polygon class="bm" points="176.24 130.46 176.24 134.39 149.22 118.79 149.22 114.85 176.24 130.46"/></g><polygon class="cb" points="203.27 114.85 203.27 118.79 176.24 134.39 176.24 130.46 203.27 114.85"/></g><polygon class="dj" points="176.24 130.03 202.9 114.64 203.27 114.85 176.24 130.46 149.22 114.85 149.59 114.64 176.24 130.03"/></g></g></g><g><path class="ee" d="M174.38,244.96l-32.64-18.85c-.56-.32-.88-.77-.88-1.23,0-.4,.23-.75,.66-1l33.09-19.1c.87-.51,2.34-.45,3.34,.13l32.64,18.85c.56,.32,.88,.77,.88,1.23,0,.4-.23,.75-.66,1l-33.09,19.1c-.4,.23-.92,.34-1.47,.34-.65,0-1.33-.16-1.87-.47Zm36.17-19.42c.18-.11,.41-.29,.41-.55,0-.27-.23-.56-.63-.79l-32.64-18.85c-.83-.48-2.12-.53-2.83-.13l-33.09,19.1c-.18,.11-.41,.29-.41,.55,0,.27,.23,.56,.63,.79l32.64,18.85c.83,.48,2.12,.54,2.83,.13l33.09-19.1Z"/><g><g><polygon class="dh" points="141.1 210.95 141.1 215.01 176.24 235.3 211.38 215.01 211.38 210.95 141.1 210.95"/><polygon class="bf" points="176.24 231.24 211.38 210.95 176.24 190.66 141.1 210.95 176.24 231.24"/><polygon class="ci" points="176.24 230.77 210.97 210.71 211.38 210.95 176.24 231.24 141.1 210.95 141.51 210.72 176.24 230.77"/></g><g><polygon class="cn" points="176.24 226.56 203.27 210.96 176.24 195.35 149.22 210.96 176.24 226.56"/><g><polygon class="bo" points="176.24 226.56 203.27 210.96 176.24 195.35 149.22 210.96 176.24 226.56"/><g><polygon class="ch" points="176.24 191.42 149.22 207.02 149.22 210.96 176.24 195.35 176.24 191.42"/><polygon class="c`" points="176.24 195.35 203.27 210.96 203.27 207.02 176.24 191.42 176.24 195.35"/><polygon class="bx" points="176.24 222.63 203.27 207.02 176.24 191.42 149.22 207.02 176.24 222.63"/><polygon class="ce" points="176.24 213.26 187.04 207.02 176.24 200.79 165.44 207.02 176.24 213.26"/><polygon class="ce" points="176.24 201.36 165.94 207.31 165.44 207.02 176.24 200.79 187.04 207.02 186.55 207.31 176.24 201.36"/><polygon class="bs" points="176.24 222.63 176.24 226.56 149.22 210.96 149.22 207.02 176.24 222.63"/></g><polygon class="by" points="203.27 207.02 203.27 210.96 176.24 226.56 176.24 222.63 203.27 207.02"/></g><polygon class="dj" points="176.24 222.2 202.9 206.81 203.27 207.02 176.24 222.63 149.22 207.02 149.59 206.81 176.24 222.2"/></g></g></g><g><path class="ee" d="M33.53,152.79L.88,133.94C.32,133.62,0,133.17,0,132.71c0-.4,.23-.75,.66-1l33.09-19.1c.87-.51,2.34-.45,3.34,.13l32.64,18.85c.56,.32,.88,.77,.88,1.23,0,.4-.23,.75-.66,1l-33.09,19.1c-.4,.23-.92,.34-1.47,.34-.65,0-1.33-.16-1.87-.47Zm36.17-19.42c.18-.11,.41-.29,.41-.55,0-.27-.23-.56-.63-.79l-32.64-18.85c-.83-.48-2.12-.53-2.83-.13L.92,132.16c-.18,.11-.41,.29-.41,.55,0,.27,.23,.56,.63,.79l32.64,18.85c.83,.48,2.12,.54,2.83,.13l33.09-19.1Z"/><g><g><polygon class="do" points=".26 118.78 .26 122.85 35.39 143.13 70.53 122.84 70.53 118.78 .26 118.78"/><polygon class="bf" points="35.39 139.07 70.53 118.78 35.4 98.5 .26 118.78 35.39 139.07"/><polygon class="ci" points="35.39 138.6 70.12 118.55 70.53 118.78 35.39 139.07 .26 118.78 .67 118.55 35.39 138.6"/></g><g><polygon class="cn" points="35.39 134.39 62.42 118.79 35.4 103.19 8.37 118.79 35.39 134.39"/><g><polygon class="ca" points="35.39 134.39 62.42 118.79 35.4 103.19 8.37 118.79 35.39 134.39"/><g><polygon class="cg" points="35.4 99.25 8.37 114.85 8.37 118.79 35.4 103.18 35.4 99.25"/><polygon class="cc" points="35.39 103.18 62.42 118.79 62.42 114.85 35.4 99.25 35.39 103.18"/><polygon class="cd" points="35.39 130.46 62.42 114.85 35.4 99.25 8.37 114.85 35.39 130.46"/><polygon class="ce" points="35.39 121.09 46.19 114.85 35.39 108.62 24.6 114.85 35.39 121.09"/><polygon class="ce" points="35.39 109.19 25.09 115.14 24.6 114.85 35.39 108.62 46.19 114.85 45.7 115.14 35.39 109.19"/><polygon class="bv" points="35.39 130.46 35.39 134.39 8.37 118.79 8.37 114.85 35.39 130.46"/></g><polygon class="br" points="62.42 114.85 62.42 118.79 35.39 134.39 35.39 130.46 62.42 114.85"/></g><polygon class="dj" points="35.39 130.03 62.05 114.64 62.42 114.85 35.39 130.46 8.37 114.85 8.74 114.64 35.39 130.03"/></g></g></g><g><path class="ee" d="M33.53,244.96L.88,226.11C.32,225.79,0,225.34,0,224.88c0-.4,.23-.75,.66-1l33.09-19.1c.87-.51,2.34-.45,3.34,.13l32.64,18.85c.56,.32,.88,.77,.88,1.23,0,.4-.23,.75-.66,1l-33.09,19.1c-.4,.23-.92,.34-1.47,.34-.65,0-1.33-.16-1.87-.47Zm36.17-19.42c.18-.11,.41-.29,.41-.55,0-.27-.23-.56-.63-.79l-32.64-18.85c-.83-.48-2.12-.53-2.83-.13L.92,224.33c-.18,.11-.41,.29-.41,.55,0,.27,.23,.56,.63,.79l32.64,18.85c.83,.48,2.12,.54,2.83,.13l33.09-19.1Z"/><g><g><polygon class="ed" points=".26 210.95 .26 215.01 35.39 235.3 70.53 215.01 70.53 210.95 .26 210.95"/><polygon class="bf" points="35.39 231.24 70.53 210.95 35.4 190.66 .26 210.95 35.39 231.24"/><polygon class="ci" points="35.39 230.77 70.12 210.71 70.53 210.95 35.39 231.24 .26 210.95 .67 210.72 35.39 230.77"/></g><g><polygon class="cn" points="35.39 226.56 62.42 210.96 35.4 195.35 8.37 210.96 35.39 226.56"/><g><polygon class="bk" points="35.39 226.56 62.42 210.96 35.4 195.35 8.37 210.96 35.39 226.56"/><g><polygon class="bu" points="35.4 191.42 8.37 207.02 8.37 210.96 35.4 195.35 35.4 191.42"/><polygon class="bi" points="35.39 195.35 62.42 210.96 62.42 207.02 35.4 191.42 35.39 195.35"/><polygon class="bn" points="35.39 222.63 62.42 207.02 35.4 191.42 8.37 207.02 35.39 222.63"/><polygon class="ce" points="35.39 213.26 46.19 207.02 35.39 200.79 24.6 207.02 35.39 213.26"/><polygon class="ce" points="35.39 201.36 25.09 207.31 24.6 207.02 35.39 200.79 46.19 207.02 45.7 207.31 35.39 201.36"/><polygon class="bq" points="35.39 222.63 35.39 226.56 8.37 210.96 8.37 207.02 35.39 222.63"/></g><polygon class="bw" points="62.42 207.02 62.42 210.96 35.39 226.56 35.39 222.63 62.42 207.02"/></g><polygon class="dj" points="35.39 222.2 62.05 206.81 62.42 207.02 35.39 222.63 8.37 207.02 8.74 206.81 35.39 222.2"/></g></g></g></g></g><g class="bj"><g><path class="dk" d="M205.7,17.13c-5.32-1.84-9.72-1.89-14.72-.15,6.4,13.84,7.11,15.51,15.77,35.97,7.31-8.41,8-9.26,16.47-19.68-4.46-7.41-9-11.94-15.19-15.14,22.97,12.86,26.71,46.94,22.19,60.84-7.68,23.64-37.02,7.38-49.06-15.12-14.19-26.52,.26-54.03,24.54-46.72h0Zm1.7,.7c.18,.08,.37,.17,.55,.26-.18-.09-.37-.17-.55-.26h0Zm-1.24-.52c-.13-.05-.27-.11-.41-.16,.14,.05,.27,.1,.41,.16h0Zm.58,.24c.19,.08,.38,.16,.57,.25-.19-.08-.38-.17-.57-.25h0Zm0,0c-.15-.06-.31-.13-.46-.19,.16,.06,.31,.13,.46,.19h0Z"/><path class="dl" d="M246.75,43.22c-1.42-1.49-2.94-2.95-4.56-4.39V109.63c1.62,1.44,3.14,2.9,4.56,4.39V43.22h0Z"/><path class="dl" d="M254.02,77.34c-1-1.58-2.11-3.15-3.33-4.69v45.91c1.22,1.54,2.33,3.1,3.33,4.69v-45.91h0Z"/><path class="dk" d="M260.54,130.71v-4.73l-.16,.25,.09,4.65,.07-.16h0Zm0,13.69c0-.45,0-.91-.03-1.36-.12-3.23-.69-6.42-1.67-9.54V62.7c.98,3.12,1.54,6.31,1.67,9.54,.02,.45,.03,.91,.03,1.36v70.81h0Z"/><polygon class="dl" points="260.54 130.71 260.46 130.87 260.38 126.22 260.54 125.97 260.54 130.71 260.54 130.71"/><path class="dl" d="M207.95,18.09s.05,.03,.08,.04c-.03-.01-.05-.03-.08-.04h0Zm-2.19-.94s-.04-.02-.06-.02c.02,0,.04,.02,.06,.02h0Zm1.56,.64s.06,.03,.09,.04c-.03-.01-.06-.03-.09-.04h0Zm-1.03-.44l-.12-.05h.03v.02h.04v.02h.04Z"/><path class="dl" d="M206.75,17.54c-7.91-3.3-13.62-1.31-15.77-.56,9.05,19.95,10,22.03,15.77,35.97,8.92-10.37,10.29-11.97,16.47-19.68-1.75-2.91-7.07-11.75-16.47-15.72h0Z"/></g><g><path class="dk" d="M150.38,190.44c-25.61-8.06-53.44-19.01-62.64-23.03l2.23-3.61c24.87,10.72,34.96,16.07,60.37,24.58,2.09,.53,5.62,.85,7.83,.56,7.23-1.87,30.64-25.4,42.25-37.49,6.71-6.97,6.38-7.74,32.71,2.79,2.88,.68,5.05,1.26,17.41-24.97,2.69-6.16,3.38-5.85,9.99-3.3v4.73c-.52-.68,.22-1.83-5.39-3.41-1.18-.15-3.83,2.66-4.6,4.52-3.41,8.13-3.66,9.18-11.01,22.2q-4.01,6.06-29.03-3.87c-1.37-.37-3.8-1.74-7.77,1.59-13.42,11.27-25.13,25.08-38.5,36.41-1.71,1.31-6.38,5.73-13.67,3.57l-.19-1.27Zm-79.26,29.82c7.82,.44,15.8,.64,23.91,.57,92.02-.73,165.51-34.82,165.51-76.44V73.6c0,41.61-73.49,75.71-165.51,76.44-8.11,.06-16.09-.13-23.91-.57v70.81h0Z"/><path class="dl" d="M150.56,191.72c6.55,1.68,12.74,3.26,51.29-38.2q4.88-4.9,29.91,5.07c2.84,.69,7.13,1.73,18.97-26.5,3.65-8.34,9.75-1.46,9.81-1.38v-4.73c-2.07-1.18-2.21-1.26-5.32-2.13-.57-.16-1.19-.13-1.71,.14-.83,.43-1.67,1.41-3.13,4.52q-6.82,14.52-11.73,22.47-2.89,4.29-26.39-5.03c-1.6-.43-4.94-1.33-9.98,2.69-14.15,11.29-25.67,25.4-39.63,36.89-5.24,3.73-8.41,5.98-72.68-21.71l-2.23,3.61c9.21,4.02,37.22,16.23,62.83,24.3h0Z"/></g></g></g></g></g></svg>