<?xml version="1.0" standalone="no"?>
<!DOCTYPE svg PUBLIC "-//W3C//DTD SVG 20010904//EN"
 "http://www.w3.org/TR/2001/REC-SVG-20010904/DTD/svg10.dtd">
<svg version="1.0" xmlns="http://www.w3.org/2000/svg"
 width="700.000000pt" height="700.000000pt" viewBox="0 0 700.000000 700.000000"
 preserveAspectRatio="xMidYMid meet">
<g transform="translate(0.000000,700.000000) scale(0.100000,-0.100000)"
fill="#000000" stroke="none">
<path d="M4045 6412 c-104 -53 -530 -264 -945 -469 -415 -206 -815 -404 -887
-440 -127 -63 -133 -68 -134 -97 -3 -184 0 -1609 4 -1612 2 -3 44 15 93 40 83
42 436 216 1189 586 176 86 451 222 610 301 l291 144 -1 823 c0 726 -2 822
-15 821 -8 -1 -100 -45 -205 -97z"/>
<path d="M4814 5686 l0 -824 260 -128 c247 -121 568 -279 1509 -743 225 -110
411 -201 413 -201 2 0 4 371 4 824 l0 824 -34 16 c-18 9 -344 169 -722 357
-1235 612 -1413 699 -1421 699 -5 0 -9 -371 -9 -824z"/>
<path d="M0 3490 c0 -1650 3 -3000 6 -3000 3 0 125 84 271 188 248 174 368
258 510 357 32 22 121 85 198 140 78 55 232 163 343 240 l201 140 1 210 c0
180 1 3505 0 3621 l0 41 -127 89 c-70 49 -166 116 -213 148 -47 33 -119 84
-160 113 -41 29 -82 57 -90 63 -8 6 -73 51 -145 101 -71 50 -164 115 -205 144
-230 160 -396 275 -481 336 -53 38 -99 69 -103 69 -3 0 -6 -1350 -6 -3000z"/>
<path d="M2079 3243 c-2 -84 0 -1635 3 -1637 1 -1 64 -32 138 -68 74 -37 333
-164 575 -283 242 -119 562 -277 710 -350 149 -73 379 -187 513 -253 133 -66
244 -117 245 -113 2 3 3 375 3 826 l-1 820 -240 119 c-222 111 -982 487 -1652
817 -155 76 -284 139 -287 139 -3 0 -6 -8 -7 -17z"/>
<path d="M6755 3146 c-126 -63 -464 -229 -750 -371 -286 -141 -671 -331 -855
-422 l-336 -165 0 -829 c0 -455 2 -826 5 -825 3 2 103 51 221 109 220 107 606
297 1415 696 253 125 479 236 503 246 l42 19 0 828 c0 455 -3 828 -7 828 -5
-1 -111 -52 -238 -114z"/>
</g>
</svg>
