<svg width="36" height="36" viewBox="0 0 36 36" fill="none" xmlns="http://www.w3.org/2000/svg">
<circle cx="18" cy="18" r="17" stroke="#CBCBCB" stroke-width="2"/>
<path d="M14.4844 15.1902H19.6611V22.7137H22.2363V24.7H14.4844V22.7137H17.1914V17.1854H14.4844V15.1902ZM17.0156 12.7557C17.0156 12.5682 17.0479 12.3953 17.1123 12.2371C17.1826 12.0731 17.2793 11.9354 17.4023 11.824C17.5254 11.7068 17.6719 11.616 17.8418 11.5516C18.0176 11.4871 18.2109 11.4549 18.4219 11.4549C18.8555 11.4549 19.1982 11.5779 19.4502 11.824C19.708 12.0643 19.8369 12.3748 19.8369 12.7557C19.8369 13.1365 19.708 13.45 19.4502 13.6961C19.1982 13.9363 18.8555 14.0565 18.4219 14.0565C18.2109 14.0565 18.0176 14.0242 17.8418 13.9598C17.6719 13.8953 17.5254 13.8074 17.4023 13.6961C17.2793 13.5789 17.1826 13.4412 17.1123 13.283C17.0479 13.119 17.0156 12.9432 17.0156 12.7557Z" fill="#2B3035"/>
</svg>
