<svg width="33" height="36" viewBox="0 0 33 36" fill="none" xmlns="http://www.w3.org/2000/svg">
<path fill-rule="evenodd" clip-rule="evenodd" d="M30.384 18C30.384 15.624 29.808 13.392 28.8 11.448L31.968 9.648L31.248 8.424L28.08 10.224C25.632 6.48 21.456 3.888 16.704 3.672V0H15.264V3.672C10.44 3.888 6.336 6.408 3.888 10.224L0.72 8.352L0 9.576L3.168 11.376C2.16 13.392 1.584 15.624 1.584 18C1.584 20.376 2.16 22.608 3.168 24.552L0 26.352L0.72 27.576L3.888 25.776C6.336 29.52 10.512 32.112 15.264 32.328V36H16.704V32.328C21.456 32.112 25.632 29.52 28.08 25.776L31.248 27.576L31.968 26.352L28.8 24.552C29.736 22.608 30.384 20.376 30.384 18ZM28.944 18C28.944 20.088 28.44 22.104 27.576 23.832L20.088 19.512C20.088 19.512 20.088 19.512 20.088 19.584C20.304 19.08 20.376 18.576 20.376 18C20.376 17.424 20.304 16.92 20.088 16.416C20.088 16.416 20.088 16.416 20.088 16.488L27.576 12.168C28.368 13.896 28.944 15.912 28.944 18ZM26.784 10.944L19.296 15.264C18.648 14.472 17.712 13.896 16.632 13.752H16.704V5.112C20.88 5.328 24.624 7.56 26.784 10.944ZM19.728 15.84L19.656 15.768C19.656 15.84 19.656 15.84 19.728 15.84ZM13.104 18C13.104 16.416 14.4 15.12 15.984 15.12C17.568 15.12 18.864 16.416 18.864 18C18.864 19.584 17.568 20.88 15.984 20.88C14.328 20.88 13.104 19.584 13.104 18ZM15.264 5.112V13.752H15.336C14.256 13.896 13.32 14.472 12.672 15.264L5.184 10.944C7.272 7.56 11.016 5.328 15.264 5.112ZM3.024 18C3.024 15.912 3.528 13.896 4.392 12.168L11.88 16.488C11.88 16.488 11.88 16.488 11.88 16.416C11.664 16.92 11.592 17.424 11.592 18C11.592 18.576 11.664 19.08 11.88 19.584C11.88 19.584 11.88 19.584 11.88 19.512L4.392 23.832C3.528 22.104 3.024 20.088 3.024 18ZM12.24 15.768L12.168 15.84C12.24 15.84 12.24 15.84 12.24 15.768ZM5.112 25.056L12.6 20.736C13.248 21.528 14.184 22.104 15.264 22.248H15.192V30.888C11.016 30.672 7.272 28.44 5.112 25.056ZM12.168 20.16L12.24 20.232C12.24 20.16 12.24 20.16 12.168 20.16ZM16.704 30.888V22.248H16.632C17.712 22.104 18.648 21.528 19.296 20.736L26.784 25.056C24.624 28.44 20.88 30.672 16.704 30.888ZM19.728 20.16L19.656 20.232C19.656 20.16 19.656 20.16 19.728 20.16Z" fill="url(#paint0_linear)"/>
<defs>
<linearGradient id="paint0_linear" x1="3.546" y1="30.402" x2="28.3308" y2="5.61723" gradientUnits="userSpaceOnUse">
<stop stop-color="#0081AE"/>
<stop offset="1" stop-color="#00D9D2"/>
</linearGradient>
</defs>
</svg>
