<svg width="19" height="16" viewBox="0 0 19 16" fill="none" xmlns="http://www.w3.org/2000/svg">
<path fill-rule="evenodd" clip-rule="evenodd" d="M1.97205 0C0.876351 0 0 0.908074 0 1.98895C0 3.07725 0.883741 3.96098 1.97205 3.96098C3.07357 3.96098 3.96105 3.08097 3.96105 1.98895C3.96105 0.904321 3.08099 0 1.97205 0ZM2.02283 6.02441C0.934522 6.02441 0.0507812 6.90814 0.0507812 7.99644C0.0507812 9.09793 0.930803 9.98539 2.02283 9.98539C3.12803 9.98539 4.01183 9.10168 4.01183 7.99644C4.01183 6.90441 3.12429 6.02441 2.02283 6.02441ZM1.97205 12.0144C0.883741 12.0144 0 12.8981 0 13.9864C0 15.0879 0.880021 15.9754 1.97205 15.9754C3.0773 15.9754 3.96105 15.0917 3.96105 13.9864C3.96105 12.8944 3.07357 12.0144 1.97205 12.0144ZM7.323 0.765869C6.64389 0.765869 6.09229 1.30445 6.09229 1.98911C6.09229 2.67373 6.64388 3.21235 7.323 3.21235H17.7568C18.4359 3.21235 18.9875 2.67373 18.9875 1.98911C18.9875 1.30445 18.4359 0.765869 17.7568 0.765869H7.323ZM7.323 6.77295C6.63634 6.77295 6.09229 7.33589 6.09229 7.99619C6.09229 8.68084 6.64389 9.21943 7.323 9.21943H17.7568C18.4359 9.21943 18.9875 8.68084 18.9875 7.99619C18.9875 7.33589 18.4434 6.77295 17.7568 6.77295H7.323ZM7.323 12.7632C6.64388 12.7632 6.09229 13.3018 6.09229 13.9864C6.09229 14.6711 6.64389 15.2097 7.323 15.2097H17.7568C18.4359 15.2097 18.9875 14.6711 18.9875 13.9864C18.9875 13.3018 18.4359 12.7632 17.7568 12.7632H7.323Z" fill="#00D9D2"/>
</svg>
