<svg width="44" height="44" viewBox="0 0 44 44" fill="none" xmlns="http://www.w3.org/2000/svg">
<path d="M23.0547 22.2264H20.8311L20.6904 13.9031H23.1953L23.0547 22.2264ZM20.5146 25.5047C20.5146 25.3113 20.5469 25.1326 20.6113 24.9686C20.6758 24.8045 20.7695 24.6609 20.8926 24.5379C21.0156 24.4149 21.165 24.3211 21.3408 24.2567C21.5166 24.1863 21.7158 24.1512 21.9385 24.1512C22.1553 24.1512 22.3516 24.1863 22.5273 24.2567C22.7031 24.3211 22.8525 24.4149 22.9756 24.5379C23.0986 24.6609 23.1924 24.8045 23.2568 24.9686C23.3271 25.1326 23.3623 25.3113 23.3623 25.5047C23.3623 25.6922 23.3271 25.868 23.2568 26.032C23.1924 26.1961 23.0986 26.3367 22.9756 26.4539C22.8525 26.5711 22.7031 26.6619 22.5273 26.7264C22.3516 26.7967 22.1553 26.8318 21.9385 26.8318C21.7158 26.8318 21.5166 26.7967 21.3408 26.7264C21.165 26.6619 21.0156 26.5711 20.8926 26.4539C20.7695 26.3367 20.6758 26.1961 20.6113 26.032C20.5469 25.868 20.5146 25.6922 20.5146 25.5047Z" fill="#2B3035"/>
<path d="M4.67949 32L22 2L39.3205 32H4.67949Z" stroke="#EB5757" stroke-width="2"/>
</svg>
